<mxfile modified="2022-12-02T00:10:03.556Z" host="app.diagrams.net" agent="5.0 (Windows NT 10.0; Win64; x64) AppleWebKit/537.36 (KHTML, like Gecko) Chrome/107.0.0.0 Safari/537.36" etag="UDofSFQR-bVQk5dTdDX1" version="20.6.0" type="github" pages="3">
  <diagram id="_ncYP8lrsUd9Hia-P4ZR" name="WAI Architecture">
    <mxGraphModel dx="2031" dy="1089" grid="1" gridSize="10" guides="1" tooltips="1" connect="1" arrows="1" fold="1" page="1" pageScale="1" pageWidth="827" pageHeight="1169" math="0" shadow="0">
      <root>
        <mxCell id="0" />
        <mxCell id="1" parent="0" />
        <mxCell id="kqmbkUOljX83greQ5X14-1" value="원자재(팜유) 시황 예측 AWS Architecture" style="text;html=1;resizable=0;points=[];autosize=1;align=left;verticalAlign=top;spacingTop=-4;fontSize=30;fontStyle=1;labelBackgroundColor=none;" parent="1" vertex="1">
          <mxGeometry x="36.5" y="26.5" width="590" height="40" as="geometry" />
        </mxCell>
        <mxCell id="kqmbkUOljX83greQ5X14-2" value="Author: 디지털인프라팀" style="text;html=1;resizable=0;points=[];autosize=1;align=left;verticalAlign=top;spacingTop=-4;fontSize=16;labelBackgroundColor=none;" parent="1" vertex="1">
          <mxGeometry x="36.5" y="76.5" width="190" height="30" as="geometry" />
        </mxCell>
        <mxCell id="kqmbkUOljX83greQ5X14-3" value="" style="line;strokeWidth=2;html=1;fontSize=14;labelBackgroundColor=none;" parent="1" vertex="1">
          <mxGeometry x="32.5" y="101.5" width="1060" height="10" as="geometry" />
        </mxCell>
        <mxCell id="kqmbkUOljX83greQ5X14-4" value="AWS Cloud" style="points=[[0,0],[0.25,0],[0.5,0],[0.75,0],[1,0],[1,0.25],[1,0.5],[1,0.75],[1,1],[0.75,1],[0.5,1],[0.25,1],[0,1],[0,0.75],[0,0.5],[0,0.25]];outlineConnect=0;gradientColor=none;html=1;whiteSpace=wrap;fontSize=12;fontStyle=0;shape=mxgraph.aws4.group;grIcon=mxgraph.aws4.group_aws_cloud_alt;strokeColor=#232F3E;fillColor=none;verticalAlign=top;align=left;spacingLeft=30;fontColor=#232F3E;dashed=0;labelBackgroundColor=none;container=1;pointerEvents=0;collapsible=0;recursiveResize=0;" parent="1" vertex="1">
          <mxGeometry x="33" y="150" width="1630" height="600" as="geometry" />
        </mxCell>
        <mxCell id="kqmbkUOljX83greQ5X14-5" value="데이터 수집" style="swimlane;startSize=40;fontSize=16;" parent="kqmbkUOljX83greQ5X14-4" vertex="1">
          <mxGeometry x="1" y="30" width="329" height="570" as="geometry">
            <mxRectangle x="-30" y="1060" width="120" height="30" as="alternateBounds" />
          </mxGeometry>
        </mxCell>
        <mxCell id="kqmbkUOljX83greQ5X14-14" value="1" style="rounded=1;whiteSpace=wrap;html=1;fillColor=#007CBD;strokeColor=none;fontColor=#FFFFFF;fontStyle=1;fontSize=22;labelBackgroundColor=none;" parent="kqmbkUOljX83greQ5X14-5" vertex="1">
          <mxGeometry x="6" y="190" width="40" height="38" as="geometry" />
        </mxCell>
        <mxCell id="kqmbkUOljX83greQ5X14-15" value="AWS EC2&lt;br&gt;Data Crawling&lt;br&gt;t3.large" style="sketch=0;points=[[0,0,0],[0.25,0,0],[0.5,0,0],[0.75,0,0],[1,0,0],[0,1,0],[0.25,1,0],[0.5,1,0],[0.75,1,0],[1,1,0],[0,0.25,0],[0,0.5,0],[0,0.75,0],[1,0.25,0],[1,0.5,0],[1,0.75,0]];outlineConnect=0;fontColor=#232F3E;gradientColor=#F78E04;gradientDirection=north;fillColor=#D05C17;strokeColor=#ffffff;dashed=0;verticalLabelPosition=bottom;verticalAlign=top;align=center;html=1;fontSize=12;fontStyle=0;aspect=fixed;shape=mxgraph.aws4.resourceIcon;resIcon=mxgraph.aws4.ec2;" parent="kqmbkUOljX83greQ5X14-5" vertex="1">
          <mxGeometry x="56" y="230" width="78" height="78" as="geometry" />
        </mxCell>
        <mxCell id="kqmbkUOljX83greQ5X14-16" value="AWS S3&lt;br&gt;Save Raw Data" style="sketch=0;points=[[0,0,0],[0.25,0,0],[0.5,0,0],[0.75,0,0],[1,0,0],[0,1,0],[0.25,1,0],[0.5,1,0],[0.75,1,0],[1,1,0],[0,0.25,0],[0,0.5,0],[0,0.75,0],[1,0.25,0],[1,0.5,0],[1,0.75,0]];outlineConnect=0;fontColor=#232F3E;gradientColor=#60A337;gradientDirection=north;fillColor=#277116;strokeColor=#ffffff;dashed=0;verticalLabelPosition=bottom;verticalAlign=top;align=center;html=1;fontSize=12;fontStyle=0;aspect=fixed;shape=mxgraph.aws4.resourceIcon;resIcon=mxgraph.aws4.s3;" parent="kqmbkUOljX83greQ5X14-5" vertex="1">
          <mxGeometry x="206" y="230" width="78" height="78" as="geometry" />
        </mxCell>
        <mxCell id="kqmbkUOljX83greQ5X14-17" style="edgeStyle=orthogonalEdgeStyle;rounded=0;orthogonalLoop=1;jettySize=auto;html=1;entryX=0;entryY=0.5;entryDx=0;entryDy=0;entryPerimeter=0;" parent="kqmbkUOljX83greQ5X14-5" source="kqmbkUOljX83greQ5X14-15" target="kqmbkUOljX83greQ5X14-16" edge="1">
          <mxGeometry relative="1" as="geometry" />
        </mxCell>
        <mxCell id="kqmbkUOljX83greQ5X14-18" value="2" style="rounded=1;whiteSpace=wrap;html=1;fillColor=#007CBD;strokeColor=none;fontColor=#FFFFFF;fontStyle=1;fontSize=22;labelBackgroundColor=none;" parent="kqmbkUOljX83greQ5X14-5" vertex="1">
          <mxGeometry x="166" y="190" width="40" height="38" as="geometry" />
        </mxCell>
        <mxCell id="kqmbkUOljX83greQ5X14-19" value="모델 배포 및 서비스" style="swimlane;startSize=40;fontSize=16;align=center;verticalAlign=middle;" parent="kqmbkUOljX83greQ5X14-4" vertex="1">
          <mxGeometry x="1381" y="30" width="249" height="570" as="geometry">
            <mxRectangle x="731" y="30" width="120" height="30" as="alternateBounds" />
          </mxGeometry>
        </mxCell>
        <mxCell id="kqmbkUOljX83greQ5X14-20" value="6" style="rounded=1;whiteSpace=wrap;html=1;fillColor=#007CBD;strokeColor=none;fontColor=#FFFFFF;fontStyle=1;fontSize=22;labelBackgroundColor=none;" parent="kqmbkUOljX83greQ5X14-19" vertex="1">
          <mxGeometry y="40" width="40" height="38" as="geometry" />
        </mxCell>
        <mxCell id="kqmbkUOljX83greQ5X14-21" value="EC2 instance&lt;br&gt;: Presentation Tier" style="points=[[0,0],[0.25,0],[0.5,0],[0.75,0],[1,0],[1,0.25],[1,0.5],[1,0.75],[1,1],[0.75,1],[0.5,1],[0.25,1],[0,1],[0,0.75],[0,0.5],[0,0.25]];outlineConnect=0;gradientColor=none;html=1;whiteSpace=wrap;fontSize=12;fontStyle=0;container=1;pointerEvents=0;collapsible=0;recursiveResize=0;shape=mxgraph.aws4.group;grIcon=mxgraph.aws4.group_ec2_instance_contents;strokeColor=#D86613;fillColor=none;verticalAlign=top;align=left;spacingLeft=30;fontColor=#D86613;dashed=0;fontFamily=Tahoma;" parent="kqmbkUOljX83greQ5X14-19" vertex="1">
          <mxGeometry x="17" y="103" width="213" height="130" as="geometry" />
        </mxCell>
        <mxCell id="kqmbkUOljX83greQ5X14-22" value="" style="shape=image;verticalLabelPosition=bottom;labelBackgroundColor=default;verticalAlign=top;aspect=fixed;imageAspect=0;image=https://acquven.com/blog/02/images/angular.jpg;" parent="kqmbkUOljX83greQ5X14-21" vertex="1">
          <mxGeometry x="40" y="41" width="126.42" height="83.14" as="geometry" />
        </mxCell>
        <mxCell id="kqmbkUOljX83greQ5X14-23" value="" style="sketch=0;outlineConnect=0;fontColor=#232F3E;gradientColor=none;fillColor=#232F3D;strokeColor=none;dashed=0;verticalLabelPosition=bottom;verticalAlign=top;align=center;html=1;fontSize=12;fontStyle=0;aspect=fixed;pointerEvents=1;shape=mxgraph.aws4.users;fontFamily=Tahoma;" parent="kqmbkUOljX83greQ5X14-21" vertex="1">
          <mxGeometry x="170" y="1.5" width="43" height="43" as="geometry" />
        </mxCell>
        <mxCell id="kqmbkUOljX83greQ5X14-24" value="EC2 instance :&lt;br&gt;: Application Tier" style="points=[[0,0],[0.25,0],[0.5,0],[0.75,0],[1,0],[1,0.25],[1,0.5],[1,0.75],[1,1],[0.75,1],[0.5,1],[0.25,1],[0,1],[0,0.75],[0,0.5],[0,0.25]];outlineConnect=0;gradientColor=none;html=1;whiteSpace=wrap;fontSize=12;fontStyle=0;container=1;pointerEvents=0;collapsible=0;recursiveResize=0;shape=mxgraph.aws4.group;grIcon=mxgraph.aws4.group_ec2_instance_contents;strokeColor=#D86613;fillColor=none;verticalAlign=top;align=left;spacingLeft=30;fontColor=#D86613;dashed=0;fontFamily=Tahoma;" parent="kqmbkUOljX83greQ5X14-19" vertex="1">
          <mxGeometry x="17" y="250" width="213" height="130" as="geometry" />
        </mxCell>
        <mxCell id="kqmbkUOljX83greQ5X14-25" value="" style="shape=image;verticalLabelPosition=bottom;labelBackgroundColor=default;verticalAlign=top;aspect=fixed;imageAspect=0;image=https://images.velog.io/images/galaxy/post/b501f325-1810-4e26-962e-e66ca0b94ca9/image.png;" parent="kqmbkUOljX83greQ5X14-24" vertex="1">
          <mxGeometry x="20" y="41.26" width="169.2" height="88.74" as="geometry" />
        </mxCell>
        <mxCell id="sX1N6BWLLxhWYm_5iFF9-2" value="EC2 instance :&lt;br&gt;: Database Tier" style="points=[[0,0],[0.25,0],[0.5,0],[0.75,0],[1,0],[1,0.25],[1,0.5],[1,0.75],[1,1],[0.75,1],[0.5,1],[0.25,1],[0,1],[0,0.75],[0,0.5],[0,0.25]];outlineConnect=0;gradientColor=none;html=1;whiteSpace=wrap;fontSize=12;fontStyle=0;container=1;pointerEvents=0;collapsible=0;recursiveResize=0;shape=mxgraph.aws4.group;grIcon=mxgraph.aws4.group_ec2_instance_contents;strokeColor=#D86613;fillColor=none;verticalAlign=top;align=left;spacingLeft=30;fontColor=#D86613;dashed=0;fontFamily=Tahoma;" vertex="1" parent="kqmbkUOljX83greQ5X14-19">
          <mxGeometry x="17" y="400" width="213" height="130" as="geometry" />
        </mxCell>
        <mxCell id="kqmbkUOljX83greQ5X14-28" value="데이터 정제" style="swimlane;startSize=40;fontSize=16;" parent="kqmbkUOljX83greQ5X14-4" vertex="1">
          <mxGeometry x="331" y="30" width="530" height="570" as="geometry">
            <mxRectangle x="731" y="30" width="120" height="30" as="alternateBounds" />
          </mxGeometry>
        </mxCell>
        <mxCell id="kqmbkUOljX83greQ5X14-29" value="3" style="rounded=1;whiteSpace=wrap;html=1;fillColor=#007CBD;strokeColor=none;fontColor=#FFFFFF;fontStyle=1;fontSize=22;labelBackgroundColor=none;" parent="kqmbkUOljX83greQ5X14-28" vertex="1">
          <mxGeometry x="57" y="42" width="40" height="38" as="geometry" />
        </mxCell>
        <mxCell id="kqmbkUOljX83greQ5X14-30" value="AWS EC2&lt;br&gt;Control Servers&lt;br&gt;m6i.2xlarge" style="sketch=0;points=[[0,0,0],[0.25,0,0],[0.5,0,0],[0.75,0,0],[1,0,0],[0,1,0],[0.25,1,0],[0.5,1,0],[0.75,1,0],[1,1,0],[0,0.25,0],[0,0.5,0],[0,0.75,0],[1,0.25,0],[1,0.5,0],[1,0.75,0]];outlineConnect=0;fontColor=#232F3E;gradientColor=#F78E04;gradientDirection=north;fillColor=#D05C17;strokeColor=#ffffff;dashed=0;verticalLabelPosition=bottom;verticalAlign=top;align=center;html=1;fontSize=12;fontStyle=0;aspect=fixed;shape=mxgraph.aws4.resourceIcon;resIcon=mxgraph.aws4.ec2;" parent="kqmbkUOljX83greQ5X14-28" vertex="1">
          <mxGeometry x="17" y="231" width="78" height="78" as="geometry" />
        </mxCell>
        <mxCell id="kqmbkUOljX83greQ5X14-31" value="모델링 및 모델 검증" style="swimlane;startSize=40;fontSize=16;strokeColor=#000000;" parent="kqmbkUOljX83greQ5X14-4" vertex="1">
          <mxGeometry x="861" y="30" width="520" height="570" as="geometry">
            <mxRectangle x="1140" y="30" width="120" height="30" as="alternateBounds" />
          </mxGeometry>
        </mxCell>
        <mxCell id="kqmbkUOljX83greQ5X14-32" value="일일 수행" style="swimlane;direction=north;whiteSpace=wrap;" parent="kqmbkUOljX83greQ5X14-31" vertex="1">
          <mxGeometry x="-423" y="41" width="921" height="199" as="geometry" />
        </mxCell>
        <mxCell id="kqmbkUOljX83greQ5X14-33" value="EC2 Instance&lt;br&gt;:c6i.24large&lt;br&gt;D+10" style="points=[[0,0],[0.25,0],[0.5,0],[0.75,0],[1,0],[1,0.25],[1,0.5],[1,0.75],[1,1],[0.75,1],[0.5,1],[0.25,1],[0,1],[0,0.75],[0,0.5],[0,0.25]];outlineConnect=0;gradientColor=none;html=1;whiteSpace=wrap;fontSize=12;fontStyle=0;container=0;pointerEvents=0;collapsible=0;recursiveResize=0;shape=mxgraph.aws4.group;grIcon=mxgraph.aws4.group_ec2_instance_contents;strokeColor=#D86613;fillColor=none;verticalAlign=top;align=left;spacingLeft=30;fontColor=#D86613;dashed=0;" parent="kqmbkUOljX83greQ5X14-32" vertex="1">
          <mxGeometry x="27" y="133" width="893" height="66" as="geometry" />
        </mxCell>
        <mxCell id="kqmbkUOljX83greQ5X14-34" value="EC2 Instance&lt;br&gt;:c6i.24large&lt;br&gt;D+5" style="points=[[0,0],[0.25,0],[0.5,0],[0.75,0],[1,0],[1,0.25],[1,0.5],[1,0.75],[1,1],[0.75,1],[0.5,1],[0.25,1],[0,1],[0,0.75],[0,0.5],[0,0.25]];outlineConnect=0;gradientColor=none;html=1;whiteSpace=wrap;fontSize=12;fontStyle=0;container=0;pointerEvents=0;collapsible=0;recursiveResize=0;shape=mxgraph.aws4.group;grIcon=mxgraph.aws4.group_ec2_instance_contents;strokeColor=#D86613;fillColor=none;verticalAlign=top;align=left;spacingLeft=30;fontColor=#D86613;dashed=0;" parent="kqmbkUOljX83greQ5X14-32" vertex="1">
          <mxGeometry x="27" y="67" width="893" height="66" as="geometry" />
        </mxCell>
        <mxCell id="kqmbkUOljX83greQ5X14-35" value="EC2 Instance &lt;br&gt;:c6i.24large&lt;br&gt;D+1" style="points=[[0,0],[0.25,0],[0.5,0],[0.75,0],[1,0],[1,0.25],[1,0.5],[1,0.75],[1,1],[0.75,1],[0.5,1],[0.25,1],[0,1],[0,0.75],[0,0.5],[0,0.25]];outlineConnect=0;gradientColor=none;html=1;whiteSpace=wrap;fontSize=12;fontStyle=0;container=0;pointerEvents=0;collapsible=0;recursiveResize=0;shape=mxgraph.aws4.group;grIcon=mxgraph.aws4.group_ec2_instance_contents;strokeColor=#D86613;fillColor=none;verticalAlign=top;align=left;spacingLeft=30;fontColor=#D86613;dashed=0;" parent="kqmbkUOljX83greQ5X14-32" vertex="1">
          <mxGeometry x="27" y="1" width="893" height="66" as="geometry" />
        </mxCell>
        <mxCell id="kqmbkUOljX83greQ5X14-36" value="" style="html=1;verticalLabelPosition=bottom;align=center;labelBackgroundColor=#ffffff;verticalAlign=top;strokeWidth=2;strokeColor=#0080F0;shadow=0;dashed=0;shape=mxgraph.ios7.icons.data;" parent="kqmbkUOljX83greQ5X14-32" vertex="1">
          <mxGeometry x="157" y="8.079999999999936" width="48.11" height="51.85" as="geometry" />
        </mxCell>
        <mxCell id="kqmbkUOljX83greQ5X14-37" value="" style="html=1;verticalLabelPosition=bottom;align=center;labelBackgroundColor=#ffffff;verticalAlign=top;strokeWidth=2;strokeColor=#0080F0;shadow=0;dashed=0;shape=mxgraph.ios7.icons.data;" parent="kqmbkUOljX83greQ5X14-32" vertex="1">
          <mxGeometry x="157" y="73.57999999999993" width="48.11" height="51.85" as="geometry" />
        </mxCell>
        <mxCell id="kqmbkUOljX83greQ5X14-38" value="" style="html=1;verticalLabelPosition=bottom;align=center;labelBackgroundColor=#ffffff;verticalAlign=top;strokeWidth=2;strokeColor=#0080F0;shadow=0;dashed=0;shape=mxgraph.ios7.icons.data;" parent="kqmbkUOljX83greQ5X14-32" vertex="1">
          <mxGeometry x="157" y="140.06999999999994" width="48.11" height="51.85" as="geometry" />
        </mxCell>
        <mxCell id="kqmbkUOljX83greQ5X14-39" value="Daily" style="text;html=1;strokeColor=none;fillColor=none;align=center;verticalAlign=middle;whiteSpace=wrap;rounded=0;fontStyle=1;fontSize=6;fontFamily=Helvetica;" parent="kqmbkUOljX83greQ5X14-32" vertex="1">
          <mxGeometry x="218.49999999999983" y="8.079999999999949" width="60" height="30" as="geometry" />
        </mxCell>
        <mxCell id="kqmbkUOljX83greQ5X14-40" value="Close" style="text;html=1;strokeColor=none;fillColor=none;align=center;verticalAlign=middle;whiteSpace=wrap;rounded=0;fontStyle=1;fontSize=6;fontFamily=Helvetica;" parent="kqmbkUOljX83greQ5X14-32" vertex="1">
          <mxGeometry x="207" y="29.93" width="83" height="30" as="geometry" />
        </mxCell>
        <mxCell id="kqmbkUOljX83greQ5X14-41" value="...&lt;br&gt;22.10.14(금)&lt;br&gt;22.10.17(월)&lt;br&gt;22.10.18(화)&lt;br&gt;22.10.19(수)" style="shape=note;whiteSpace=wrap;html=1;backgroundOutline=1;darkOpacity=0.05;fontSize=6;size=0;" parent="kqmbkUOljX83greQ5X14-32" vertex="1">
          <mxGeometry x="286.01" y="1" width="90" height="65" as="geometry" />
        </mxCell>
        <mxCell id="kqmbkUOljX83greQ5X14-42" value="...&lt;br&gt;22.09.23~22.09.29&lt;br&gt;22.09.29~22.10.06&lt;br&gt;22.10.06~22.10.13&lt;br&gt;22.10.13~22.10.19" style="shape=note;whiteSpace=wrap;html=1;backgroundOutline=1;darkOpacity=0.05;fontSize=6;size=0;" parent="kqmbkUOljX83greQ5X14-32" vertex="1">
          <mxGeometry x="286.01" y="67.5" width="90" height="65" as="geometry" />
        </mxCell>
        <mxCell id="kqmbkUOljX83greQ5X14-43" value="...&lt;br&gt;22.08.24~22.09.06&lt;br&gt;22.09.06~22.09.21&lt;br&gt;22.09.21~22.10.05&lt;br&gt;22.10.05~22.10.19" style="shape=note;whiteSpace=wrap;html=1;backgroundOutline=1;darkOpacity=0.05;fontSize=6;size=0;" parent="kqmbkUOljX83greQ5X14-32" vertex="1">
          <mxGeometry x="286" y="132.5" width="90" height="65" as="geometry" />
        </mxCell>
        <mxCell id="kqmbkUOljX83greQ5X14-44" value="" style="endArrow=classic;html=1;rounded=0;fontFamily=Tahoma;fontSize=8;startSize=1;jumpSize=4;" parent="kqmbkUOljX83greQ5X14-32" edge="1">
          <mxGeometry width="50" height="50" relative="1" as="geometry">
            <mxPoint x="387" y="33.08000000000004" as="sourcePoint" />
            <mxPoint x="617" y="33.08000000000004" as="targetPoint" />
          </mxGeometry>
        </mxCell>
        <mxCell id="kqmbkUOljX83greQ5X14-45" value="" style="endArrow=classic;html=1;rounded=0;fontFamily=Tahoma;fontSize=8;startSize=1;jumpSize=4;" parent="kqmbkUOljX83greQ5X14-32" edge="1">
          <mxGeometry width="50" height="50" relative="1" as="geometry">
            <mxPoint x="387" y="100.57999999999993" as="sourcePoint" />
            <mxPoint x="617" y="100.57999999999993" as="targetPoint" />
          </mxGeometry>
        </mxCell>
        <mxCell id="kqmbkUOljX83greQ5X14-46" value="" style="endArrow=classic;html=1;rounded=0;fontFamily=Tahoma;fontSize=8;startSize=1;jumpSize=4;" parent="kqmbkUOljX83greQ5X14-32" edge="1">
          <mxGeometry width="50" height="50" relative="1" as="geometry">
            <mxPoint x="387" y="165.57999999999993" as="sourcePoint" />
            <mxPoint x="617" y="165.57999999999993" as="targetPoint" />
          </mxGeometry>
        </mxCell>
        <mxCell id="kqmbkUOljX83greQ5X14-47" value="MIN MAX AVG" style="text;html=1;strokeColor=none;fillColor=none;align=center;verticalAlign=middle;whiteSpace=wrap;rounded=0;fontStyle=1;fontSize=6;fontFamily=Helvetica;" parent="kqmbkUOljX83greQ5X14-32" vertex="1">
          <mxGeometry x="207" y="98.85" width="83" height="30" as="geometry" />
        </mxCell>
        <mxCell id="kqmbkUOljX83greQ5X14-48" value="5 days" style="text;html=1;strokeColor=none;fillColor=none;align=center;verticalAlign=middle;whiteSpace=wrap;rounded=0;fontStyle=1;fontSize=6;fontFamily=Helvetica;" parent="kqmbkUOljX83greQ5X14-32" vertex="1">
          <mxGeometry x="218.49999999999977" y="73.57999999999994" width="60" height="30" as="geometry" />
        </mxCell>
        <mxCell id="kqmbkUOljX83greQ5X14-49" value="MIN MAX AVG" style="text;html=1;strokeColor=none;fillColor=none;align=center;verticalAlign=middle;whiteSpace=wrap;rounded=0;fontStyle=1;fontSize=6;fontFamily=Helvetica;" parent="kqmbkUOljX83greQ5X14-32" vertex="1">
          <mxGeometry x="207" y="161.92" width="83" height="30" as="geometry" />
        </mxCell>
        <mxCell id="kqmbkUOljX83greQ5X14-50" value="10 days" style="text;html=1;strokeColor=none;fillColor=none;align=center;verticalAlign=middle;whiteSpace=wrap;rounded=0;fontStyle=1;fontSize=6;fontFamily=Helvetica;" parent="kqmbkUOljX83greQ5X14-32" vertex="1">
          <mxGeometry x="218.49999999999977" y="140.06999999999994" width="60" height="30" as="geometry" />
        </mxCell>
        <mxCell id="kqmbkUOljX83greQ5X14-51" value="15개 모델" style="text;html=1;strokeColor=none;fillColor=none;align=center;verticalAlign=middle;whiteSpace=wrap;rounded=0;fontStyle=1;fontSize=6;fontFamily=Helvetica;" parent="kqmbkUOljX83greQ5X14-32" vertex="1">
          <mxGeometry x="725" y="43.579999999999984" width="60" height="30" as="geometry" />
        </mxCell>
        <mxCell id="kqmbkUOljX83greQ5X14-52" value="챔피언 모델 1개" style="text;html=1;strokeColor=none;fillColor=none;align=center;verticalAlign=middle;whiteSpace=wrap;rounded=0;fontStyle=1;fontSize=6;fontFamily=Helvetica;" parent="kqmbkUOljX83greQ5X14-32" vertex="1">
          <mxGeometry x="840" y="43.579999999999984" width="80" height="30" as="geometry" />
        </mxCell>
        <mxCell id="kqmbkUOljX83greQ5X14-53" value="5" style="rounded=1;whiteSpace=wrap;html=1;fillColor=#007CBD;strokeColor=none;fontColor=#FFFFFF;fontStyle=1;fontSize=19;labelBackgroundColor=none;" parent="kqmbkUOljX83greQ5X14-32" vertex="1">
          <mxGeometry x="834" width="28" height="28" as="geometry" />
        </mxCell>
        <mxCell id="kqmbkUOljX83greQ5X14-54" value="4" style="rounded=1;whiteSpace=wrap;html=1;fillColor=#007CBD;strokeColor=none;fontColor=#FFFFFF;fontStyle=1;fontSize=19;labelBackgroundColor=none;" parent="kqmbkUOljX83greQ5X14-32" vertex="1">
          <mxGeometry x="596" width="28" height="28" as="geometry" />
        </mxCell>
        <mxCell id="kqmbkUOljX83greQ5X14-55" value="매월 1&#xa;일 수행" style="swimlane;direction=north;whiteSpace=wrap;" parent="kqmbkUOljX83greQ5X14-31" vertex="1">
          <mxGeometry x="-423" y="239" width="921" height="331" as="geometry">
            <mxRectangle x="87" y="239" width="80" height="40" as="alternateBounds" />
          </mxGeometry>
        </mxCell>
        <mxCell id="kqmbkUOljX83greQ5X14-56" value="Update: 2022-10-17" style="text;html=1;resizable=0;points=[];autosize=1;align=left;verticalAlign=top;spacingTop=-4;fontSize=16;labelBackgroundColor=none;" parent="1" vertex="1">
          <mxGeometry x="330" y="76.5" width="170" height="30" as="geometry" />
        </mxCell>
        <mxCell id="kqmbkUOljX83greQ5X14-57" value="" style="group" parent="1" vertex="1" connectable="0">
          <mxGeometry x="2020" y="180" width="555.5" height="550" as="geometry" />
        </mxCell>
        <mxCell id="kqmbkUOljX83greQ5X14-58" value="" style="rounded=0;whiteSpace=wrap;html=1;fillColor=#EAEDED;fontSize=22;fontColor=#FFFFFF;strokeColor=none;labelBackgroundColor=none;" parent="kqmbkUOljX83greQ5X14-57" vertex="1">
          <mxGeometry width="555.5" height="550" as="geometry" />
        </mxCell>
        <mxCell id="kqmbkUOljX83greQ5X14-59" value="1" style="rounded=1;whiteSpace=wrap;html=1;fillColor=#007CBD;strokeColor=none;fontColor=#FFFFFF;fontStyle=1;fontSize=22;labelBackgroundColor=none;" parent="kqmbkUOljX83greQ5X14-57" vertex="1">
          <mxGeometry x="17" y="12.382739212007504" width="40" height="39.21200750469043" as="geometry" />
        </mxCell>
        <mxCell id="kqmbkUOljX83greQ5X14-60" value="2" style="rounded=1;whiteSpace=wrap;html=1;fillColor=#007CBD;strokeColor=none;fontColor=#FFFFFF;fontStyle=1;fontSize=22;labelBackgroundColor=none;" parent="kqmbkUOljX83greQ5X14-57" vertex="1">
          <mxGeometry x="17" y="122.57607879924953" width="40" height="39.21200750469043" as="geometry" />
        </mxCell>
        <mxCell id="kqmbkUOljX83greQ5X14-61" value="3" style="rounded=1;whiteSpace=wrap;html=1;fillColor=#007CBD;strokeColor=none;fontColor=#FFFFFF;fontStyle=1;fontSize=22;labelBackgroundColor=none;" parent="kqmbkUOljX83greQ5X14-57" vertex="1">
          <mxGeometry x="17" y="197" width="40" height="39.21200750469043" as="geometry" />
        </mxCell>
        <mxCell id="kqmbkUOljX83greQ5X14-62" value="4" style="rounded=1;whiteSpace=wrap;html=1;fillColor=#007CBD;strokeColor=none;fontColor=#FFFFFF;fontStyle=1;fontSize=22;labelBackgroundColor=none;" parent="kqmbkUOljX83greQ5X14-57" vertex="1">
          <mxGeometry x="17" y="271" width="40" height="39.21200750469043" as="geometry" />
        </mxCell>
        <mxCell id="kqmbkUOljX83greQ5X14-63" value="5" style="rounded=1;whiteSpace=wrap;html=1;fillColor=#007CBD;strokeColor=none;fontColor=#FFFFFF;fontStyle=1;fontSize=22;labelBackgroundColor=none;" parent="kqmbkUOljX83greQ5X14-57" vertex="1">
          <mxGeometry x="17" y="345" width="40" height="39.21200750469043" as="geometry" />
        </mxCell>
        <mxCell id="kqmbkUOljX83greQ5X14-64" value="6" style="rounded=1;whiteSpace=wrap;html=1;fillColor=#007CBD;strokeColor=none;fontColor=#FFFFFF;fontStyle=1;fontSize=22;labelBackgroundColor=none;" parent="kqmbkUOljX83greQ5X14-57" vertex="1">
          <mxGeometry x="17" y="419" width="40" height="39.21200750469043" as="geometry" />
        </mxCell>
        <mxCell id="kqmbkUOljX83greQ5X14-65" value="7" style="rounded=1;whiteSpace=wrap;html=1;fillColor=#007CBD;strokeColor=none;fontColor=#FFFFFF;fontStyle=1;fontSize=22;labelBackgroundColor=none;" parent="kqmbkUOljX83greQ5X14-57" vertex="1">
          <mxGeometry x="17" y="493.61341463414635" width="40" height="39.21200750469043" as="geometry" />
        </mxCell>
        <mxCell id="kqmbkUOljX83greQ5X14-66" value="EventBridge를 통해&lt;span&gt;&amp;nbsp;매일 오후 6시 4개의 Lambda 실행하는 스케줄링 수행&lt;br&gt;&lt;ul&gt;&lt;li&gt;&lt;span&gt;1st Lambda: 18:00에 윈도우 EC2 서버를 켜는 일 수행&lt;/span&gt;&lt;/li&gt;&lt;li&gt;2nd Lambda: 18:15에 윈도우 EC2 서버를 종료하는 일 수행&lt;/li&gt;&lt;li&gt;3rd Lambda: Investing 주가 데이터 수집 수행&lt;/li&gt;&lt;li&gt;4th Lambda: WeatherOnlineAPI를 통한 데이터 수집 수행&lt;/li&gt;&lt;/ul&gt;&lt;/span&gt;" style="text;html=1;align=left;verticalAlign=top;spacingTop=-4;fontSize=14;labelBackgroundColor=none;whiteSpace=wrap;" parent="kqmbkUOljX83greQ5X14-57" vertex="1">
          <mxGeometry x="70" y="12.38" width="480" height="101.13" as="geometry" />
        </mxCell>
        <mxCell id="kqmbkUOljX83greQ5X14-67" value="윈도우 EC2를 통해 Eikon 프로그램 실행 후 ReuterAPI를 통한 데이터 수집&lt;br&gt;&lt;font style=&quot;font-size: 13px;&quot;&gt;※&amp;nbsp;&lt;b&gt;Eikon 프로그램&lt;/b&gt;:&lt;span style=&quot;background-color: initial;&quot;&gt;&amp;nbsp;1) VPN역할 수행 2)&lt;/span&gt;&lt;span style=&quot;background-color: initial;&quot;&gt;&amp;nbsp;권장사양: t3a.large(RAM 8GB)&lt;/span&gt;&lt;span style=&quot;background-color: initial;&quot;&gt;&lt;br&gt;&lt;/span&gt;&lt;/font&gt;" style="text;html=1;align=left;verticalAlign=top;spacingTop=-4;fontSize=14;labelBackgroundColor=none;whiteSpace=wrap;" parent="kqmbkUOljX83greQ5X14-57" vertex="1">
          <mxGeometry x="69" y="120" width="486.5" height="40" as="geometry" />
        </mxCell>
        <mxCell id="kqmbkUOljX83greQ5X14-68" value="&lt;span&gt;AI 예측 모델 생성을 위한 주가, 날씨 데이터 세트를 결합한&amp;nbsp;&lt;/span&gt;Dataset 생성&lt;br&gt;주가 데이터의 경우 결측치를 상호보완하여 1개의 Dataset&amp;nbsp;&amp;nbsp;생성" style="text;html=1;align=left;verticalAlign=top;spacingTop=-4;fontSize=14;labelBackgroundColor=none;whiteSpace=wrap;" parent="kqmbkUOljX83greQ5X14-57" vertex="1">
          <mxGeometry x="71.75" y="197" width="481" height="41.28" as="geometry" />
        </mxCell>
        <mxCell id="kqmbkUOljX83greQ5X14-69" value="각 형식에 맞는 데이터 셋을 만들기 위해 Glue를 통한 데이터 변환한다.&lt;br&gt;Monthly는 사용자가 직접 Trigger를 수행하며," style="text;html=1;align=left;verticalAlign=top;spacingTop=-4;fontSize=14;labelBackgroundColor=none;whiteSpace=wrap;" parent="kqmbkUOljX83greQ5X14-57" vertex="1">
          <mxGeometry x="70" y="270.99679174484055" width="450" height="40.75984990619137" as="geometry" />
        </mxCell>
        <mxCell id="kqmbkUOljX83greQ5X14-70" value="S3내 Dataset을 SageMaker input으로&amp;nbsp;넣어 배치 추론을 수행한다.&lt;br&gt;이때, 컴퓨팅 인스턴스는 활성화 되고 추론작업이 끝나면 자동으로 종료된다. 결과값 및 Model Checkpoint는 AWS S3에 저장된다." style="text;html=1;align=left;verticalAlign=top;spacingTop=-4;fontSize=14;labelBackgroundColor=none;whiteSpace=wrap;" parent="kqmbkUOljX83greQ5X14-57" vertex="1">
          <mxGeometry x="71.75" y="344.9951219512195" width="449" height="40.75984990619137" as="geometry" />
        </mxCell>
        <mxCell id="kqmbkUOljX83greQ5X14-71" value="&lt;span&gt;Forecasting Result Data와 Historical Data를 S3에 담고 이를 User에게 QuickSight를 통한 시각화 수행하며, MLOps Engineer는 Model drift과 Data drift를 모니터링한다.&lt;/span&gt;" style="text;html=1;align=left;verticalAlign=top;spacingTop=-4;fontSize=14;labelBackgroundColor=none;whiteSpace=wrap;" parent="kqmbkUOljX83greQ5X14-57" vertex="1">
          <mxGeometry x="70" y="492.8417823639774" width="449" height="40.75984990619137" as="geometry" />
        </mxCell>
        <mxCell id="kqmbkUOljX83greQ5X14-72" value="여러 모델 중 사용자가 설정한 모델 선정 Metric을 통해 모델별 Metric 결과와 최종선정된 모델 예측 결과를 S3로 보냄" style="text;html=1;align=left;verticalAlign=top;spacingTop=-4;fontSize=14;labelBackgroundColor=none;whiteSpace=wrap;" parent="kqmbkUOljX83greQ5X14-57" vertex="1">
          <mxGeometry x="71.75" y="419.00318949343335" width="449" height="40.75984990619137" as="geometry" />
        </mxCell>
        <mxCell id="kqmbkUOljX83greQ5X14-73" value="" style="sketch=0;outlineConnect=0;fontColor=#232F3E;gradientColor=none;fillColor=#067F68;strokeColor=none;dashed=0;verticalLabelPosition=bottom;verticalAlign=top;align=center;html=1;fontSize=12;fontStyle=0;aspect=fixed;pointerEvents=1;shape=mxgraph.aws4.sagemaker_train;labelBackgroundColor=none;fontFamily=Helvetica;" parent="1" vertex="1">
          <mxGeometry x="1095" y="225.5" width="48" height="40" as="geometry" />
        </mxCell>
        <mxCell id="kqmbkUOljX83greQ5X14-74" value="" style="aspect=fixed;perimeter=ellipsePerimeter;html=1;align=center;shadow=0;dashed=0;fontColor=#4277BB;labelBackgroundColor=#ffffff;fontSize=12;spacingTop=3;image;image=img/lib/ibm/data/model.svg;" parent="1" vertex="1">
          <mxGeometry x="1206" y="234" width="40" height="40" as="geometry" />
        </mxCell>
        <mxCell id="kqmbkUOljX83greQ5X14-75" style="edgeStyle=orthogonalEdgeStyle;rounded=0;orthogonalLoop=1;jettySize=auto;html=1;" parent="1" edge="1">
          <mxGeometry relative="1" as="geometry">
            <mxPoint x="1143" y="254" as="sourcePoint" />
            <mxPoint x="1206" y="254" as="targetPoint" />
            <Array as="points">
              <mxPoint x="1161" y="254" />
              <mxPoint x="1161" y="254" />
            </Array>
          </mxGeometry>
        </mxCell>
        <mxCell id="kqmbkUOljX83greQ5X14-76" value="" style="aspect=fixed;perimeter=ellipsePerimeter;html=1;align=center;shadow=0;dashed=0;fontColor=#4277BB;labelBackgroundColor=#ffffff;fontSize=12;spacingTop=3;image;image=img/lib/ibm/data/model.svg;" parent="1" vertex="1">
          <mxGeometry x="1332" y="234" width="40" height="40" as="geometry" />
        </mxCell>
        <mxCell id="kqmbkUOljX83greQ5X14-77" style="edgeStyle=orthogonalEdgeStyle;rounded=0;orthogonalLoop=1;jettySize=auto;html=1;" parent="1" edge="1">
          <mxGeometry relative="1" as="geometry">
            <mxPoint x="1246" y="253" as="sourcePoint" />
            <mxPoint x="1332" y="253" as="targetPoint" />
          </mxGeometry>
        </mxCell>
        <mxCell id="kqmbkUOljX83greQ5X14-78" value="&lt;span style=&quot;color: rgb(0, 0, 0); font-family: Helvetica; font-size: 6px; font-style: normal; font-variant-ligatures: normal; font-variant-caps: normal; font-weight: 700; letter-spacing: normal; orphans: 2; text-align: center; text-indent: 0px; text-transform: none; widows: 2; word-spacing: 0px; -webkit-text-stroke-width: 0px; background-color: rgb(248, 249, 250); text-decoration-thickness: initial; text-decoration-style: initial; text-decoration-color: initial; float: none; display: inline !important;&quot;&gt;D+1&lt;/span&gt;" style="text;whiteSpace=wrap;html=1;" parent="1" vertex="1">
          <mxGeometry x="1100" y="262" width="50" height="40" as="geometry" />
        </mxCell>
        <mxCell id="kqmbkUOljX83greQ5X14-79" value="" style="aspect=fixed;perimeter=ellipsePerimeter;html=1;align=center;shadow=0;dashed=0;fontColor=#4277BB;labelBackgroundColor=#ffffff;fontSize=12;spacingTop=3;image;image=img/lib/ibm/data/model.svg;" parent="1" vertex="1">
          <mxGeometry x="1344" y="291" width="15" height="15" as="geometry" />
        </mxCell>
        <mxCell id="kqmbkUOljX83greQ5X14-80" value="" style="aspect=fixed;perimeter=ellipsePerimeter;html=1;align=center;shadow=0;dashed=0;fontColor=#4277BB;labelBackgroundColor=#ffffff;fontSize=12;spacingTop=3;image;image=img/lib/ibm/data/model.svg;" parent="1" vertex="1">
          <mxGeometry x="1344.5" y="313" width="15" height="15" as="geometry" />
        </mxCell>
        <mxCell id="kqmbkUOljX83greQ5X14-81" value="" style="aspect=fixed;perimeter=ellipsePerimeter;html=1;align=center;shadow=0;dashed=0;fontColor=#4277BB;labelBackgroundColor=#ffffff;fontSize=12;spacingTop=3;image;image=img/lib/ibm/data/model.svg;" parent="1" vertex="1">
          <mxGeometry x="1344" y="335.5" width="15" height="15" as="geometry" />
        </mxCell>
        <mxCell id="kqmbkUOljX83greQ5X14-82" style="edgeStyle=orthogonalEdgeStyle;rounded=0;orthogonalLoop=1;jettySize=auto;html=1;entryX=0;entryY=0.5;entryDx=0;entryDy=0;fontFamily=Tahoma;fontSize=8;" parent="1" source="kqmbkUOljX83greQ5X14-86" target="kqmbkUOljX83greQ5X14-91" edge="1">
          <mxGeometry relative="1" as="geometry">
            <Array as="points">
              <mxPoint x="1181" y="320" />
            </Array>
          </mxGeometry>
        </mxCell>
        <mxCell id="kqmbkUOljX83greQ5X14-83" value="MAX" style="edgeLabel;html=1;align=center;verticalAlign=middle;resizable=0;points=[];fontSize=8;fontFamily=Tahoma;" parent="kqmbkUOljX83greQ5X14-82" vertex="1" connectable="0">
          <mxGeometry x="-0.04" y="1" relative="1" as="geometry">
            <mxPoint as="offset" />
          </mxGeometry>
        </mxCell>
        <mxCell id="kqmbkUOljX83greQ5X14-84" style="edgeStyle=orthogonalEdgeStyle;rounded=0;orthogonalLoop=1;jettySize=auto;html=1;entryX=0;entryY=0.5;entryDx=0;entryDy=0;fontFamily=Tahoma;fontSize=8;" parent="1" source="kqmbkUOljX83greQ5X14-86" target="kqmbkUOljX83greQ5X14-92" edge="1">
          <mxGeometry relative="1" as="geometry">
            <Array as="points">
              <mxPoint x="1158" y="320" />
              <mxPoint x="1158" y="343" />
            </Array>
          </mxGeometry>
        </mxCell>
        <mxCell id="kqmbkUOljX83greQ5X14-85" value="AVG" style="edgeLabel;html=1;align=center;verticalAlign=middle;resizable=0;points=[];fontSize=8;fontFamily=Tahoma;" parent="kqmbkUOljX83greQ5X14-84" vertex="1" connectable="0">
          <mxGeometry x="0.2367" y="2" relative="1" as="geometry">
            <mxPoint x="-1" as="offset" />
          </mxGeometry>
        </mxCell>
        <mxCell id="kqmbkUOljX83greQ5X14-86" value="" style="sketch=0;outlineConnect=0;fontColor=#232F3E;gradientColor=none;fillColor=#067F68;strokeColor=none;dashed=0;verticalLabelPosition=bottom;verticalAlign=top;align=center;html=1;fontSize=12;fontStyle=0;aspect=fixed;pointerEvents=1;shape=mxgraph.aws4.sagemaker_train;labelBackgroundColor=none;fontFamily=Helvetica;" parent="1" vertex="1">
          <mxGeometry x="1095" y="291.5" width="48" height="40" as="geometry" />
        </mxCell>
        <mxCell id="kqmbkUOljX83greQ5X14-87" value="" style="aspect=fixed;perimeter=ellipsePerimeter;html=1;align=center;shadow=0;dashed=0;fontColor=#4277BB;labelBackgroundColor=#ffffff;fontSize=12;spacingTop=3;image;image=img/lib/ibm/data/model.svg;" parent="1" vertex="1">
          <mxGeometry x="1218.5" y="291" width="15" height="15" as="geometry" />
        </mxCell>
        <mxCell id="kqmbkUOljX83greQ5X14-88" style="edgeStyle=orthogonalEdgeStyle;rounded=0;orthogonalLoop=1;jettySize=auto;html=1;" parent="1" source="kqmbkUOljX83greQ5X14-86" target="kqmbkUOljX83greQ5X14-87" edge="1">
          <mxGeometry relative="1" as="geometry">
            <Array as="points">
              <mxPoint x="1158" y="320" />
              <mxPoint x="1158" y="299" />
            </Array>
          </mxGeometry>
        </mxCell>
        <mxCell id="kqmbkUOljX83greQ5X14-89" value="MIN" style="edgeLabel;html=1;align=center;verticalAlign=middle;resizable=0;points=[];fontSize=8;fontFamily=Tahoma;" parent="kqmbkUOljX83greQ5X14-88" vertex="1" connectable="0">
          <mxGeometry x="0.1911" y="1" relative="1" as="geometry">
            <mxPoint as="offset" />
          </mxGeometry>
        </mxCell>
        <mxCell id="kqmbkUOljX83greQ5X14-90" value="&lt;span style=&quot;color: rgb(0, 0, 0); font-family: Helvetica; font-size: 6px; font-style: normal; font-variant-ligatures: normal; font-variant-caps: normal; font-weight: 700; letter-spacing: normal; orphans: 2; text-align: center; text-indent: 0px; text-transform: none; widows: 2; word-spacing: 0px; -webkit-text-stroke-width: 0px; background-color: rgb(248, 249, 250); text-decoration-thickness: initial; text-decoration-style: initial; text-decoration-color: initial; float: none; display: inline !important;&quot;&gt;D+5&lt;/span&gt;" style="text;whiteSpace=wrap;html=1;" parent="1" vertex="1">
          <mxGeometry x="1100" y="328" width="50" height="40" as="geometry" />
        </mxCell>
        <mxCell id="kqmbkUOljX83greQ5X14-91" value="" style="aspect=fixed;perimeter=ellipsePerimeter;html=1;align=center;shadow=0;dashed=0;fontColor=#4277BB;labelBackgroundColor=#ffffff;fontSize=12;spacingTop=3;image;image=img/lib/ibm/data/model.svg;" parent="1" vertex="1">
          <mxGeometry x="1219" y="313" width="15" height="15" as="geometry" />
        </mxCell>
        <mxCell id="kqmbkUOljX83greQ5X14-92" value="" style="aspect=fixed;perimeter=ellipsePerimeter;html=1;align=center;shadow=0;dashed=0;fontColor=#4277BB;labelBackgroundColor=#ffffff;fontSize=12;spacingTop=3;image;image=img/lib/ibm/data/model.svg;" parent="1" vertex="1">
          <mxGeometry x="1218.5" y="335.5" width="15" height="15" as="geometry" />
        </mxCell>
        <mxCell id="kqmbkUOljX83greQ5X14-93" value="" style="endArrow=classic;html=1;rounded=0;fontFamily=Tahoma;fontSize=8;startSize=1;jumpSize=4;" parent="1" edge="1">
          <mxGeometry width="50" height="50" relative="1" as="geometry">
            <mxPoint x="1254" y="298.4200000000001" as="sourcePoint" />
            <mxPoint x="1344" y="298.4200000000001" as="targetPoint" />
          </mxGeometry>
        </mxCell>
        <mxCell id="kqmbkUOljX83greQ5X14-94" value="&lt;span style=&quot;color: rgb(35, 47, 62); font-family: Helvetica; font-size: 12px; font-style: normal; font-variant-ligatures: normal; font-variant-caps: normal; font-weight: 400; letter-spacing: normal; orphans: 2; text-align: center; text-indent: 0px; text-transform: none; widows: 2; word-spacing: 0px; -webkit-text-stroke-width: 0px; background-color: rgb(248, 249, 250); text-decoration-thickness: initial; text-decoration-style: initial; text-decoration-color: initial; float: none; display: inline !important;&quot;&gt;x15&lt;/span&gt;" style="text;whiteSpace=wrap;html=1;fontSize=8;fontFamily=Tahoma;verticalAlign=middle;" parent="1" vertex="1">
          <mxGeometry x="1233.5" y="293" width="30" height="10" as="geometry" />
        </mxCell>
        <mxCell id="kqmbkUOljX83greQ5X14-95" value="" style="endArrow=classic;html=1;rounded=0;fontFamily=Tahoma;fontSize=8;startSize=1;jumpSize=4;" parent="1" edge="1">
          <mxGeometry width="50" height="50" relative="1" as="geometry">
            <mxPoint x="1254" y="319.4200000000001" as="sourcePoint" />
            <mxPoint x="1344" y="319.4200000000001" as="targetPoint" />
          </mxGeometry>
        </mxCell>
        <mxCell id="kqmbkUOljX83greQ5X14-96" value="&lt;span style=&quot;color: rgb(35, 47, 62); font-family: Helvetica; font-size: 12px; font-style: normal; font-variant-ligatures: normal; font-variant-caps: normal; font-weight: 400; letter-spacing: normal; orphans: 2; text-align: center; text-indent: 0px; text-transform: none; widows: 2; word-spacing: 0px; -webkit-text-stroke-width: 0px; background-color: rgb(248, 249, 250); text-decoration-thickness: initial; text-decoration-style: initial; text-decoration-color: initial; float: none; display: inline !important;&quot;&gt;x15&lt;/span&gt;" style="text;whiteSpace=wrap;html=1;fontSize=8;fontFamily=Tahoma;verticalAlign=middle;" parent="1" vertex="1">
          <mxGeometry x="1233.5" y="314" width="30" height="10" as="geometry" />
        </mxCell>
        <mxCell id="kqmbkUOljX83greQ5X14-97" value="" style="endArrow=classic;html=1;rounded=0;fontFamily=Tahoma;fontSize=8;startSize=1;jumpSize=4;" parent="1" edge="1">
          <mxGeometry width="50" height="50" relative="1" as="geometry">
            <mxPoint x="1254.5" y="343.4200000000001" as="sourcePoint" />
            <mxPoint x="1344.5" y="343.4200000000001" as="targetPoint" />
          </mxGeometry>
        </mxCell>
        <mxCell id="kqmbkUOljX83greQ5X14-98" value="&lt;span style=&quot;color: rgb(35, 47, 62); font-family: Helvetica; font-size: 12px; font-style: normal; font-variant-ligatures: normal; font-variant-caps: normal; font-weight: 400; letter-spacing: normal; orphans: 2; text-align: center; text-indent: 0px; text-transform: none; widows: 2; word-spacing: 0px; -webkit-text-stroke-width: 0px; background-color: rgb(248, 249, 250); text-decoration-thickness: initial; text-decoration-style: initial; text-decoration-color: initial; float: none; display: inline !important;&quot;&gt;x15&lt;/span&gt;" style="text;whiteSpace=wrap;html=1;fontSize=8;fontFamily=Tahoma;verticalAlign=middle;" parent="1" vertex="1">
          <mxGeometry x="1234" y="338" width="30" height="10" as="geometry" />
        </mxCell>
        <mxCell id="kqmbkUOljX83greQ5X14-99" value="&lt;span style=&quot;color: rgb(35, 47, 62); font-family: Helvetica; font-size: 12px; font-style: normal; font-variant-ligatures: normal; font-variant-caps: normal; font-weight: 400; letter-spacing: normal; orphans: 2; text-align: center; text-indent: 0px; text-transform: none; widows: 2; word-spacing: 0px; -webkit-text-stroke-width: 0px; background-color: rgb(248, 249, 250); text-decoration-thickness: initial; text-decoration-style: initial; text-decoration-color: initial; float: none; display: inline !important;&quot;&gt;x1&lt;/span&gt;" style="text;whiteSpace=wrap;html=1;fontSize=8;fontFamily=Tahoma;verticalAlign=middle;" parent="1" vertex="1">
          <mxGeometry x="1358" y="293" width="30" height="10" as="geometry" />
        </mxCell>
        <mxCell id="kqmbkUOljX83greQ5X14-100" value="&lt;span style=&quot;color: rgb(35, 47, 62); font-family: Helvetica; font-size: 12px; font-style: normal; font-variant-ligatures: normal; font-variant-caps: normal; font-weight: 400; letter-spacing: normal; orphans: 2; text-align: center; text-indent: 0px; text-transform: none; widows: 2; word-spacing: 0px; -webkit-text-stroke-width: 0px; background-color: rgb(248, 249, 250); text-decoration-thickness: initial; text-decoration-style: initial; text-decoration-color: initial; float: none; display: inline !important;&quot;&gt;x1&lt;/span&gt;" style="text;whiteSpace=wrap;html=1;fontSize=8;fontFamily=Tahoma;verticalAlign=middle;" parent="1" vertex="1">
          <mxGeometry x="1358" y="338" width="30" height="10" as="geometry" />
        </mxCell>
        <mxCell id="kqmbkUOljX83greQ5X14-101" value="&lt;span style=&quot;color: rgb(35, 47, 62); font-family: Helvetica; font-size: 12px; font-style: normal; font-variant-ligatures: normal; font-variant-caps: normal; font-weight: 400; letter-spacing: normal; orphans: 2; text-align: center; text-indent: 0px; text-transform: none; widows: 2; word-spacing: 0px; -webkit-text-stroke-width: 0px; background-color: rgb(248, 249, 250); text-decoration-thickness: initial; text-decoration-style: initial; text-decoration-color: initial; float: none; display: inline !important;&quot;&gt;x1&lt;/span&gt;" style="text;whiteSpace=wrap;html=1;fontSize=8;fontFamily=Tahoma;verticalAlign=middle;" parent="1" vertex="1">
          <mxGeometry x="1358" y="315" width="30" height="10" as="geometry" />
        </mxCell>
        <mxCell id="kqmbkUOljX83greQ5X14-102" value="" style="sketch=0;outlineConnect=0;fontColor=#232F3E;gradientColor=none;fillColor=#067F68;strokeColor=none;dashed=0;verticalLabelPosition=bottom;verticalAlign=top;align=center;html=1;fontSize=12;fontStyle=0;aspect=fixed;pointerEvents=1;shape=mxgraph.aws4.sagemaker_train;labelBackgroundColor=none;fontFamily=Helvetica;" parent="1" vertex="1">
          <mxGeometry x="1095" y="357.5" width="48" height="40" as="geometry" />
        </mxCell>
        <mxCell id="kqmbkUOljX83greQ5X14-103" value="&lt;span style=&quot;color: rgb(0, 0, 0); font-family: Helvetica; font-size: 6px; font-style: normal; font-variant-ligatures: normal; font-variant-caps: normal; font-weight: 700; letter-spacing: normal; orphans: 2; text-align: center; text-indent: 0px; text-transform: none; widows: 2; word-spacing: 0px; -webkit-text-stroke-width: 0px; background-color: rgb(248, 249, 250); text-decoration-thickness: initial; text-decoration-style: initial; text-decoration-color: initial; float: none; display: inline !important;&quot;&gt;D+10&lt;/span&gt;" style="text;whiteSpace=wrap;html=1;" parent="1" vertex="1">
          <mxGeometry x="1100" y="394" width="50" height="40" as="geometry" />
        </mxCell>
        <mxCell id="kqmbkUOljX83greQ5X14-104" value="" style="aspect=fixed;perimeter=ellipsePerimeter;html=1;align=center;shadow=0;dashed=0;fontColor=#4277BB;labelBackgroundColor=#ffffff;fontSize=12;spacingTop=3;image;image=img/lib/ibm/data/model.svg;" parent="1" vertex="1">
          <mxGeometry x="1344" y="356.71" width="15" height="15" as="geometry" />
        </mxCell>
        <mxCell id="kqmbkUOljX83greQ5X14-105" value="" style="aspect=fixed;perimeter=ellipsePerimeter;html=1;align=center;shadow=0;dashed=0;fontColor=#4277BB;labelBackgroundColor=#ffffff;fontSize=12;spacingTop=3;image;image=img/lib/ibm/data/model.svg;" parent="1" vertex="1">
          <mxGeometry x="1344.5" y="378.71" width="15" height="15" as="geometry" />
        </mxCell>
        <mxCell id="kqmbkUOljX83greQ5X14-106" value="" style="aspect=fixed;perimeter=ellipsePerimeter;html=1;align=center;shadow=0;dashed=0;fontColor=#4277BB;labelBackgroundColor=#ffffff;fontSize=12;spacingTop=3;image;image=img/lib/ibm/data/model.svg;" parent="1" vertex="1">
          <mxGeometry x="1344" y="401.21" width="15" height="15" as="geometry" />
        </mxCell>
        <mxCell id="kqmbkUOljX83greQ5X14-107" style="edgeStyle=orthogonalEdgeStyle;rounded=0;orthogonalLoop=1;jettySize=auto;html=1;entryX=0;entryY=0.5;entryDx=0;entryDy=0;fontFamily=Tahoma;fontSize=8;" parent="1" target="kqmbkUOljX83greQ5X14-114" edge="1">
          <mxGeometry relative="1" as="geometry">
            <mxPoint x="1143" y="386.23" as="sourcePoint" />
            <Array as="points">
              <mxPoint x="1181" y="385.71" />
            </Array>
          </mxGeometry>
        </mxCell>
        <mxCell id="kqmbkUOljX83greQ5X14-108" value="MAX" style="edgeLabel;html=1;align=center;verticalAlign=middle;resizable=0;points=[];fontSize=8;fontFamily=Tahoma;" parent="kqmbkUOljX83greQ5X14-107" vertex="1" connectable="0">
          <mxGeometry x="-0.04" y="1" relative="1" as="geometry">
            <mxPoint as="offset" />
          </mxGeometry>
        </mxCell>
        <mxCell id="kqmbkUOljX83greQ5X14-109" style="edgeStyle=orthogonalEdgeStyle;rounded=0;orthogonalLoop=1;jettySize=auto;html=1;entryX=0;entryY=0.5;entryDx=0;entryDy=0;fontFamily=Tahoma;fontSize=8;" parent="1" target="kqmbkUOljX83greQ5X14-115" edge="1">
          <mxGeometry relative="1" as="geometry">
            <mxPoint x="1143" y="385.71000000000004" as="sourcePoint" />
            <Array as="points">
              <mxPoint x="1158" y="385.71" />
              <mxPoint x="1158" y="408.71" />
            </Array>
          </mxGeometry>
        </mxCell>
        <mxCell id="kqmbkUOljX83greQ5X14-110" value="AVG" style="edgeLabel;html=1;align=center;verticalAlign=middle;resizable=0;points=[];fontSize=8;fontFamily=Tahoma;" parent="kqmbkUOljX83greQ5X14-109" vertex="1" connectable="0">
          <mxGeometry x="0.2367" y="2" relative="1" as="geometry">
            <mxPoint x="-1" as="offset" />
          </mxGeometry>
        </mxCell>
        <mxCell id="kqmbkUOljX83greQ5X14-111" value="" style="aspect=fixed;perimeter=ellipsePerimeter;html=1;align=center;shadow=0;dashed=0;fontColor=#4277BB;labelBackgroundColor=#ffffff;fontSize=12;spacingTop=3;image;image=img/lib/ibm/data/model.svg;" parent="1" vertex="1">
          <mxGeometry x="1218.5" y="356.71" width="15" height="15" as="geometry" />
        </mxCell>
        <mxCell id="kqmbkUOljX83greQ5X14-112" style="edgeStyle=orthogonalEdgeStyle;rounded=0;orthogonalLoop=1;jettySize=auto;html=1;" parent="1" target="kqmbkUOljX83greQ5X14-111" edge="1">
          <mxGeometry relative="1" as="geometry">
            <mxPoint x="1143" y="385.71000000000004" as="sourcePoint" />
            <Array as="points">
              <mxPoint x="1158" y="385.71" />
              <mxPoint x="1158" y="364.71" />
            </Array>
          </mxGeometry>
        </mxCell>
        <mxCell id="kqmbkUOljX83greQ5X14-113" value="MIN" style="edgeLabel;html=1;align=center;verticalAlign=middle;resizable=0;points=[];fontSize=8;fontFamily=Tahoma;" parent="kqmbkUOljX83greQ5X14-112" vertex="1" connectable="0">
          <mxGeometry x="0.1911" y="1" relative="1" as="geometry">
            <mxPoint as="offset" />
          </mxGeometry>
        </mxCell>
        <mxCell id="kqmbkUOljX83greQ5X14-114" value="" style="aspect=fixed;perimeter=ellipsePerimeter;html=1;align=center;shadow=0;dashed=0;fontColor=#4277BB;labelBackgroundColor=#ffffff;fontSize=12;spacingTop=3;image;image=img/lib/ibm/data/model.svg;" parent="1" vertex="1">
          <mxGeometry x="1219" y="378.71" width="15" height="15" as="geometry" />
        </mxCell>
        <mxCell id="kqmbkUOljX83greQ5X14-115" value="" style="aspect=fixed;perimeter=ellipsePerimeter;html=1;align=center;shadow=0;dashed=0;fontColor=#4277BB;labelBackgroundColor=#ffffff;fontSize=12;spacingTop=3;image;image=img/lib/ibm/data/model.svg;" parent="1" vertex="1">
          <mxGeometry x="1218.5" y="401.21" width="15" height="15" as="geometry" />
        </mxCell>
        <mxCell id="kqmbkUOljX83greQ5X14-116" value="" style="endArrow=classic;html=1;rounded=0;fontFamily=Tahoma;fontSize=8;startSize=1;jumpSize=4;" parent="1" edge="1">
          <mxGeometry width="50" height="50" relative="1" as="geometry">
            <mxPoint x="1254" y="364.1300000000001" as="sourcePoint" />
            <mxPoint x="1344" y="364.1300000000001" as="targetPoint" />
          </mxGeometry>
        </mxCell>
        <mxCell id="kqmbkUOljX83greQ5X14-117" value="&lt;span style=&quot;color: rgb(35, 47, 62); font-family: Helvetica; font-size: 12px; font-style: normal; font-variant-ligatures: normal; font-variant-caps: normal; font-weight: 400; letter-spacing: normal; orphans: 2; text-align: center; text-indent: 0px; text-transform: none; widows: 2; word-spacing: 0px; -webkit-text-stroke-width: 0px; background-color: rgb(248, 249, 250); text-decoration-thickness: initial; text-decoration-style: initial; text-decoration-color: initial; float: none; display: inline !important;&quot;&gt;x15&lt;/span&gt;" style="text;whiteSpace=wrap;html=1;fontSize=8;fontFamily=Tahoma;verticalAlign=middle;" parent="1" vertex="1">
          <mxGeometry x="1233.5" y="358.71" width="30" height="10" as="geometry" />
        </mxCell>
        <mxCell id="kqmbkUOljX83greQ5X14-118" value="" style="endArrow=classic;html=1;rounded=0;fontFamily=Tahoma;fontSize=8;startSize=1;jumpSize=4;" parent="1" edge="1">
          <mxGeometry width="50" height="50" relative="1" as="geometry">
            <mxPoint x="1254" y="385.1300000000001" as="sourcePoint" />
            <mxPoint x="1344" y="385.1300000000001" as="targetPoint" />
          </mxGeometry>
        </mxCell>
        <mxCell id="kqmbkUOljX83greQ5X14-119" value="&lt;span style=&quot;color: rgb(35, 47, 62); font-family: Helvetica; font-size: 12px; font-style: normal; font-variant-ligatures: normal; font-variant-caps: normal; font-weight: 400; letter-spacing: normal; orphans: 2; text-align: center; text-indent: 0px; text-transform: none; widows: 2; word-spacing: 0px; -webkit-text-stroke-width: 0px; background-color: rgb(248, 249, 250); text-decoration-thickness: initial; text-decoration-style: initial; text-decoration-color: initial; float: none; display: inline !important;&quot;&gt;x15&lt;/span&gt;" style="text;whiteSpace=wrap;html=1;fontSize=8;fontFamily=Tahoma;verticalAlign=middle;" parent="1" vertex="1">
          <mxGeometry x="1233.5" y="379.71" width="30" height="10" as="geometry" />
        </mxCell>
        <mxCell id="kqmbkUOljX83greQ5X14-120" value="" style="endArrow=classic;html=1;rounded=0;fontFamily=Tahoma;fontSize=8;startSize=1;jumpSize=4;" parent="1" edge="1">
          <mxGeometry width="50" height="50" relative="1" as="geometry">
            <mxPoint x="1254.5" y="409.1300000000001" as="sourcePoint" />
            <mxPoint x="1344.5" y="409.1300000000001" as="targetPoint" />
          </mxGeometry>
        </mxCell>
        <mxCell id="kqmbkUOljX83greQ5X14-121" value="&lt;span style=&quot;color: rgb(35, 47, 62); font-family: Helvetica; font-size: 12px; font-style: normal; font-variant-ligatures: normal; font-variant-caps: normal; font-weight: 400; letter-spacing: normal; orphans: 2; text-align: center; text-indent: 0px; text-transform: none; widows: 2; word-spacing: 0px; -webkit-text-stroke-width: 0px; background-color: rgb(248, 249, 250); text-decoration-thickness: initial; text-decoration-style: initial; text-decoration-color: initial; float: none; display: inline !important;&quot;&gt;x15&lt;/span&gt;" style="text;whiteSpace=wrap;html=1;fontSize=8;fontFamily=Tahoma;verticalAlign=middle;" parent="1" vertex="1">
          <mxGeometry x="1234" y="403.71" width="30" height="10" as="geometry" />
        </mxCell>
        <mxCell id="kqmbkUOljX83greQ5X14-122" value="&lt;span style=&quot;color: rgb(35, 47, 62); font-family: Helvetica; font-size: 12px; font-style: normal; font-variant-ligatures: normal; font-variant-caps: normal; font-weight: 400; letter-spacing: normal; orphans: 2; text-align: center; text-indent: 0px; text-transform: none; widows: 2; word-spacing: 0px; -webkit-text-stroke-width: 0px; background-color: rgb(248, 249, 250); text-decoration-thickness: initial; text-decoration-style: initial; text-decoration-color: initial; float: none; display: inline !important;&quot;&gt;x1&lt;/span&gt;" style="text;whiteSpace=wrap;html=1;fontSize=8;fontFamily=Tahoma;verticalAlign=middle;" parent="1" vertex="1">
          <mxGeometry x="1358" y="358.71" width="30" height="10" as="geometry" />
        </mxCell>
        <mxCell id="kqmbkUOljX83greQ5X14-123" value="&lt;span style=&quot;color: rgb(35, 47, 62); font-family: Helvetica; font-size: 12px; font-style: normal; font-variant-ligatures: normal; font-variant-caps: normal; font-weight: 400; letter-spacing: normal; orphans: 2; text-align: center; text-indent: 0px; text-transform: none; widows: 2; word-spacing: 0px; -webkit-text-stroke-width: 0px; background-color: rgb(248, 249, 250); text-decoration-thickness: initial; text-decoration-style: initial; text-decoration-color: initial; float: none; display: inline !important;&quot;&gt;x1&lt;/span&gt;" style="text;whiteSpace=wrap;html=1;fontSize=8;fontFamily=Tahoma;verticalAlign=middle;" parent="1" vertex="1">
          <mxGeometry x="1358" y="380.71" width="30" height="10" as="geometry" />
        </mxCell>
        <mxCell id="kqmbkUOljX83greQ5X14-124" value="&lt;span style=&quot;color: rgb(35, 47, 62); font-family: Helvetica; font-size: 12px; font-style: normal; font-variant-ligatures: normal; font-variant-caps: normal; font-weight: 400; letter-spacing: normal; orphans: 2; text-align: center; text-indent: 0px; text-transform: none; widows: 2; word-spacing: 0px; -webkit-text-stroke-width: 0px; background-color: rgb(248, 249, 250); text-decoration-thickness: initial; text-decoration-style: initial; text-decoration-color: initial; float: none; display: inline !important;&quot;&gt;x1&lt;/span&gt;" style="text;whiteSpace=wrap;html=1;fontSize=8;fontFamily=Tahoma;verticalAlign=middle;" parent="1" vertex="1">
          <mxGeometry x="1358" y="403.71" width="30" height="10" as="geometry" />
        </mxCell>
        <mxCell id="kqmbkUOljX83greQ5X14-125" value="EC2 Instance&lt;br&gt;:c6i.24large&lt;br&gt;M+1" style="points=[[0,0],[0.25,0],[0.5,0],[0.75,0],[1,0],[1,0.25],[1,0.5],[1,0.75],[1,1],[0.75,1],[0.5,1],[0.25,1],[0,1],[0,0.75],[0,0.5],[0,0.25]];outlineConnect=0;gradientColor=none;html=1;whiteSpace=wrap;fontSize=12;fontStyle=0;container=0;pointerEvents=0;collapsible=0;recursiveResize=0;shape=mxgraph.aws4.group;grIcon=mxgraph.aws4.group_ec2_instance_contents;strokeColor=#D86613;fillColor=none;verticalAlign=top;align=left;spacingLeft=30;fontColor=#D86613;dashed=0;" parent="1" vertex="1">
          <mxGeometry x="498" y="420" width="894" height="66" as="geometry" />
        </mxCell>
        <mxCell id="kqmbkUOljX83greQ5X14-126" value="" style="sketch=0;outlineConnect=0;fontColor=#232F3E;gradientColor=none;fillColor=#067F68;strokeColor=none;dashed=0;verticalLabelPosition=bottom;verticalAlign=top;align=center;html=1;fontSize=12;fontStyle=0;aspect=fixed;pointerEvents=1;shape=mxgraph.aws4.sagemaker_train;labelBackgroundColor=none;fontFamily=Helvetica;" parent="1" vertex="1">
          <mxGeometry x="1095" y="423.5" width="48" height="40" as="geometry" />
        </mxCell>
        <mxCell id="kqmbkUOljX83greQ5X14-127" value="&lt;span style=&quot;color: rgb(0, 0, 0); font-family: Helvetica; font-size: 6px; font-style: normal; font-variant-ligatures: normal; font-variant-caps: normal; font-weight: 700; letter-spacing: normal; orphans: 2; text-align: center; text-indent: 0px; text-transform: none; widows: 2; word-spacing: 0px; -webkit-text-stroke-width: 0px; background-color: rgb(248, 249, 250); text-decoration-thickness: initial; text-decoration-style: initial; text-decoration-color: initial; float: none; display: inline !important;&quot;&gt;M+1&lt;/span&gt;" style="text;whiteSpace=wrap;html=1;" parent="1" vertex="1">
          <mxGeometry x="1100" y="460" width="50" height="40" as="geometry" />
        </mxCell>
        <mxCell id="kqmbkUOljX83greQ5X14-128" value="" style="aspect=fixed;perimeter=ellipsePerimeter;html=1;align=center;shadow=0;dashed=0;fontColor=#4277BB;labelBackgroundColor=#ffffff;fontSize=12;spacingTop=3;image;image=img/lib/ibm/data/model.svg;" parent="1" vertex="1">
          <mxGeometry x="1344" y="423.5" width="15" height="15" as="geometry" />
        </mxCell>
        <mxCell id="kqmbkUOljX83greQ5X14-129" value="" style="aspect=fixed;perimeter=ellipsePerimeter;html=1;align=center;shadow=0;dashed=0;fontColor=#4277BB;labelBackgroundColor=#ffffff;fontSize=12;spacingTop=3;image;image=img/lib/ibm/data/model.svg;" parent="1" vertex="1">
          <mxGeometry x="1344.5" y="445.5" width="15" height="15" as="geometry" />
        </mxCell>
        <mxCell id="kqmbkUOljX83greQ5X14-130" value="" style="aspect=fixed;perimeter=ellipsePerimeter;html=1;align=center;shadow=0;dashed=0;fontColor=#4277BB;labelBackgroundColor=#ffffff;fontSize=12;spacingTop=3;image;image=img/lib/ibm/data/model.svg;" parent="1" vertex="1">
          <mxGeometry x="1344" y="468" width="15" height="15" as="geometry" />
        </mxCell>
        <mxCell id="kqmbkUOljX83greQ5X14-131" style="edgeStyle=orthogonalEdgeStyle;rounded=0;orthogonalLoop=1;jettySize=auto;html=1;entryX=0;entryY=0.5;entryDx=0;entryDy=0;fontFamily=Tahoma;fontSize=8;" parent="1" target="kqmbkUOljX83greQ5X14-138" edge="1">
          <mxGeometry relative="1" as="geometry">
            <mxPoint x="1143" y="453.02" as="sourcePoint" />
            <Array as="points">
              <mxPoint x="1181" y="452.5" />
            </Array>
          </mxGeometry>
        </mxCell>
        <mxCell id="kqmbkUOljX83greQ5X14-132" value="MAX" style="edgeLabel;html=1;align=center;verticalAlign=middle;resizable=0;points=[];fontSize=8;fontFamily=Tahoma;" parent="kqmbkUOljX83greQ5X14-131" vertex="1" connectable="0">
          <mxGeometry x="-0.04" y="1" relative="1" as="geometry">
            <mxPoint as="offset" />
          </mxGeometry>
        </mxCell>
        <mxCell id="kqmbkUOljX83greQ5X14-133" style="edgeStyle=orthogonalEdgeStyle;rounded=0;orthogonalLoop=1;jettySize=auto;html=1;entryX=0;entryY=0.5;entryDx=0;entryDy=0;fontFamily=Tahoma;fontSize=8;" parent="1" target="kqmbkUOljX83greQ5X14-139" edge="1">
          <mxGeometry relative="1" as="geometry">
            <mxPoint x="1143" y="452.5" as="sourcePoint" />
            <Array as="points">
              <mxPoint x="1158" y="452.5" />
              <mxPoint x="1158" y="475.5" />
            </Array>
          </mxGeometry>
        </mxCell>
        <mxCell id="kqmbkUOljX83greQ5X14-134" value="AVG" style="edgeLabel;html=1;align=center;verticalAlign=middle;resizable=0;points=[];fontSize=8;fontFamily=Tahoma;" parent="kqmbkUOljX83greQ5X14-133" vertex="1" connectable="0">
          <mxGeometry x="0.2367" y="2" relative="1" as="geometry">
            <mxPoint x="-1" as="offset" />
          </mxGeometry>
        </mxCell>
        <mxCell id="kqmbkUOljX83greQ5X14-135" value="" style="aspect=fixed;perimeter=ellipsePerimeter;html=1;align=center;shadow=0;dashed=0;fontColor=#4277BB;labelBackgroundColor=#ffffff;fontSize=12;spacingTop=3;image;image=img/lib/ibm/data/model.svg;" parent="1" vertex="1">
          <mxGeometry x="1218.5" y="423.5" width="15" height="15" as="geometry" />
        </mxCell>
        <mxCell id="kqmbkUOljX83greQ5X14-136" style="edgeStyle=orthogonalEdgeStyle;rounded=0;orthogonalLoop=1;jettySize=auto;html=1;" parent="1" target="kqmbkUOljX83greQ5X14-135" edge="1">
          <mxGeometry relative="1" as="geometry">
            <mxPoint x="1143" y="452.5" as="sourcePoint" />
            <Array as="points">
              <mxPoint x="1158" y="452.5" />
              <mxPoint x="1158" y="431.5" />
            </Array>
          </mxGeometry>
        </mxCell>
        <mxCell id="kqmbkUOljX83greQ5X14-137" value="MIN" style="edgeLabel;html=1;align=center;verticalAlign=middle;resizable=0;points=[];fontSize=8;fontFamily=Tahoma;" parent="kqmbkUOljX83greQ5X14-136" vertex="1" connectable="0">
          <mxGeometry x="0.1911" y="1" relative="1" as="geometry">
            <mxPoint as="offset" />
          </mxGeometry>
        </mxCell>
        <mxCell id="kqmbkUOljX83greQ5X14-138" value="" style="aspect=fixed;perimeter=ellipsePerimeter;html=1;align=center;shadow=0;dashed=0;fontColor=#4277BB;labelBackgroundColor=#ffffff;fontSize=12;spacingTop=3;image;image=img/lib/ibm/data/model.svg;" parent="1" vertex="1">
          <mxGeometry x="1219" y="445.5" width="15" height="15" as="geometry" />
        </mxCell>
        <mxCell id="kqmbkUOljX83greQ5X14-139" value="" style="aspect=fixed;perimeter=ellipsePerimeter;html=1;align=center;shadow=0;dashed=0;fontColor=#4277BB;labelBackgroundColor=#ffffff;fontSize=12;spacingTop=3;image;image=img/lib/ibm/data/model.svg;" parent="1" vertex="1">
          <mxGeometry x="1218.5" y="468" width="15" height="15" as="geometry" />
        </mxCell>
        <mxCell id="kqmbkUOljX83greQ5X14-140" value="" style="endArrow=classic;html=1;rounded=0;fontFamily=Tahoma;fontSize=8;startSize=1;jumpSize=4;" parent="1" edge="1">
          <mxGeometry width="50" height="50" relative="1" as="geometry">
            <mxPoint x="1254" y="430.9200000000001" as="sourcePoint" />
            <mxPoint x="1344" y="430.9200000000001" as="targetPoint" />
          </mxGeometry>
        </mxCell>
        <mxCell id="kqmbkUOljX83greQ5X14-141" value="&lt;span style=&quot;color: rgb(35, 47, 62); font-family: Helvetica; font-size: 12px; font-style: normal; font-variant-ligatures: normal; font-variant-caps: normal; font-weight: 400; letter-spacing: normal; orphans: 2; text-align: center; text-indent: 0px; text-transform: none; widows: 2; word-spacing: 0px; -webkit-text-stroke-width: 0px; background-color: rgb(248, 249, 250); text-decoration-thickness: initial; text-decoration-style: initial; text-decoration-color: initial; float: none; display: inline !important;&quot;&gt;x15&lt;/span&gt;" style="text;whiteSpace=wrap;html=1;fontSize=8;fontFamily=Tahoma;verticalAlign=middle;" parent="1" vertex="1">
          <mxGeometry x="1233.5" y="425.5" width="30" height="10" as="geometry" />
        </mxCell>
        <mxCell id="kqmbkUOljX83greQ5X14-142" value="" style="endArrow=classic;html=1;rounded=0;fontFamily=Tahoma;fontSize=8;startSize=1;jumpSize=4;" parent="1" edge="1">
          <mxGeometry width="50" height="50" relative="1" as="geometry">
            <mxPoint x="1254" y="451.9200000000001" as="sourcePoint" />
            <mxPoint x="1344" y="451.9200000000001" as="targetPoint" />
          </mxGeometry>
        </mxCell>
        <mxCell id="kqmbkUOljX83greQ5X14-143" value="&lt;span style=&quot;color: rgb(35, 47, 62); font-family: Helvetica; font-size: 12px; font-style: normal; font-variant-ligatures: normal; font-variant-caps: normal; font-weight: 400; letter-spacing: normal; orphans: 2; text-align: center; text-indent: 0px; text-transform: none; widows: 2; word-spacing: 0px; -webkit-text-stroke-width: 0px; background-color: rgb(248, 249, 250); text-decoration-thickness: initial; text-decoration-style: initial; text-decoration-color: initial; float: none; display: inline !important;&quot;&gt;x15&lt;/span&gt;" style="text;whiteSpace=wrap;html=1;fontSize=8;fontFamily=Tahoma;verticalAlign=middle;" parent="1" vertex="1">
          <mxGeometry x="1233.5" y="446.5" width="30" height="10" as="geometry" />
        </mxCell>
        <mxCell id="kqmbkUOljX83greQ5X14-144" value="&lt;span style=&quot;color: rgb(35, 47, 62); font-family: Helvetica; font-size: 12px; font-style: normal; font-variant-ligatures: normal; font-variant-caps: normal; font-weight: 400; letter-spacing: normal; orphans: 2; text-align: center; text-indent: 0px; text-transform: none; widows: 2; word-spacing: 0px; -webkit-text-stroke-width: 0px; background-color: rgb(248, 249, 250); text-decoration-thickness: initial; text-decoration-style: initial; text-decoration-color: initial; float: none; display: inline !important;&quot;&gt;x15&lt;/span&gt;" style="text;whiteSpace=wrap;html=1;fontSize=8;fontFamily=Tahoma;verticalAlign=middle;" parent="1" vertex="1">
          <mxGeometry x="1234" y="470.5" width="30" height="10" as="geometry" />
        </mxCell>
        <mxCell id="kqmbkUOljX83greQ5X14-145" value="&lt;span style=&quot;color: rgb(35, 47, 62); font-family: Helvetica; font-size: 12px; font-style: normal; font-variant-ligatures: normal; font-variant-caps: normal; font-weight: 400; letter-spacing: normal; orphans: 2; text-align: center; text-indent: 0px; text-transform: none; widows: 2; word-spacing: 0px; -webkit-text-stroke-width: 0px; background-color: rgb(248, 249, 250); text-decoration-thickness: initial; text-decoration-style: initial; text-decoration-color: initial; float: none; display: inline !important;&quot;&gt;x1&lt;/span&gt;" style="text;whiteSpace=wrap;html=1;fontSize=8;fontFamily=Tahoma;verticalAlign=middle;" parent="1" vertex="1">
          <mxGeometry x="1358" y="425.5" width="30" height="10" as="geometry" />
        </mxCell>
        <mxCell id="kqmbkUOljX83greQ5X14-146" value="&lt;span style=&quot;color: rgb(35, 47, 62); font-family: Helvetica; font-size: 12px; font-style: normal; font-variant-ligatures: normal; font-variant-caps: normal; font-weight: 400; letter-spacing: normal; orphans: 2; text-align: center; text-indent: 0px; text-transform: none; widows: 2; word-spacing: 0px; -webkit-text-stroke-width: 0px; background-color: rgb(248, 249, 250); text-decoration-thickness: initial; text-decoration-style: initial; text-decoration-color: initial; float: none; display: inline !important;&quot;&gt;x1&lt;/span&gt;" style="text;whiteSpace=wrap;html=1;fontSize=8;fontFamily=Tahoma;verticalAlign=middle;" parent="1" vertex="1">
          <mxGeometry x="1358" y="447.5" width="30" height="10" as="geometry" />
        </mxCell>
        <mxCell id="kqmbkUOljX83greQ5X14-147" value="&lt;span style=&quot;color: rgb(35, 47, 62); font-family: Helvetica; font-size: 12px; font-style: normal; font-variant-ligatures: normal; font-variant-caps: normal; font-weight: 400; letter-spacing: normal; orphans: 2; text-align: center; text-indent: 0px; text-transform: none; widows: 2; word-spacing: 0px; -webkit-text-stroke-width: 0px; background-color: rgb(248, 249, 250); text-decoration-thickness: initial; text-decoration-style: initial; text-decoration-color: initial; float: none; display: inline !important;&quot;&gt;x1&lt;/span&gt;" style="text;whiteSpace=wrap;html=1;fontSize=8;fontFamily=Tahoma;verticalAlign=middle;" parent="1" vertex="1">
          <mxGeometry x="1358" y="470.5" width="30" height="10" as="geometry" />
        </mxCell>
        <mxCell id="kqmbkUOljX83greQ5X14-148" value="EC2 Instance&lt;br&gt;:c6i.24large&lt;br&gt;M+2" style="points=[[0,0],[0.25,0],[0.5,0],[0.75,0],[1,0],[1,0.25],[1,0.5],[1,0.75],[1,1],[0.75,1],[0.5,1],[0.25,1],[0,1],[0,0.75],[0,0.5],[0,0.25]];outlineConnect=0;gradientColor=none;html=1;whiteSpace=wrap;fontSize=12;fontStyle=0;container=0;pointerEvents=0;collapsible=0;recursiveResize=0;shape=mxgraph.aws4.group;grIcon=mxgraph.aws4.group_ec2_instance_contents;strokeColor=#D86613;fillColor=none;verticalAlign=top;align=left;spacingLeft=30;fontColor=#D86613;dashed=0;" parent="1" vertex="1">
          <mxGeometry x="498" y="486" width="894" height="66" as="geometry" />
        </mxCell>
        <mxCell id="kqmbkUOljX83greQ5X14-149" value="" style="sketch=0;outlineConnect=0;fontColor=#232F3E;gradientColor=none;fillColor=#067F68;strokeColor=none;dashed=0;verticalLabelPosition=bottom;verticalAlign=top;align=center;html=1;fontSize=12;fontStyle=0;aspect=fixed;pointerEvents=1;shape=mxgraph.aws4.sagemaker_train;labelBackgroundColor=none;fontFamily=Helvetica;" parent="1" vertex="1">
          <mxGeometry x="1095" y="489.5" width="48" height="40" as="geometry" />
        </mxCell>
        <mxCell id="kqmbkUOljX83greQ5X14-150" value="&lt;span style=&quot;color: rgb(0, 0, 0); font-family: Helvetica; font-size: 6px; font-style: normal; font-variant-ligatures: normal; font-variant-caps: normal; font-weight: 700; letter-spacing: normal; orphans: 2; text-align: center; text-indent: 0px; text-transform: none; widows: 2; word-spacing: 0px; -webkit-text-stroke-width: 0px; background-color: rgb(248, 249, 250); text-decoration-thickness: initial; text-decoration-style: initial; text-decoration-color: initial; float: none; display: inline !important;&quot;&gt;M+2&lt;/span&gt;" style="text;whiteSpace=wrap;html=1;" parent="1" vertex="1">
          <mxGeometry x="1100" y="526" width="50" height="40" as="geometry" />
        </mxCell>
        <mxCell id="kqmbkUOljX83greQ5X14-151" value="" style="endArrow=classic;html=1;rounded=0;fontFamily=Tahoma;fontSize=8;startSize=1;jumpSize=4;" parent="1" edge="1">
          <mxGeometry width="50" height="50" relative="1" as="geometry">
            <mxPoint x="1254.5" y="476.5999999999999" as="sourcePoint" />
            <mxPoint x="1344.5" y="476.5999999999999" as="targetPoint" />
          </mxGeometry>
        </mxCell>
        <mxCell id="kqmbkUOljX83greQ5X14-152" value="" style="aspect=fixed;perimeter=ellipsePerimeter;html=1;align=center;shadow=0;dashed=0;fontColor=#4277BB;labelBackgroundColor=#ffffff;fontSize=12;spacingTop=3;image;image=img/lib/ibm/data/model.svg;" parent="1" vertex="1">
          <mxGeometry x="1344" y="489.89" width="15" height="15" as="geometry" />
        </mxCell>
        <mxCell id="kqmbkUOljX83greQ5X14-153" value="" style="aspect=fixed;perimeter=ellipsePerimeter;html=1;align=center;shadow=0;dashed=0;fontColor=#4277BB;labelBackgroundColor=#ffffff;fontSize=12;spacingTop=3;image;image=img/lib/ibm/data/model.svg;" parent="1" vertex="1">
          <mxGeometry x="1344.5" y="511.89" width="15" height="15" as="geometry" />
        </mxCell>
        <mxCell id="kqmbkUOljX83greQ5X14-154" value="" style="aspect=fixed;perimeter=ellipsePerimeter;html=1;align=center;shadow=0;dashed=0;fontColor=#4277BB;labelBackgroundColor=#ffffff;fontSize=12;spacingTop=3;image;image=img/lib/ibm/data/model.svg;" parent="1" vertex="1">
          <mxGeometry x="1344" y="534.3900000000001" width="15" height="15" as="geometry" />
        </mxCell>
        <mxCell id="kqmbkUOljX83greQ5X14-155" style="edgeStyle=orthogonalEdgeStyle;rounded=0;orthogonalLoop=1;jettySize=auto;html=1;entryX=0;entryY=0.5;entryDx=0;entryDy=0;fontFamily=Tahoma;fontSize=8;" parent="1" target="kqmbkUOljX83greQ5X14-162" edge="1">
          <mxGeometry relative="1" as="geometry">
            <mxPoint x="1143" y="519.4099999999999" as="sourcePoint" />
            <Array as="points">
              <mxPoint x="1181" y="518.8900000000001" />
            </Array>
          </mxGeometry>
        </mxCell>
        <mxCell id="kqmbkUOljX83greQ5X14-156" value="MAX" style="edgeLabel;html=1;align=center;verticalAlign=middle;resizable=0;points=[];fontSize=8;fontFamily=Tahoma;" parent="kqmbkUOljX83greQ5X14-155" vertex="1" connectable="0">
          <mxGeometry x="-0.04" y="1" relative="1" as="geometry">
            <mxPoint as="offset" />
          </mxGeometry>
        </mxCell>
        <mxCell id="kqmbkUOljX83greQ5X14-157" style="edgeStyle=orthogonalEdgeStyle;rounded=0;orthogonalLoop=1;jettySize=auto;html=1;entryX=0;entryY=0.5;entryDx=0;entryDy=0;fontFamily=Tahoma;fontSize=8;" parent="1" target="kqmbkUOljX83greQ5X14-163" edge="1">
          <mxGeometry relative="1" as="geometry">
            <mxPoint x="1143" y="518.8900000000003" as="sourcePoint" />
            <Array as="points">
              <mxPoint x="1158" y="518.8900000000001" />
              <mxPoint x="1158" y="541.8900000000001" />
            </Array>
          </mxGeometry>
        </mxCell>
        <mxCell id="kqmbkUOljX83greQ5X14-158" value="AVG" style="edgeLabel;html=1;align=center;verticalAlign=middle;resizable=0;points=[];fontSize=8;fontFamily=Tahoma;" parent="kqmbkUOljX83greQ5X14-157" vertex="1" connectable="0">
          <mxGeometry x="0.2367" y="2" relative="1" as="geometry">
            <mxPoint x="-1" as="offset" />
          </mxGeometry>
        </mxCell>
        <mxCell id="kqmbkUOljX83greQ5X14-159" value="" style="aspect=fixed;perimeter=ellipsePerimeter;html=1;align=center;shadow=0;dashed=0;fontColor=#4277BB;labelBackgroundColor=#ffffff;fontSize=12;spacingTop=3;image;image=img/lib/ibm/data/model.svg;" parent="1" vertex="1">
          <mxGeometry x="1218.5" y="489.89" width="15" height="15" as="geometry" />
        </mxCell>
        <mxCell id="kqmbkUOljX83greQ5X14-160" style="edgeStyle=orthogonalEdgeStyle;rounded=0;orthogonalLoop=1;jettySize=auto;html=1;" parent="1" target="kqmbkUOljX83greQ5X14-159" edge="1">
          <mxGeometry relative="1" as="geometry">
            <mxPoint x="1143" y="518.8900000000003" as="sourcePoint" />
            <Array as="points">
              <mxPoint x="1158" y="518.8900000000001" />
              <mxPoint x="1158" y="497.89" />
            </Array>
          </mxGeometry>
        </mxCell>
        <mxCell id="kqmbkUOljX83greQ5X14-161" value="MIN" style="edgeLabel;html=1;align=center;verticalAlign=middle;resizable=0;points=[];fontSize=8;fontFamily=Tahoma;" parent="kqmbkUOljX83greQ5X14-160" vertex="1" connectable="0">
          <mxGeometry x="0.1911" y="1" relative="1" as="geometry">
            <mxPoint as="offset" />
          </mxGeometry>
        </mxCell>
        <mxCell id="kqmbkUOljX83greQ5X14-162" value="" style="aspect=fixed;perimeter=ellipsePerimeter;html=1;align=center;shadow=0;dashed=0;fontColor=#4277BB;labelBackgroundColor=#ffffff;fontSize=12;spacingTop=3;image;image=img/lib/ibm/data/model.svg;" parent="1" vertex="1">
          <mxGeometry x="1219" y="511.89" width="15" height="15" as="geometry" />
        </mxCell>
        <mxCell id="kqmbkUOljX83greQ5X14-163" value="" style="aspect=fixed;perimeter=ellipsePerimeter;html=1;align=center;shadow=0;dashed=0;fontColor=#4277BB;labelBackgroundColor=#ffffff;fontSize=12;spacingTop=3;image;image=img/lib/ibm/data/model.svg;" parent="1" vertex="1">
          <mxGeometry x="1218.5" y="534.3900000000001" width="15" height="15" as="geometry" />
        </mxCell>
        <mxCell id="kqmbkUOljX83greQ5X14-164" value="" style="endArrow=classic;html=1;rounded=0;fontFamily=Tahoma;fontSize=8;startSize=1;jumpSize=4;" parent="1" edge="1">
          <mxGeometry width="50" height="50" relative="1" as="geometry">
            <mxPoint x="1254" y="497.30999999999995" as="sourcePoint" />
            <mxPoint x="1344" y="497.30999999999995" as="targetPoint" />
          </mxGeometry>
        </mxCell>
        <mxCell id="kqmbkUOljX83greQ5X14-165" value="&lt;span style=&quot;color: rgb(35, 47, 62); font-family: Helvetica; font-size: 12px; font-style: normal; font-variant-ligatures: normal; font-variant-caps: normal; font-weight: 400; letter-spacing: normal; orphans: 2; text-align: center; text-indent: 0px; text-transform: none; widows: 2; word-spacing: 0px; -webkit-text-stroke-width: 0px; background-color: rgb(248, 249, 250); text-decoration-thickness: initial; text-decoration-style: initial; text-decoration-color: initial; float: none; display: inline !important;&quot;&gt;x15&lt;/span&gt;" style="text;whiteSpace=wrap;html=1;fontSize=8;fontFamily=Tahoma;verticalAlign=middle;" parent="1" vertex="1">
          <mxGeometry x="1233.5" y="491.89" width="30" height="10" as="geometry" />
        </mxCell>
        <mxCell id="kqmbkUOljX83greQ5X14-166" value="" style="endArrow=classic;html=1;rounded=0;fontFamily=Tahoma;fontSize=8;startSize=1;jumpSize=4;" parent="1" edge="1">
          <mxGeometry width="50" height="50" relative="1" as="geometry">
            <mxPoint x="1254" y="518.3100000000004" as="sourcePoint" />
            <mxPoint x="1344" y="518.3100000000004" as="targetPoint" />
          </mxGeometry>
        </mxCell>
        <mxCell id="kqmbkUOljX83greQ5X14-167" value="&lt;span style=&quot;color: rgb(35, 47, 62); font-family: Helvetica; font-size: 12px; font-style: normal; font-variant-ligatures: normal; font-variant-caps: normal; font-weight: 400; letter-spacing: normal; orphans: 2; text-align: center; text-indent: 0px; text-transform: none; widows: 2; word-spacing: 0px; -webkit-text-stroke-width: 0px; background-color: rgb(248, 249, 250); text-decoration-thickness: initial; text-decoration-style: initial; text-decoration-color: initial; float: none; display: inline !important;&quot;&gt;x15&lt;/span&gt;" style="text;whiteSpace=wrap;html=1;fontSize=8;fontFamily=Tahoma;verticalAlign=middle;" parent="1" vertex="1">
          <mxGeometry x="1233.5" y="512.8900000000001" width="30" height="10" as="geometry" />
        </mxCell>
        <mxCell id="kqmbkUOljX83greQ5X14-168" value="" style="endArrow=classic;html=1;rounded=0;fontFamily=Tahoma;fontSize=8;startSize=1;jumpSize=4;" parent="1" edge="1">
          <mxGeometry width="50" height="50" relative="1" as="geometry">
            <mxPoint x="1254.5" y="542.3100000000004" as="sourcePoint" />
            <mxPoint x="1344.5" y="542.3100000000004" as="targetPoint" />
          </mxGeometry>
        </mxCell>
        <mxCell id="kqmbkUOljX83greQ5X14-169" value="&lt;span style=&quot;color: rgb(35, 47, 62); font-family: Helvetica; font-size: 12px; font-style: normal; font-variant-ligatures: normal; font-variant-caps: normal; font-weight: 400; letter-spacing: normal; orphans: 2; text-align: center; text-indent: 0px; text-transform: none; widows: 2; word-spacing: 0px; -webkit-text-stroke-width: 0px; background-color: rgb(248, 249, 250); text-decoration-thickness: initial; text-decoration-style: initial; text-decoration-color: initial; float: none; display: inline !important;&quot;&gt;x15&lt;/span&gt;" style="text;whiteSpace=wrap;html=1;fontSize=8;fontFamily=Tahoma;verticalAlign=middle;" parent="1" vertex="1">
          <mxGeometry x="1234" y="536.8900000000001" width="30" height="10" as="geometry" />
        </mxCell>
        <mxCell id="kqmbkUOljX83greQ5X14-170" value="&lt;span style=&quot;color: rgb(35, 47, 62); font-family: Helvetica; font-size: 12px; font-style: normal; font-variant-ligatures: normal; font-variant-caps: normal; font-weight: 400; letter-spacing: normal; orphans: 2; text-align: center; text-indent: 0px; text-transform: none; widows: 2; word-spacing: 0px; -webkit-text-stroke-width: 0px; background-color: rgb(248, 249, 250); text-decoration-thickness: initial; text-decoration-style: initial; text-decoration-color: initial; float: none; display: inline !important;&quot;&gt;x1&lt;/span&gt;" style="text;whiteSpace=wrap;html=1;fontSize=8;fontFamily=Tahoma;verticalAlign=middle;" parent="1" vertex="1">
          <mxGeometry x="1358" y="491.89" width="30" height="10" as="geometry" />
        </mxCell>
        <mxCell id="kqmbkUOljX83greQ5X14-171" value="&lt;span style=&quot;color: rgb(35, 47, 62); font-family: Helvetica; font-size: 12px; font-style: normal; font-variant-ligatures: normal; font-variant-caps: normal; font-weight: 400; letter-spacing: normal; orphans: 2; text-align: center; text-indent: 0px; text-transform: none; widows: 2; word-spacing: 0px; -webkit-text-stroke-width: 0px; background-color: rgb(248, 249, 250); text-decoration-thickness: initial; text-decoration-style: initial; text-decoration-color: initial; float: none; display: inline !important;&quot;&gt;x1&lt;/span&gt;" style="text;whiteSpace=wrap;html=1;fontSize=8;fontFamily=Tahoma;verticalAlign=middle;" parent="1" vertex="1">
          <mxGeometry x="1358" y="513.8900000000001" width="30" height="10" as="geometry" />
        </mxCell>
        <mxCell id="kqmbkUOljX83greQ5X14-172" value="&lt;span style=&quot;color: rgb(35, 47, 62); font-family: Helvetica; font-size: 12px; font-style: normal; font-variant-ligatures: normal; font-variant-caps: normal; font-weight: 400; letter-spacing: normal; orphans: 2; text-align: center; text-indent: 0px; text-transform: none; widows: 2; word-spacing: 0px; -webkit-text-stroke-width: 0px; background-color: rgb(248, 249, 250); text-decoration-thickness: initial; text-decoration-style: initial; text-decoration-color: initial; float: none; display: inline !important;&quot;&gt;x1&lt;/span&gt;" style="text;whiteSpace=wrap;html=1;fontSize=8;fontFamily=Tahoma;verticalAlign=middle;" parent="1" vertex="1">
          <mxGeometry x="1358" y="536.8900000000001" width="30" height="10" as="geometry" />
        </mxCell>
        <mxCell id="kqmbkUOljX83greQ5X14-173" value="EC2 Instance&lt;br&gt;:c6i.24large&lt;br&gt;M+3" style="points=[[0,0],[0.25,0],[0.5,0],[0.75,0],[1,0],[1,0.25],[1,0.5],[1,0.75],[1,1],[0.75,1],[0.5,1],[0.25,1],[0,1],[0,0.75],[0,0.5],[0,0.25]];outlineConnect=0;gradientColor=none;html=1;whiteSpace=wrap;fontSize=12;fontStyle=0;container=0;pointerEvents=0;collapsible=0;recursiveResize=0;shape=mxgraph.aws4.group;grIcon=mxgraph.aws4.group_ec2_instance_contents;strokeColor=#D86613;fillColor=none;verticalAlign=top;align=left;spacingLeft=30;fontColor=#D86613;dashed=0;" parent="1" vertex="1">
          <mxGeometry x="498" y="552" width="894" height="66" as="geometry" />
        </mxCell>
        <mxCell id="kqmbkUOljX83greQ5X14-174" value="" style="sketch=0;outlineConnect=0;fontColor=#232F3E;gradientColor=none;fillColor=#067F68;strokeColor=none;dashed=0;verticalLabelPosition=bottom;verticalAlign=top;align=center;html=1;fontSize=12;fontStyle=0;aspect=fixed;pointerEvents=1;shape=mxgraph.aws4.sagemaker_train;labelBackgroundColor=none;fontFamily=Helvetica;" parent="1" vertex="1">
          <mxGeometry x="1095" y="555.5" width="48" height="40" as="geometry" />
        </mxCell>
        <mxCell id="kqmbkUOljX83greQ5X14-175" value="&lt;span style=&quot;color: rgb(0, 0, 0); font-family: Helvetica; font-size: 6px; font-style: normal; font-variant-ligatures: normal; font-variant-caps: normal; font-weight: 700; letter-spacing: normal; orphans: 2; text-align: center; text-indent: 0px; text-transform: none; widows: 2; word-spacing: 0px; -webkit-text-stroke-width: 0px; background-color: rgb(248, 249, 250); text-decoration-thickness: initial; text-decoration-style: initial; text-decoration-color: initial; float: none; display: inline !important;&quot;&gt;M+3&lt;/span&gt;" style="text;whiteSpace=wrap;html=1;" parent="1" vertex="1">
          <mxGeometry x="1100" y="592" width="50" height="40" as="geometry" />
        </mxCell>
        <mxCell id="kqmbkUOljX83greQ5X14-176" value="" style="endArrow=classic;html=1;rounded=0;fontFamily=Tahoma;fontSize=8;startSize=1;jumpSize=4;" parent="1" edge="1">
          <mxGeometry width="50" height="50" relative="1" as="geometry">
            <mxPoint x="1254.5" y="542.6000000000004" as="sourcePoint" />
            <mxPoint x="1344.5" y="542.6000000000004" as="targetPoint" />
          </mxGeometry>
        </mxCell>
        <mxCell id="kqmbkUOljX83greQ5X14-177" value="" style="aspect=fixed;perimeter=ellipsePerimeter;html=1;align=center;shadow=0;dashed=0;fontColor=#4277BB;labelBackgroundColor=#ffffff;fontSize=12;spacingTop=3;image;image=img/lib/ibm/data/model.svg;" parent="1" vertex="1">
          <mxGeometry x="1344" y="555.89" width="15" height="15" as="geometry" />
        </mxCell>
        <mxCell id="kqmbkUOljX83greQ5X14-178" value="" style="aspect=fixed;perimeter=ellipsePerimeter;html=1;align=center;shadow=0;dashed=0;fontColor=#4277BB;labelBackgroundColor=#ffffff;fontSize=12;spacingTop=3;image;image=img/lib/ibm/data/model.svg;" parent="1" vertex="1">
          <mxGeometry x="1344.5" y="577.89" width="15" height="15" as="geometry" />
        </mxCell>
        <mxCell id="kqmbkUOljX83greQ5X14-179" value="" style="aspect=fixed;perimeter=ellipsePerimeter;html=1;align=center;shadow=0;dashed=0;fontColor=#4277BB;labelBackgroundColor=#ffffff;fontSize=12;spacingTop=3;image;image=img/lib/ibm/data/model.svg;" parent="1" vertex="1">
          <mxGeometry x="1344" y="600.3900000000001" width="15" height="15" as="geometry" />
        </mxCell>
        <mxCell id="kqmbkUOljX83greQ5X14-180" style="edgeStyle=orthogonalEdgeStyle;rounded=0;orthogonalLoop=1;jettySize=auto;html=1;entryX=0;entryY=0.5;entryDx=0;entryDy=0;fontFamily=Tahoma;fontSize=8;" parent="1" target="kqmbkUOljX83greQ5X14-187" edge="1">
          <mxGeometry relative="1" as="geometry">
            <mxPoint x="1143" y="585.4099999999999" as="sourcePoint" />
            <Array as="points">
              <mxPoint x="1181" y="584.8900000000001" />
            </Array>
          </mxGeometry>
        </mxCell>
        <mxCell id="kqmbkUOljX83greQ5X14-181" value="MAX" style="edgeLabel;html=1;align=center;verticalAlign=middle;resizable=0;points=[];fontSize=8;fontFamily=Tahoma;" parent="kqmbkUOljX83greQ5X14-180" vertex="1" connectable="0">
          <mxGeometry x="-0.04" y="1" relative="1" as="geometry">
            <mxPoint as="offset" />
          </mxGeometry>
        </mxCell>
        <mxCell id="kqmbkUOljX83greQ5X14-182" style="edgeStyle=orthogonalEdgeStyle;rounded=0;orthogonalLoop=1;jettySize=auto;html=1;entryX=0;entryY=0.5;entryDx=0;entryDy=0;fontFamily=Tahoma;fontSize=8;" parent="1" target="kqmbkUOljX83greQ5X14-188" edge="1">
          <mxGeometry relative="1" as="geometry">
            <mxPoint x="1143" y="584.8900000000003" as="sourcePoint" />
            <Array as="points">
              <mxPoint x="1158" y="584.8900000000001" />
              <mxPoint x="1158" y="607.8900000000001" />
            </Array>
          </mxGeometry>
        </mxCell>
        <mxCell id="kqmbkUOljX83greQ5X14-183" value="AVG" style="edgeLabel;html=1;align=center;verticalAlign=middle;resizable=0;points=[];fontSize=8;fontFamily=Tahoma;" parent="kqmbkUOljX83greQ5X14-182" vertex="1" connectable="0">
          <mxGeometry x="0.2367" y="2" relative="1" as="geometry">
            <mxPoint x="-1" as="offset" />
          </mxGeometry>
        </mxCell>
        <mxCell id="kqmbkUOljX83greQ5X14-184" value="" style="aspect=fixed;perimeter=ellipsePerimeter;html=1;align=center;shadow=0;dashed=0;fontColor=#4277BB;labelBackgroundColor=#ffffff;fontSize=12;spacingTop=3;image;image=img/lib/ibm/data/model.svg;" parent="1" vertex="1">
          <mxGeometry x="1218.5" y="555.89" width="15" height="15" as="geometry" />
        </mxCell>
        <mxCell id="kqmbkUOljX83greQ5X14-185" style="edgeStyle=orthogonalEdgeStyle;rounded=0;orthogonalLoop=1;jettySize=auto;html=1;" parent="1" target="kqmbkUOljX83greQ5X14-184" edge="1">
          <mxGeometry relative="1" as="geometry">
            <mxPoint x="1143" y="584.8900000000003" as="sourcePoint" />
            <Array as="points">
              <mxPoint x="1158" y="584.8900000000001" />
              <mxPoint x="1158" y="563.89" />
            </Array>
          </mxGeometry>
        </mxCell>
        <mxCell id="kqmbkUOljX83greQ5X14-186" value="MIN" style="edgeLabel;html=1;align=center;verticalAlign=middle;resizable=0;points=[];fontSize=8;fontFamily=Tahoma;" parent="kqmbkUOljX83greQ5X14-185" vertex="1" connectable="0">
          <mxGeometry x="0.1911" y="1" relative="1" as="geometry">
            <mxPoint as="offset" />
          </mxGeometry>
        </mxCell>
        <mxCell id="kqmbkUOljX83greQ5X14-187" value="" style="aspect=fixed;perimeter=ellipsePerimeter;html=1;align=center;shadow=0;dashed=0;fontColor=#4277BB;labelBackgroundColor=#ffffff;fontSize=12;spacingTop=3;image;image=img/lib/ibm/data/model.svg;" parent="1" vertex="1">
          <mxGeometry x="1219" y="577.89" width="15" height="15" as="geometry" />
        </mxCell>
        <mxCell id="kqmbkUOljX83greQ5X14-188" value="" style="aspect=fixed;perimeter=ellipsePerimeter;html=1;align=center;shadow=0;dashed=0;fontColor=#4277BB;labelBackgroundColor=#ffffff;fontSize=12;spacingTop=3;image;image=img/lib/ibm/data/model.svg;" parent="1" vertex="1">
          <mxGeometry x="1218.5" y="600.3900000000001" width="15" height="15" as="geometry" />
        </mxCell>
        <mxCell id="kqmbkUOljX83greQ5X14-189" value="" style="endArrow=classic;html=1;rounded=0;fontFamily=Tahoma;fontSize=8;startSize=1;jumpSize=4;" parent="1" edge="1">
          <mxGeometry width="50" height="50" relative="1" as="geometry">
            <mxPoint x="1254" y="563.3100000000004" as="sourcePoint" />
            <mxPoint x="1344" y="563.3100000000004" as="targetPoint" />
          </mxGeometry>
        </mxCell>
        <mxCell id="kqmbkUOljX83greQ5X14-190" value="&lt;span style=&quot;color: rgb(35, 47, 62); font-family: Helvetica; font-size: 12px; font-style: normal; font-variant-ligatures: normal; font-variant-caps: normal; font-weight: 400; letter-spacing: normal; orphans: 2; text-align: center; text-indent: 0px; text-transform: none; widows: 2; word-spacing: 0px; -webkit-text-stroke-width: 0px; background-color: rgb(248, 249, 250); text-decoration-thickness: initial; text-decoration-style: initial; text-decoration-color: initial; float: none; display: inline !important;&quot;&gt;x15&lt;/span&gt;" style="text;whiteSpace=wrap;html=1;fontSize=8;fontFamily=Tahoma;verticalAlign=middle;" parent="1" vertex="1">
          <mxGeometry x="1233.5" y="557.89" width="30" height="10" as="geometry" />
        </mxCell>
        <mxCell id="kqmbkUOljX83greQ5X14-191" value="" style="endArrow=classic;html=1;rounded=0;fontFamily=Tahoma;fontSize=8;startSize=1;jumpSize=4;" parent="1" edge="1">
          <mxGeometry width="50" height="50" relative="1" as="geometry">
            <mxPoint x="1254" y="584.3100000000004" as="sourcePoint" />
            <mxPoint x="1344" y="584.3100000000004" as="targetPoint" />
          </mxGeometry>
        </mxCell>
        <mxCell id="kqmbkUOljX83greQ5X14-192" value="&lt;span style=&quot;color: rgb(35, 47, 62); font-family: Helvetica; font-size: 12px; font-style: normal; font-variant-ligatures: normal; font-variant-caps: normal; font-weight: 400; letter-spacing: normal; orphans: 2; text-align: center; text-indent: 0px; text-transform: none; widows: 2; word-spacing: 0px; -webkit-text-stroke-width: 0px; background-color: rgb(248, 249, 250); text-decoration-thickness: initial; text-decoration-style: initial; text-decoration-color: initial; float: none; display: inline !important;&quot;&gt;x15&lt;/span&gt;" style="text;whiteSpace=wrap;html=1;fontSize=8;fontFamily=Tahoma;verticalAlign=middle;" parent="1" vertex="1">
          <mxGeometry x="1233.5" y="578.8900000000001" width="30" height="10" as="geometry" />
        </mxCell>
        <mxCell id="kqmbkUOljX83greQ5X14-193" value="" style="endArrow=classic;html=1;rounded=0;fontFamily=Tahoma;fontSize=8;startSize=1;jumpSize=4;" parent="1" edge="1">
          <mxGeometry width="50" height="50" relative="1" as="geometry">
            <mxPoint x="1254.5" y="608.3100000000004" as="sourcePoint" />
            <mxPoint x="1344.5" y="608.3100000000004" as="targetPoint" />
          </mxGeometry>
        </mxCell>
        <mxCell id="kqmbkUOljX83greQ5X14-194" value="&lt;span style=&quot;color: rgb(35, 47, 62); font-family: Helvetica; font-size: 12px; font-style: normal; font-variant-ligatures: normal; font-variant-caps: normal; font-weight: 400; letter-spacing: normal; orphans: 2; text-align: center; text-indent: 0px; text-transform: none; widows: 2; word-spacing: 0px; -webkit-text-stroke-width: 0px; background-color: rgb(248, 249, 250); text-decoration-thickness: initial; text-decoration-style: initial; text-decoration-color: initial; float: none; display: inline !important;&quot;&gt;x15&lt;/span&gt;" style="text;whiteSpace=wrap;html=1;fontSize=8;fontFamily=Tahoma;verticalAlign=middle;" parent="1" vertex="1">
          <mxGeometry x="1234" y="602.8900000000001" width="30" height="10" as="geometry" />
        </mxCell>
        <mxCell id="kqmbkUOljX83greQ5X14-195" value="&lt;span style=&quot;color: rgb(35, 47, 62); font-family: Helvetica; font-size: 12px; font-style: normal; font-variant-ligatures: normal; font-variant-caps: normal; font-weight: 400; letter-spacing: normal; orphans: 2; text-align: center; text-indent: 0px; text-transform: none; widows: 2; word-spacing: 0px; -webkit-text-stroke-width: 0px; background-color: rgb(248, 249, 250); text-decoration-thickness: initial; text-decoration-style: initial; text-decoration-color: initial; float: none; display: inline !important;&quot;&gt;x1&lt;/span&gt;" style="text;whiteSpace=wrap;html=1;fontSize=8;fontFamily=Tahoma;verticalAlign=middle;" parent="1" vertex="1">
          <mxGeometry x="1358" y="557.89" width="30" height="10" as="geometry" />
        </mxCell>
        <mxCell id="kqmbkUOljX83greQ5X14-196" value="&lt;span style=&quot;color: rgb(35, 47, 62); font-family: Helvetica; font-size: 12px; font-style: normal; font-variant-ligatures: normal; font-variant-caps: normal; font-weight: 400; letter-spacing: normal; orphans: 2; text-align: center; text-indent: 0px; text-transform: none; widows: 2; word-spacing: 0px; -webkit-text-stroke-width: 0px; background-color: rgb(248, 249, 250); text-decoration-thickness: initial; text-decoration-style: initial; text-decoration-color: initial; float: none; display: inline !important;&quot;&gt;x1&lt;/span&gt;" style="text;whiteSpace=wrap;html=1;fontSize=8;fontFamily=Tahoma;verticalAlign=middle;" parent="1" vertex="1">
          <mxGeometry x="1358" y="579.8900000000001" width="30" height="10" as="geometry" />
        </mxCell>
        <mxCell id="kqmbkUOljX83greQ5X14-197" value="&lt;span style=&quot;color: rgb(35, 47, 62); font-family: Helvetica; font-size: 12px; font-style: normal; font-variant-ligatures: normal; font-variant-caps: normal; font-weight: 400; letter-spacing: normal; orphans: 2; text-align: center; text-indent: 0px; text-transform: none; widows: 2; word-spacing: 0px; -webkit-text-stroke-width: 0px; background-color: rgb(248, 249, 250); text-decoration-thickness: initial; text-decoration-style: initial; text-decoration-color: initial; float: none; display: inline !important;&quot;&gt;x1&lt;/span&gt;" style="text;whiteSpace=wrap;html=1;fontSize=8;fontFamily=Tahoma;verticalAlign=middle;" parent="1" vertex="1">
          <mxGeometry x="1358" y="602.8900000000001" width="30" height="10" as="geometry" />
        </mxCell>
        <mxCell id="kqmbkUOljX83greQ5X14-198" value="EC2 Instance&lt;br&gt;:c6i.24large&lt;br&gt;M+6" style="points=[[0,0],[0.25,0],[0.5,0],[0.75,0],[1,0],[1,0.25],[1,0.5],[1,0.75],[1,1],[0.75,1],[0.5,1],[0.25,1],[0,1],[0,0.75],[0,0.5],[0,0.25]];outlineConnect=0;gradientColor=none;html=1;whiteSpace=wrap;fontSize=12;fontStyle=0;container=0;pointerEvents=0;collapsible=0;recursiveResize=0;shape=mxgraph.aws4.group;grIcon=mxgraph.aws4.group_ec2_instance_contents;strokeColor=#D86613;fillColor=none;verticalAlign=top;align=left;spacingLeft=30;fontColor=#D86613;dashed=0;" parent="1" vertex="1">
          <mxGeometry x="498" y="619" width="894" height="66" as="geometry" />
        </mxCell>
        <mxCell id="kqmbkUOljX83greQ5X14-199" value="" style="sketch=0;outlineConnect=0;fontColor=#232F3E;gradientColor=none;fillColor=#067F68;strokeColor=none;dashed=0;verticalLabelPosition=bottom;verticalAlign=top;align=center;html=1;fontSize=12;fontStyle=0;aspect=fixed;pointerEvents=1;shape=mxgraph.aws4.sagemaker_train;labelBackgroundColor=none;fontFamily=Helvetica;" parent="1" vertex="1">
          <mxGeometry x="1095" y="622.5" width="48" height="40" as="geometry" />
        </mxCell>
        <mxCell id="kqmbkUOljX83greQ5X14-200" value="&lt;span style=&quot;color: rgb(0, 0, 0); font-family: Helvetica; font-size: 6px; font-style: normal; font-variant-ligatures: normal; font-variant-caps: normal; font-weight: 700; letter-spacing: normal; orphans: 2; text-align: center; text-indent: 0px; text-transform: none; widows: 2; word-spacing: 0px; -webkit-text-stroke-width: 0px; background-color: rgb(248, 249, 250); text-decoration-thickness: initial; text-decoration-style: initial; text-decoration-color: initial; float: none; display: inline !important;&quot;&gt;M+6&lt;/span&gt;" style="text;whiteSpace=wrap;html=1;" parent="1" vertex="1">
          <mxGeometry x="1100" y="659" width="50" height="40" as="geometry" />
        </mxCell>
        <mxCell id="kqmbkUOljX83greQ5X14-201" value="EC2 Instance&lt;br&gt;:c6i.24large&lt;br&gt;M+12" style="points=[[0,0],[0.25,0],[0.5,0],[0.75,0],[1,0],[1,0.25],[1,0.5],[1,0.75],[1,1],[0.75,1],[0.5,1],[0.25,1],[0,1],[0,0.75],[0,0.5],[0,0.25]];outlineConnect=0;gradientColor=none;html=1;whiteSpace=wrap;fontSize=12;fontStyle=0;container=0;pointerEvents=0;collapsible=0;recursiveResize=0;shape=mxgraph.aws4.group;grIcon=mxgraph.aws4.group_ec2_instance_contents;strokeColor=#D86613;fillColor=none;verticalAlign=top;align=left;spacingLeft=30;fontColor=#D86613;dashed=0;" parent="1" vertex="1">
          <mxGeometry x="498" y="685" width="894" height="66" as="geometry" />
        </mxCell>
        <mxCell id="kqmbkUOljX83greQ5X14-202" value="" style="sketch=0;outlineConnect=0;fontColor=#232F3E;gradientColor=none;fillColor=#067F68;strokeColor=none;dashed=0;verticalLabelPosition=bottom;verticalAlign=top;align=center;html=1;fontSize=12;fontStyle=0;aspect=fixed;pointerEvents=1;shape=mxgraph.aws4.sagemaker_train;labelBackgroundColor=none;fontFamily=Helvetica;" parent="1" vertex="1">
          <mxGeometry x="1095" y="688.5" width="48" height="40" as="geometry" />
        </mxCell>
        <mxCell id="kqmbkUOljX83greQ5X14-203" value="&lt;span style=&quot;color: rgb(0, 0, 0); font-family: Helvetica; font-size: 6px; font-style: normal; font-variant-ligatures: normal; font-variant-caps: normal; font-weight: 700; letter-spacing: normal; orphans: 2; text-align: center; text-indent: 0px; text-transform: none; widows: 2; word-spacing: 0px; -webkit-text-stroke-width: 0px; background-color: rgb(248, 249, 250); text-decoration-thickness: initial; text-decoration-style: initial; text-decoration-color: initial; float: none; display: inline !important;&quot;&gt;M+12&lt;/span&gt;" style="text;whiteSpace=wrap;html=1;" parent="1" vertex="1">
          <mxGeometry x="1100" y="725" width="50" height="40" as="geometry" />
        </mxCell>
        <mxCell id="kqmbkUOljX83greQ5X14-204" value="" style="html=1;verticalLabelPosition=bottom;align=center;labelBackgroundColor=#ffffff;verticalAlign=top;strokeWidth=2;strokeColor=#0080F0;shadow=0;dashed=0;shape=mxgraph.ios7.icons.data;" parent="1" vertex="1">
          <mxGeometry x="628" y="429.0799999999999" width="48.11" height="51.85" as="geometry" />
        </mxCell>
        <mxCell id="kqmbkUOljX83greQ5X14-205" value="" style="html=1;verticalLabelPosition=bottom;align=center;labelBackgroundColor=#ffffff;verticalAlign=top;strokeWidth=2;strokeColor=#0080F0;shadow=0;dashed=0;shape=mxgraph.ios7.icons.data;" parent="1" vertex="1">
          <mxGeometry x="628" y="493.4599999999999" width="48.11" height="51.85" as="geometry" />
        </mxCell>
        <mxCell id="kqmbkUOljX83greQ5X14-206" value="" style="html=1;verticalLabelPosition=bottom;align=center;labelBackgroundColor=#ffffff;verticalAlign=top;strokeWidth=2;strokeColor=#0080F0;shadow=0;dashed=0;shape=mxgraph.ios7.icons.data;" parent="1" vertex="1">
          <mxGeometry x="628" y="559.4599999999999" width="48.11" height="51.85" as="geometry" />
        </mxCell>
        <mxCell id="kqmbkUOljX83greQ5X14-207" value="" style="html=1;verticalLabelPosition=bottom;align=center;labelBackgroundColor=#ffffff;verticalAlign=top;strokeWidth=2;strokeColor=#0080F0;shadow=0;dashed=0;shape=mxgraph.ios7.icons.data;" parent="1" vertex="1">
          <mxGeometry x="628" y="626.0799999999999" width="48.11" height="51.85" as="geometry" />
        </mxCell>
        <mxCell id="kqmbkUOljX83greQ5X14-208" value="...&lt;br&gt;22.06.01~22.06.30&lt;br&gt;22.07.01~22.07.31&lt;br&gt;22.08.01~22.08.31&lt;br&gt;22.09.01~22.09.30" style="shape=note;whiteSpace=wrap;html=1;backgroundOutline=1;darkOpacity=0.05;fontSize=6;size=0;" parent="1" vertex="1">
          <mxGeometry x="757" y="420.5" width="90" height="65" as="geometry" />
        </mxCell>
        <mxCell id="kqmbkUOljX83greQ5X14-209" value="" style="html=1;verticalLabelPosition=bottom;align=center;labelBackgroundColor=#ffffff;verticalAlign=top;strokeWidth=2;strokeColor=#0080F0;shadow=0;dashed=0;shape=mxgraph.ios7.icons.data;" parent="1" vertex="1">
          <mxGeometry x="628" y="692.0799999999999" width="48.11" height="51.85" as="geometry" />
        </mxCell>
        <mxCell id="kqmbkUOljX83greQ5X14-210" value="...&lt;br&gt;22.02.01~22.04.30&lt;br&gt;22.04.01~22.05.31&lt;br&gt;22.06.01~22.07.31&lt;br&gt;22.08.01~22.09.30" style="shape=note;whiteSpace=wrap;html=1;backgroundOutline=1;darkOpacity=0.05;fontSize=6;size=0;" parent="1" vertex="1">
          <mxGeometry x="757" y="486" width="90" height="65" as="geometry" />
        </mxCell>
        <mxCell id="kqmbkUOljX83greQ5X14-211" value="...&lt;br&gt;21.10.01~21.12.31&lt;br&gt;22.01.01~22.03.31&lt;br&gt;22.04.01~22.06.30&lt;br&gt;22.07.01~22.09.30" style="shape=note;whiteSpace=wrap;html=1;backgroundOutline=1;darkOpacity=0.05;fontSize=6;size=0;" parent="1" vertex="1">
          <mxGeometry x="757" y="552" width="90" height="65" as="geometry" />
        </mxCell>
        <mxCell id="kqmbkUOljX83greQ5X14-212" value="...&lt;br&gt;21.02.01~21.06.30&lt;br&gt;21.07.01~21.11.30&lt;br&gt;21.12.01~22.04.30&lt;br&gt;22.04.01~22.09.30" style="shape=note;whiteSpace=wrap;html=1;backgroundOutline=1;darkOpacity=0.05;fontSize=6;size=0;" parent="1" vertex="1">
          <mxGeometry x="757" y="618.5" width="90" height="65" as="geometry" />
        </mxCell>
        <mxCell id="kqmbkUOljX83greQ5X14-213" value="...&lt;br&gt;18.09.30~19.09.30&lt;br&gt;19.09.30~20.09.30&lt;br&gt;20.09.30~21.09.30&lt;br&gt;21.09.30~22.09.30" style="shape=note;whiteSpace=wrap;html=1;backgroundOutline=1;darkOpacity=0.05;fontSize=6;size=0;" parent="1" vertex="1">
          <mxGeometry x="756.99" y="685.5" width="90" height="65" as="geometry" />
        </mxCell>
        <mxCell id="kqmbkUOljX83greQ5X14-214" value="" style="endArrow=classic;html=1;rounded=0;fontFamily=Tahoma;fontSize=8;startSize=1;jumpSize=4;" parent="1" edge="1">
          <mxGeometry width="50" height="50" relative="1" as="geometry">
            <mxPoint x="858" y="454.5" as="sourcePoint" />
            <mxPoint x="1088" y="454.5" as="targetPoint" />
          </mxGeometry>
        </mxCell>
        <mxCell id="kqmbkUOljX83greQ5X14-215" value="" style="endArrow=classic;html=1;rounded=0;fontFamily=Tahoma;fontSize=8;startSize=1;jumpSize=4;" parent="1" edge="1">
          <mxGeometry width="50" height="50" relative="1" as="geometry">
            <mxPoint x="858" y="518.5799999999999" as="sourcePoint" />
            <mxPoint x="1088" y="518.5799999999999" as="targetPoint" />
          </mxGeometry>
        </mxCell>
        <mxCell id="kqmbkUOljX83greQ5X14-216" value="" style="endArrow=classic;html=1;rounded=0;fontFamily=Tahoma;fontSize=8;startSize=1;jumpSize=4;" parent="1" edge="1">
          <mxGeometry width="50" height="50" relative="1" as="geometry">
            <mxPoint x="858" y="584.9699999999998" as="sourcePoint" />
            <mxPoint x="1088" y="584.9699999999998" as="targetPoint" />
          </mxGeometry>
        </mxCell>
        <mxCell id="kqmbkUOljX83greQ5X14-217" value="" style="endArrow=classic;html=1;rounded=0;fontFamily=Tahoma;fontSize=8;startSize=1;jumpSize=4;" parent="1" edge="1">
          <mxGeometry width="50" height="50" relative="1" as="geometry">
            <mxPoint x="858" y="651.5899999999997" as="sourcePoint" />
            <mxPoint x="1088" y="651.5899999999997" as="targetPoint" />
          </mxGeometry>
        </mxCell>
        <mxCell id="kqmbkUOljX83greQ5X14-218" value="" style="endArrow=classic;html=1;rounded=0;fontFamily=Tahoma;fontSize=8;startSize=1;jumpSize=4;" parent="1" edge="1">
          <mxGeometry width="50" height="50" relative="1" as="geometry">
            <mxPoint x="858" y="717.5799999999999" as="sourcePoint" />
            <mxPoint x="1088" y="717.5799999999999" as="targetPoint" />
          </mxGeometry>
        </mxCell>
        <mxCell id="kqmbkUOljX83greQ5X14-219" value="MIN MAX AVG" style="text;html=1;strokeColor=none;fillColor=none;align=center;verticalAlign=middle;whiteSpace=wrap;rounded=0;fontStyle=1;fontSize=6;fontFamily=Helvetica;" parent="1" vertex="1">
          <mxGeometry x="678" y="450.5" width="80" height="30" as="geometry" />
        </mxCell>
        <mxCell id="kqmbkUOljX83greQ5X14-220" value="1 Month" style="text;html=1;strokeColor=none;fillColor=none;align=center;verticalAlign=middle;whiteSpace=wrap;rounded=0;fontStyle=1;fontSize=6;fontFamily=Helvetica;" parent="1" vertex="1">
          <mxGeometry x="687.0599999999997" y="428.49999999999994" width="60" height="30" as="geometry" />
        </mxCell>
        <mxCell id="kqmbkUOljX83greQ5X14-221" value="MIN MAX AVG" style="text;html=1;strokeColor=none;fillColor=none;align=center;verticalAlign=middle;whiteSpace=wrap;rounded=0;fontStyle=1;fontSize=6;fontFamily=Helvetica;" parent="1" vertex="1">
          <mxGeometry x="678" y="519.39" width="80" height="30" as="geometry" />
        </mxCell>
        <mxCell id="kqmbkUOljX83greQ5X14-222" value="2 Month" style="text;html=1;strokeColor=none;fillColor=none;align=center;verticalAlign=middle;whiteSpace=wrap;rounded=0;fontStyle=1;fontSize=6;fontFamily=Helvetica;" parent="1" vertex="1">
          <mxGeometry x="687.0599999999997" y="499.4999999999999" width="60" height="30" as="geometry" />
        </mxCell>
        <mxCell id="kqmbkUOljX83greQ5X14-223" value="MIN MAX AVG" style="text;html=1;strokeColor=none;fillColor=none;align=center;verticalAlign=middle;whiteSpace=wrap;rounded=0;fontStyle=1;fontSize=6;fontFamily=Helvetica;" parent="1" vertex="1">
          <mxGeometry x="676.11" y="585.39" width="81.89" height="30" as="geometry" />
        </mxCell>
        <mxCell id="kqmbkUOljX83greQ5X14-224" value="3 Month" style="text;html=1;strokeColor=none;fillColor=none;align=center;verticalAlign=middle;whiteSpace=wrap;rounded=0;fontStyle=1;fontSize=6;fontFamily=Helvetica;" parent="1" vertex="1">
          <mxGeometry x="687.0599999999998" y="562.89" width="60" height="30" as="geometry" />
        </mxCell>
        <mxCell id="kqmbkUOljX83greQ5X14-225" value="Close" style="text;html=1;strokeColor=none;fillColor=none;align=center;verticalAlign=middle;whiteSpace=wrap;rounded=0;fontStyle=1;fontSize=6;fontFamily=Helvetica;" parent="1" vertex="1">
          <mxGeometry x="678" y="647.93" width="80" height="30" as="geometry" />
        </mxCell>
        <mxCell id="kqmbkUOljX83greQ5X14-226" value="6 Month" style="text;html=1;strokeColor=none;fillColor=none;align=center;verticalAlign=middle;whiteSpace=wrap;rounded=0;fontStyle=1;fontSize=6;fontFamily=Helvetica;" parent="1" vertex="1">
          <mxGeometry x="687.9999999999998" y="626.0799999999999" width="60" height="30" as="geometry" />
        </mxCell>
        <mxCell id="kqmbkUOljX83greQ5X14-227" value="12 Month" style="text;html=1;strokeColor=none;fillColor=none;align=center;verticalAlign=middle;whiteSpace=wrap;rounded=0;fontStyle=1;fontSize=6;fontFamily=Helvetica;" parent="1" vertex="1">
          <mxGeometry x="687.9999999999998" y="688.9999999999999" width="60" height="30" as="geometry" />
        </mxCell>
        <mxCell id="kqmbkUOljX83greQ5X14-228" value="Close" style="text;html=1;strokeColor=none;fillColor=none;align=center;verticalAlign=middle;whiteSpace=wrap;rounded=0;fontStyle=1;fontSize=6;fontFamily=Helvetica;" parent="1" vertex="1">
          <mxGeometry x="678" y="711.85" width="80" height="30" as="geometry" />
        </mxCell>
        <mxCell id="kqmbkUOljX83greQ5X14-229" value="2개 모델" style="text;html=1;strokeColor=none;fillColor=none;align=center;verticalAlign=middle;whiteSpace=wrap;rounded=0;fontStyle=1;fontSize=6;fontFamily=Helvetica;" parent="1" vertex="1">
          <mxGeometry x="1197" y="662.0799999999999" width="60" height="30" as="geometry" />
        </mxCell>
        <mxCell id="kqmbkUOljX83greQ5X14-230" value="챔피언 모델 1개" style="text;html=1;strokeColor=none;fillColor=none;align=center;verticalAlign=middle;whiteSpace=wrap;rounded=0;fontStyle=1;fontSize=6;fontFamily=Helvetica;" parent="1" vertex="1">
          <mxGeometry x="1312" y="662.0799999999999" width="80" height="30" as="geometry" />
        </mxCell>
        <mxCell id="kqmbkUOljX83greQ5X14-231" value="" style="aspect=fixed;perimeter=ellipsePerimeter;html=1;align=center;shadow=0;dashed=0;fontColor=#4277BB;labelBackgroundColor=#ffffff;fontSize=12;spacingTop=3;image;image=img/lib/ibm/data/model.svg;" parent="1" vertex="1">
          <mxGeometry x="1207" y="631.5" width="40" height="40" as="geometry" />
        </mxCell>
        <mxCell id="kqmbkUOljX83greQ5X14-232" style="edgeStyle=orthogonalEdgeStyle;rounded=0;orthogonalLoop=1;jettySize=auto;html=1;" parent="1" edge="1">
          <mxGeometry relative="1" as="geometry">
            <mxPoint x="1144" y="651.5" as="sourcePoint" />
            <mxPoint x="1207" y="651.5" as="targetPoint" />
            <Array as="points">
              <mxPoint x="1162" y="651.5" />
              <mxPoint x="1162" y="651.5" />
            </Array>
          </mxGeometry>
        </mxCell>
        <mxCell id="kqmbkUOljX83greQ5X14-233" value="" style="aspect=fixed;perimeter=ellipsePerimeter;html=1;align=center;shadow=0;dashed=0;fontColor=#4277BB;labelBackgroundColor=#ffffff;fontSize=12;spacingTop=3;image;image=img/lib/ibm/data/model.svg;" parent="1" vertex="1">
          <mxGeometry x="1333" y="631.5" width="40" height="40" as="geometry" />
        </mxCell>
        <mxCell id="kqmbkUOljX83greQ5X14-234" style="edgeStyle=orthogonalEdgeStyle;rounded=0;orthogonalLoop=1;jettySize=auto;html=1;" parent="1" edge="1">
          <mxGeometry relative="1" as="geometry">
            <mxPoint x="1247" y="650.5" as="sourcePoint" />
            <mxPoint x="1333" y="650.5" as="targetPoint" />
          </mxGeometry>
        </mxCell>
        <mxCell id="kqmbkUOljX83greQ5X14-235" value="2개 모델" style="text;html=1;strokeColor=none;fillColor=none;align=center;verticalAlign=middle;whiteSpace=wrap;rounded=0;fontStyle=1;fontSize=6;fontFamily=Helvetica;" parent="1" vertex="1">
          <mxGeometry x="1197" y="727.1399999999999" width="60" height="30" as="geometry" />
        </mxCell>
        <mxCell id="kqmbkUOljX83greQ5X14-236" value="챔피언 모델 1개" style="text;html=1;strokeColor=none;fillColor=none;align=center;verticalAlign=middle;whiteSpace=wrap;rounded=0;fontStyle=1;fontSize=6;fontFamily=Helvetica;" parent="1" vertex="1">
          <mxGeometry x="1312" y="727.1399999999999" width="80" height="30" as="geometry" />
        </mxCell>
        <mxCell id="kqmbkUOljX83greQ5X14-237" value="" style="aspect=fixed;perimeter=ellipsePerimeter;html=1;align=center;shadow=0;dashed=0;fontColor=#4277BB;labelBackgroundColor=#ffffff;fontSize=12;spacingTop=3;image;image=img/lib/ibm/data/model.svg;" parent="1" vertex="1">
          <mxGeometry x="1207" y="696.56" width="40" height="40" as="geometry" />
        </mxCell>
        <mxCell id="kqmbkUOljX83greQ5X14-238" style="edgeStyle=orthogonalEdgeStyle;rounded=0;orthogonalLoop=1;jettySize=auto;html=1;" parent="1" edge="1">
          <mxGeometry relative="1" as="geometry">
            <mxPoint x="1144" y="716.56" as="sourcePoint" />
            <mxPoint x="1207" y="716.56" as="targetPoint" />
            <Array as="points">
              <mxPoint x="1162" y="716.56" />
              <mxPoint x="1162" y="716.56" />
            </Array>
          </mxGeometry>
        </mxCell>
        <mxCell id="kqmbkUOljX83greQ5X14-239" value="" style="aspect=fixed;perimeter=ellipsePerimeter;html=1;align=center;shadow=0;dashed=0;fontColor=#4277BB;labelBackgroundColor=#ffffff;fontSize=12;spacingTop=3;image;image=img/lib/ibm/data/model.svg;" parent="1" vertex="1">
          <mxGeometry x="1333" y="696.56" width="40" height="40" as="geometry" />
        </mxCell>
        <mxCell id="kqmbkUOljX83greQ5X14-240" style="edgeStyle=orthogonalEdgeStyle;rounded=0;orthogonalLoop=1;jettySize=auto;html=1;" parent="1" edge="1">
          <mxGeometry relative="1" as="geometry">
            <mxPoint x="1247" y="715.56" as="sourcePoint" />
            <mxPoint x="1333" y="715.56" as="targetPoint" />
          </mxGeometry>
        </mxCell>
        <mxCell id="sX1N6BWLLxhWYm_5iFF9-5" value="" style="shape=image;verticalLabelPosition=bottom;labelBackgroundColor=default;verticalAlign=top;aspect=fixed;imageAspect=0;image=https://www.ovhcloud.com/sites/default/files/styles/large_screens_1x/public/2021-09/ECX-1909_Hero_PostgreSQL_600x400%402x.png;" vertex="1" parent="1">
          <mxGeometry x="1440" y="637.59" width="199" height="59.37" as="geometry" />
        </mxCell>
      </root>
    </mxGraphModel>
  </diagram>
  <diagram id="Ht1M8jgEwFfnCIfOTk4-" name="As-Is">
    <mxGraphModel dx="2031" dy="1089" grid="1" gridSize="10" guides="1" tooltips="1" connect="1" arrows="1" fold="1" page="1" pageScale="1" pageWidth="1169" pageHeight="827" math="0" shadow="0">
      <root>
        <mxCell id="0" />
        <mxCell id="1" parent="0" />
        <mxCell id="-QjtrjUzRDEMRZ5MF8oH-47" value="원자재(팜유) 시황 예측 AWS Architecture" style="text;html=1;resizable=0;points=[];autosize=1;align=left;verticalAlign=top;spacingTop=-4;fontSize=30;fontStyle=1;labelBackgroundColor=none;" parent="1" vertex="1">
          <mxGeometry x="36.5" y="26.5" width="590" height="40" as="geometry" />
        </mxCell>
        <mxCell id="-QjtrjUzRDEMRZ5MF8oH-48" value="Author: 디지털인프라팀" style="text;html=1;resizable=0;points=[];autosize=1;align=left;verticalAlign=top;spacingTop=-4;fontSize=16;labelBackgroundColor=none;" parent="1" vertex="1">
          <mxGeometry x="36.5" y="76.5" width="190" height="30" as="geometry" />
        </mxCell>
        <mxCell id="SCVMTBWpLvtzJIhz15lM-1" value="" style="line;strokeWidth=2;html=1;fontSize=14;labelBackgroundColor=none;" parent="1" vertex="1">
          <mxGeometry x="32.5" y="101.5" width="1060" height="10" as="geometry" />
        </mxCell>
        <mxCell id="1dBTJliTiQG94aDny_BC-19" value="AWS Cloud" style="points=[[0,0],[0.25,0],[0.5,0],[0.75,0],[1,0],[1,0.25],[1,0.5],[1,0.75],[1,1],[0.75,1],[0.5,1],[0.25,1],[0,1],[0,0.75],[0,0.5],[0,0.25]];outlineConnect=0;gradientColor=none;html=1;whiteSpace=wrap;fontSize=12;fontStyle=0;shape=mxgraph.aws4.group;grIcon=mxgraph.aws4.group_aws_cloud_alt;strokeColor=#232F3E;fillColor=none;verticalAlign=top;align=left;spacingLeft=30;fontColor=#232F3E;dashed=0;labelBackgroundColor=none;container=1;pointerEvents=0;collapsible=0;recursiveResize=0;" parent="1" vertex="1">
          <mxGeometry x="33" y="150" width="1410" height="580" as="geometry" />
        </mxCell>
        <mxCell id="dCYjzD_zUEwOEs_KfjNQ-2" value="데이터 정제" style="swimlane;startSize=40;fontSize=16;" parent="1dBTJliTiQG94aDny_BC-19" vertex="1">
          <mxGeometry x="620" y="30" width="289" height="550" as="geometry">
            <mxRectangle x="731" y="30" width="120" height="30" as="alternateBounds" />
          </mxGeometry>
        </mxCell>
        <mxCell id="dCYjzD_zUEwOEs_KfjNQ-24" value="AWS&lt;br&gt;Athena" style="sketch=0;points=[[0,0,0],[0.25,0,0],[0.5,0,0],[0.75,0,0],[1,0,0],[0,1,0],[0.25,1,0],[0.5,1,0],[0.75,1,0],[1,1,0],[0,0.25,0],[0,0.5,0],[0,0.75,0],[1,0.25,0],[1,0.5,0],[1,0.75,0]];outlineConnect=0;fontColor=#232F3E;gradientColor=#945DF2;gradientDirection=north;fillColor=#5A30B5;strokeColor=#ffffff;dashed=0;verticalLabelPosition=bottom;verticalAlign=top;align=center;html=1;fontSize=12;fontStyle=0;aspect=fixed;shape=mxgraph.aws4.resourceIcon;resIcon=mxgraph.aws4.athena;" parent="dCYjzD_zUEwOEs_KfjNQ-2" vertex="1">
          <mxGeometry x="186" y="130.5" width="78" height="78" as="geometry" />
        </mxCell>
        <mxCell id="6hlHMrz7loX8VQzPJCg0-5" value="4" style="rounded=1;whiteSpace=wrap;html=1;fillColor=#007CBD;strokeColor=none;fontColor=#FFFFFF;fontStyle=1;fontSize=22;labelBackgroundColor=none;" parent="dCYjzD_zUEwOEs_KfjNQ-2" vertex="1">
          <mxGeometry x="147" y="93" width="40" height="38" as="geometry" />
        </mxCell>
        <mxCell id="6hlHMrz7loX8VQzPJCg0-10" style="edgeStyle=orthogonalEdgeStyle;rounded=0;orthogonalLoop=1;jettySize=auto;html=1;entryX=0;entryY=0.5;entryDx=0;entryDy=0;entryPerimeter=0;fontSize=16;" parent="dCYjzD_zUEwOEs_KfjNQ-2" source="1dBTJliTiQG94aDny_BC-4" target="dCYjzD_zUEwOEs_KfjNQ-24" edge="1">
          <mxGeometry relative="1" as="geometry">
            <Array as="points">
              <mxPoint x="99" y="169" />
            </Array>
          </mxGeometry>
        </mxCell>
        <mxCell id="1dBTJliTiQG94aDny_BC-4" value="AWS S3" style="sketch=0;points=[[0,0,0],[0.25,0,0],[0.5,0,0],[0.75,0,0],[1,0,0],[0,1,0],[0.25,1,0],[0.5,1,0],[0.75,1,0],[1,1,0],[0,0.25,0],[0,0.5,0],[0,0.75,0],[1,0.25,0],[1,0.5,0],[1,0.75,0]];outlineConnect=0;fontColor=#232F3E;gradientColor=#60A337;gradientDirection=north;fillColor=#277116;strokeColor=#ffffff;dashed=0;verticalLabelPosition=bottom;verticalAlign=top;align=center;html=1;fontSize=12;fontStyle=0;aspect=fixed;shape=mxgraph.aws4.resourceIcon;resIcon=mxgraph.aws4.s3;" parent="dCYjzD_zUEwOEs_KfjNQ-2" vertex="1">
          <mxGeometry x="77" y="250" width="78" height="78" as="geometry" />
        </mxCell>
        <mxCell id="dCYjzD_zUEwOEs_KfjNQ-3" value="모델링" style="swimlane;startSize=40;fontSize=16;" parent="1dBTJliTiQG94aDny_BC-19" vertex="1">
          <mxGeometry x="910" y="30" width="200" height="550" as="geometry">
            <mxRectangle x="370" y="1170" width="120" height="30" as="alternateBounds" />
          </mxGeometry>
        </mxCell>
        <mxCell id="1dBTJliTiQG94aDny_BC-58" value="AWS S3" style="sketch=0;points=[[0,0,0],[0.25,0,0],[0.5,0,0],[0.75,0,0],[1,0,0],[0,1,0],[0.25,1,0],[0.5,1,0],[0.75,1,0],[1,1,0],[0,0.25,0],[0,0.5,0],[0,0.75,0],[1,0.25,0],[1,0.5,0],[1,0.75,0]];outlineConnect=0;fontColor=#232F3E;gradientColor=#60A337;gradientDirection=north;fillColor=#277116;strokeColor=#ffffff;dashed=0;verticalLabelPosition=bottom;verticalAlign=top;align=center;html=1;fontSize=12;fontStyle=0;aspect=fixed;shape=mxgraph.aws4.resourceIcon;resIcon=mxgraph.aws4.s3;" parent="dCYjzD_zUEwOEs_KfjNQ-3" vertex="1">
          <mxGeometry x="67" y="440" width="78" height="78" as="geometry" />
        </mxCell>
        <mxCell id="1dBTJliTiQG94aDny_BC-57" value="AI Model" style="edgeStyle=orthogonalEdgeStyle;rounded=0;orthogonalLoop=1;jettySize=auto;html=1;" parent="dCYjzD_zUEwOEs_KfjNQ-3" edge="1">
          <mxGeometry relative="1" as="geometry">
            <mxPoint x="106" y="366" as="sourcePoint" />
            <mxPoint x="106" y="438" as="targetPoint" />
          </mxGeometry>
        </mxCell>
        <mxCell id="6hlHMrz7loX8VQzPJCg0-6" value="5" style="rounded=1;whiteSpace=wrap;html=1;fillColor=#007CBD;strokeColor=none;fontColor=#FFFFFF;fontStyle=1;fontSize=22;labelBackgroundColor=none;" parent="dCYjzD_zUEwOEs_KfjNQ-3" vertex="1">
          <mxGeometry x="29" y="214" width="40" height="38" as="geometry" />
        </mxCell>
        <mxCell id="1dBTJliTiQG94aDny_BC-46" value="AWS SageMaker&lt;br&gt;Batch Transform" style="sketch=0;points=[[0,0,0],[0.25,0,0],[0.5,0,0],[0.75,0,0],[1,0,0],[0,1,0],[0.25,1,0],[0.5,1,0],[0.75,1,0],[1,1,0],[0,0.25,0],[0,0.5,0],[0,0.75,0],[1,0.25,0],[1,0.5,0],[1,0.75,0]];outlineConnect=0;fontColor=#232F3E;gradientColor=#4AB29A;gradientDirection=north;fillColor=#116D5B;strokeColor=#ffffff;dashed=0;verticalLabelPosition=bottom;verticalAlign=top;align=center;html=1;fontSize=12;fontStyle=0;aspect=fixed;shape=mxgraph.aws4.resourceIcon;resIcon=mxgraph.aws4.sagemaker;" parent="dCYjzD_zUEwOEs_KfjNQ-3" vertex="1">
          <mxGeometry x="67" y="250" width="78" height="78" as="geometry" />
        </mxCell>
        <mxCell id="1dBTJliTiQG94aDny_BC-61" value="데이터 수집" style="swimlane;startSize=40;fontSize=16;" parent="1dBTJliTiQG94aDny_BC-19" vertex="1">
          <mxGeometry x="1" y="30" width="619" height="550" as="geometry">
            <mxRectangle x="-30" y="1060" width="120" height="30" as="alternateBounds" />
          </mxGeometry>
        </mxCell>
        <mxCell id="6hlHMrz7loX8VQzPJCg0-3" value="2" style="rounded=1;whiteSpace=wrap;html=1;fillColor=#007CBD;strokeColor=none;fontColor=#FFFFFF;fontStyle=1;fontSize=22;labelBackgroundColor=none;" parent="1dBTJliTiQG94aDny_BC-61" vertex="1">
          <mxGeometry x="426" y="102" width="40" height="38" as="geometry" />
        </mxCell>
        <mxCell id="CtUr043-NP_PtcqY4t4r-6" value="Crawling &lt;b&gt;Weather &lt;/b&gt;Data" style="sketch=0;points=[[0,0,0],[0.25,0,0],[0.5,0,0],[0.75,0,0],[1,0,0],[0,1,0],[0.25,1,0],[0.5,1,0],[0.75,1,0],[1,1,0],[0,0.25,0],[0,0.5,0],[0,0.75,0],[1,0.25,0],[1,0.5,0],[1,0.75,0]];outlineConnect=0;fontColor=#232F3E;gradientColor=#F78E04;gradientDirection=north;fillColor=#D05C17;strokeColor=#ffffff;dashed=0;verticalLabelPosition=bottom;verticalAlign=top;align=center;html=1;fontSize=12;fontStyle=0;aspect=fixed;shape=mxgraph.aws4.resourceIcon;resIcon=mxgraph.aws4.lambda;" parent="1dBTJliTiQG94aDny_BC-61" vertex="1">
          <mxGeometry x="306" y="430" width="78" height="78" as="geometry" />
        </mxCell>
        <mxCell id="CtUr043-NP_PtcqY4t4r-11" style="edgeStyle=orthogonalEdgeStyle;rounded=0;orthogonalLoop=1;jettySize=auto;html=1;entryX=0;entryY=0.5;entryDx=0;entryDy=0;entryPerimeter=0;fontSize=11;" parent="1dBTJliTiQG94aDny_BC-61" source="dCYjzD_zUEwOEs_KfjNQ-6" target="CtUr043-NP_PtcqY4t4r-5" edge="1">
          <mxGeometry relative="1" as="geometry">
            <Array as="points">
              <mxPoint x="266" y="287" />
              <mxPoint x="266" y="355" />
            </Array>
          </mxGeometry>
        </mxCell>
        <mxCell id="CtUr043-NP_PtcqY4t4r-12" style="edgeStyle=orthogonalEdgeStyle;rounded=0;orthogonalLoop=1;jettySize=auto;html=1;entryX=0;entryY=0.5;entryDx=0;entryDy=0;entryPerimeter=0;fontSize=11;" parent="1dBTJliTiQG94aDny_BC-61" source="dCYjzD_zUEwOEs_KfjNQ-6" target="CtUr043-NP_PtcqY4t4r-6" edge="1">
          <mxGeometry relative="1" as="geometry">
            <Array as="points">
              <mxPoint x="266" y="287" />
              <mxPoint x="266" y="469" />
            </Array>
          </mxGeometry>
        </mxCell>
        <mxCell id="dCYjzD_zUEwOEs_KfjNQ-6" value="AWS EventBridge" style="sketch=0;points=[[0,0,0],[0.25,0,0],[0.5,0,0],[0.75,0,0],[1,0,0],[0,1,0],[0.25,1,0],[0.5,1,0],[0.75,1,0],[1,1,0],[0,0.25,0],[0,0.5,0],[0,0.75,0],[1,0.25,0],[1,0.5,0],[1,0.75,0]];outlineConnect=0;fontColor=#232F3E;gradientColor=#FF4F8B;gradientDirection=north;fillColor=#BC1356;strokeColor=#ffffff;dashed=0;verticalLabelPosition=bottom;verticalAlign=top;align=center;html=1;fontSize=12;fontStyle=0;aspect=fixed;shape=mxgraph.aws4.resourceIcon;resIcon=mxgraph.aws4.eventbridge;" parent="1dBTJliTiQG94aDny_BC-61" vertex="1">
          <mxGeometry x="156" y="248" width="78" height="78" as="geometry" />
        </mxCell>
        <mxCell id="dCYjzD_zUEwOEs_KfjNQ-7" value="Turn on Ec2 Instance" style="outlineConnect=0;fontColor=#232F3E;gradientColor=none;fillColor=#D05C17;strokeColor=none;dashed=0;verticalLabelPosition=bottom;verticalAlign=top;align=center;html=1;fontSize=12;fontStyle=0;aspect=fixed;pointerEvents=1;shape=mxgraph.aws4.lambda_function;labelBackgroundColor=#ffffff;spacingTop=7;" parent="1dBTJliTiQG94aDny_BC-61" vertex="1">
          <mxGeometry x="306" y="60" width="78" height="78" as="geometry" />
        </mxCell>
        <mxCell id="dCYjzD_zUEwOEs_KfjNQ-8" style="edgeStyle=orthogonalEdgeStyle;rounded=0;orthogonalLoop=1;jettySize=auto;html=1;exitX=1;exitY=0.5;exitDx=0;exitDy=0;exitPerimeter=0;" parent="1dBTJliTiQG94aDny_BC-61" source="dCYjzD_zUEwOEs_KfjNQ-6" target="dCYjzD_zUEwOEs_KfjNQ-7" edge="1">
          <mxGeometry relative="1" as="geometry">
            <Array as="points">
              <mxPoint x="266" y="287" />
              <mxPoint x="266" y="100" />
            </Array>
          </mxGeometry>
        </mxCell>
        <mxCell id="dCYjzD_zUEwOEs_KfjNQ-9" style="edgeStyle=orthogonalEdgeStyle;rounded=0;orthogonalLoop=1;jettySize=auto;html=1;entryX=0;entryY=0.5;entryDx=0;entryDy=0;entryPerimeter=0;" parent="1dBTJliTiQG94aDny_BC-61" source="dCYjzD_zUEwOEs_KfjNQ-10" target="dCYjzD_zUEwOEs_KfjNQ-6" edge="1">
          <mxGeometry relative="1" as="geometry" />
        </mxCell>
        <mxCell id="dCYjzD_zUEwOEs_KfjNQ-10" value="Event&lt;br&gt;매일 일정 시각" style="sketch=0;outlineConnect=0;fontColor=#232F3E;gradientColor=none;fillColor=#B0084D;strokeColor=none;dashed=0;verticalLabelPosition=bottom;verticalAlign=top;align=center;html=1;fontSize=12;fontStyle=0;aspect=fixed;pointerEvents=1;shape=mxgraph.aws4.event_time_based;" parent="1dBTJliTiQG94aDny_BC-61" vertex="1">
          <mxGeometry x="17" y="248" width="78" height="78" as="geometry" />
        </mxCell>
        <mxCell id="dCYjzD_zUEwOEs_KfjNQ-11" value="Turn off Ec2 Instance" style="outlineConnect=0;fontColor=#232F3E;gradientColor=none;fillColor=#D05C17;strokeColor=none;dashed=0;verticalLabelPosition=bottom;verticalAlign=top;align=center;html=1;fontSize=12;fontStyle=0;aspect=fixed;pointerEvents=1;shape=mxgraph.aws4.lambda_function;labelBackgroundColor=#ffffff;spacingTop=7;" parent="1dBTJliTiQG94aDny_BC-61" vertex="1">
          <mxGeometry x="306" y="182" width="78" height="78" as="geometry" />
        </mxCell>
        <mxCell id="dCYjzD_zUEwOEs_KfjNQ-12" style="edgeStyle=orthogonalEdgeStyle;rounded=0;orthogonalLoop=1;jettySize=auto;html=1;" parent="1dBTJliTiQG94aDny_BC-61" source="dCYjzD_zUEwOEs_KfjNQ-6" target="dCYjzD_zUEwOEs_KfjNQ-11" edge="1">
          <mxGeometry relative="1" as="geometry">
            <Array as="points">
              <mxPoint x="266" y="287" />
              <mxPoint x="266" y="221" />
            </Array>
          </mxGeometry>
        </mxCell>
        <mxCell id="dCYjzD_zUEwOEs_KfjNQ-17" style="edgeStyle=orthogonalEdgeStyle;rounded=0;orthogonalLoop=1;jettySize=auto;html=1;" parent="1dBTJliTiQG94aDny_BC-61" source="dCYjzD_zUEwOEs_KfjNQ-7" edge="1">
          <mxGeometry relative="1" as="geometry">
            <mxPoint x="466" y="160.0256410256411" as="targetPoint" />
            <Array as="points">
              <mxPoint x="416" y="109" />
              <mxPoint x="416" y="160" />
            </Array>
          </mxGeometry>
        </mxCell>
        <mxCell id="dCYjzD_zUEwOEs_KfjNQ-18" style="edgeStyle=orthogonalEdgeStyle;rounded=0;orthogonalLoop=1;jettySize=auto;html=1;" parent="1dBTJliTiQG94aDny_BC-61" source="dCYjzD_zUEwOEs_KfjNQ-11" edge="1">
          <mxGeometry relative="1" as="geometry">
            <mxPoint x="466" y="190.0256410256411" as="targetPoint" />
            <Array as="points">
              <mxPoint x="416" y="231" />
              <mxPoint x="416" y="190" />
            </Array>
          </mxGeometry>
        </mxCell>
        <mxCell id="6hlHMrz7loX8VQzPJCg0-2" value="1" style="rounded=1;whiteSpace=wrap;html=1;fillColor=#007CBD;strokeColor=none;fontColor=#FFFFFF;fontStyle=1;fontSize=22;labelBackgroundColor=none;" parent="1dBTJliTiQG94aDny_BC-61" vertex="1">
          <mxGeometry x="6" y="210" width="40" height="38" as="geometry" />
        </mxCell>
        <mxCell id="6hlHMrz7loX8VQzPJCg0-4" value="3" style="rounded=1;whiteSpace=wrap;html=1;fillColor=#007CBD;strokeColor=none;fontColor=#FFFFFF;fontStyle=1;fontSize=22;labelBackgroundColor=none;" parent="1dBTJliTiQG94aDny_BC-61" vertex="1">
          <mxGeometry x="638" y="212" width="40" height="38" as="geometry" />
        </mxCell>
        <mxCell id="CtUr043-NP_PtcqY4t4r-5" value="Crawling &lt;b&gt;Invesing &lt;/b&gt;Data" style="sketch=0;points=[[0,0,0],[0.25,0,0],[0.5,0,0],[0.75,0,0],[1,0,0],[0,1,0],[0.25,1,0],[0.5,1,0],[0.75,1,0],[1,1,0],[0,0.25,0],[0,0.5,0],[0,0.75,0],[1,0.25,0],[1,0.5,0],[1,0.75,0]];outlineConnect=0;fontColor=#232F3E;gradientColor=#F78E04;gradientDirection=north;fillColor=#D05C17;strokeColor=#ffffff;dashed=0;verticalLabelPosition=bottom;verticalAlign=top;align=center;html=1;fontSize=12;fontStyle=0;aspect=fixed;shape=mxgraph.aws4.resourceIcon;resIcon=mxgraph.aws4.lambda;" parent="1dBTJliTiQG94aDny_BC-61" vertex="1">
          <mxGeometry x="306" y="316" width="78" height="78" as="geometry" />
        </mxCell>
        <mxCell id="CtUr043-NP_PtcqY4t4r-4" value="Crawling &lt;b&gt;Reuter &lt;/b&gt;Data" style="sketch=0;points=[[0,0,0],[0.25,0,0],[0.5,0,0],[0.75,0,0],[1,0,0],[0,1,0],[0.25,1,0],[0.5,1,0],[0.75,1,0],[1,1,0],[0,0.25,0],[0,0.5,0],[0,0.75,0],[1,0.25,0],[1,0.5,0],[1,0.75,0]];outlineConnect=0;fontColor=#232F3E;gradientColor=#F78E04;gradientDirection=north;fillColor=#D05C17;strokeColor=#ffffff;dashed=0;verticalLabelPosition=bottom;verticalAlign=top;align=center;html=1;fontSize=12;fontStyle=0;aspect=fixed;shape=mxgraph.aws4.resourceIcon;resIcon=mxgraph.aws4.ec2;" parent="1dBTJliTiQG94aDny_BC-61" vertex="1">
          <mxGeometry x="466" y="140" width="78" height="78" as="geometry" />
        </mxCell>
        <mxCell id="1dBTJliTiQG94aDny_BC-52" style="edgeStyle=orthogonalEdgeStyle;rounded=0;orthogonalLoop=1;jettySize=auto;html=1;exitX=1;exitY=0.5;exitDx=0;exitDy=0;exitPerimeter=0;" parent="1dBTJliTiQG94aDny_BC-19" source="1dBTJliTiQG94aDny_BC-4" target="1dBTJliTiQG94aDny_BC-46" edge="1">
          <mxGeometry relative="1" as="geometry">
            <Array as="points">
              <mxPoint x="876" y="318" />
              <mxPoint x="876" y="318" />
            </Array>
          </mxGeometry>
        </mxCell>
        <mxCell id="dCYjzD_zUEwOEs_KfjNQ-34" value="배포" style="swimlane;startSize=40;fontSize=16;" parent="1dBTJliTiQG94aDny_BC-19" vertex="1">
          <mxGeometry x="1110" y="30" width="149" height="550" as="geometry">
            <mxRectangle x="731" y="30" width="120" height="30" as="alternateBounds" />
          </mxGeometry>
        </mxCell>
        <mxCell id="gQa-60bPWqaGcjAUz3gM-6" value="AWS SageMaker&lt;br&gt;Deploy" style="sketch=0;points=[[0,0,0],[0.25,0,0],[0.5,0,0],[0.75,0,0],[1,0,0],[0,1,0],[0.25,1,0],[0.5,1,0],[0.75,1,0],[1,1,0],[0,0.25,0],[0,0.5,0],[0,0.75,0],[1,0.25,0],[1,0.5,0],[1,0.75,0]];outlineConnect=0;fontColor=#232F3E;gradientColor=#4AB29A;gradientDirection=north;fillColor=#116D5B;strokeColor=#ffffff;dashed=0;verticalLabelPosition=bottom;verticalAlign=top;align=center;html=1;fontSize=12;fontStyle=0;aspect=fixed;shape=mxgraph.aws4.resourceIcon;resIcon=mxgraph.aws4.sagemaker;" parent="dCYjzD_zUEwOEs_KfjNQ-34" vertex="1">
          <mxGeometry x="35.5" y="249" width="78" height="78" as="geometry" />
        </mxCell>
        <mxCell id="gQa-60bPWqaGcjAUz3gM-14" value="6" style="rounded=1;whiteSpace=wrap;html=1;fillColor=#007CBD;strokeColor=none;fontColor=#FFFFFF;fontStyle=1;fontSize=22;labelBackgroundColor=none;" parent="dCYjzD_zUEwOEs_KfjNQ-34" vertex="1">
          <mxGeometry x="2" y="212" width="40" height="38" as="geometry" />
        </mxCell>
        <mxCell id="gQa-60bPWqaGcjAUz3gM-3" value="시각화" style="swimlane;startSize=40;fontSize=16;" parent="1dBTJliTiQG94aDny_BC-19" vertex="1">
          <mxGeometry x="1259" y="30" width="151" height="550" as="geometry">
            <mxRectangle x="731" y="30" width="120" height="30" as="alternateBounds" />
          </mxGeometry>
        </mxCell>
        <mxCell id="gQa-60bPWqaGcjAUz3gM-5" value="AWS QuickSight&lt;br&gt;모델 예측 결과" style="sketch=0;points=[[0,0,0],[0.25,0,0],[0.5,0,0],[0.75,0,0],[1,0,0],[0,1,0],[0.25,1,0],[0.5,1,0],[0.75,1,0],[1,1,0],[0,0.25,0],[0,0.5,0],[0,0.75,0],[1,0.25,0],[1,0.5,0],[1,0.75,0]];outlineConnect=0;fontColor=#232F3E;gradientColor=#945DF2;gradientDirection=north;fillColor=#5A30B5;strokeColor=#ffffff;dashed=0;verticalLabelPosition=bottom;verticalAlign=top;align=center;html=1;fontSize=12;fontStyle=0;aspect=fixed;shape=mxgraph.aws4.resourceIcon;resIcon=mxgraph.aws4.quicksight;" parent="gQa-60bPWqaGcjAUz3gM-3" vertex="1">
          <mxGeometry x="35.5" y="330" width="78" height="78" as="geometry" />
        </mxCell>
        <mxCell id="gQa-60bPWqaGcjAUz3gM-15" value="7" style="rounded=1;whiteSpace=wrap;html=1;fillColor=#007CBD;strokeColor=none;fontColor=#FFFFFF;fontStyle=1;fontSize=22;labelBackgroundColor=none;" parent="gQa-60bPWqaGcjAUz3gM-3" vertex="1">
          <mxGeometry x="1" y="92" width="40" height="38" as="geometry" />
        </mxCell>
        <mxCell id="gQa-60bPWqaGcjAUz3gM-10" value="AWS S3" style="sketch=0;points=[[0,0,0],[0.25,0,0],[0.5,0,0],[0.75,0,0],[1,0,0],[0,1,0],[0.25,1,0],[0.5,1,0],[0.75,1,0],[1,1,0],[0,0.25,0],[0,0.5,0],[0,0.75,0],[1,0.25,0],[1,0.5,0],[1,0.75,0]];outlineConnect=0;fontColor=#232F3E;gradientColor=#60A337;gradientDirection=north;fillColor=#277116;strokeColor=#ffffff;dashed=0;verticalLabelPosition=bottom;verticalAlign=top;align=center;html=1;fontSize=12;fontStyle=0;aspect=fixed;shape=mxgraph.aws4.resourceIcon;resIcon=mxgraph.aws4.s3;" parent="gQa-60bPWqaGcjAUz3gM-3" vertex="1">
          <mxGeometry x="35.5" y="130" width="78" height="78" as="geometry" />
        </mxCell>
        <mxCell id="gQa-60bPWqaGcjAUz3gM-22" value="" style="edgeStyle=orthogonalEdgeStyle;rounded=0;orthogonalLoop=1;jettySize=auto;html=1;" parent="gQa-60bPWqaGcjAUz3gM-3" edge="1">
          <mxGeometry x="0.1246" y="9" relative="1" as="geometry">
            <mxPoint x="74.51282051282055" y="228" as="sourcePoint" />
            <mxPoint x="74" y="330" as="targetPoint" />
            <Array as="points">
              <mxPoint x="75" y="230" />
              <mxPoint x="74" y="230" />
            </Array>
            <mxPoint x="-6" y="-9" as="offset" />
          </mxGeometry>
        </mxCell>
        <mxCell id="gQa-60bPWqaGcjAUz3gM-7" style="edgeStyle=orthogonalEdgeStyle;rounded=0;orthogonalLoop=1;jettySize=auto;html=1;entryX=0;entryY=0.5;entryDx=0;entryDy=0;entryPerimeter=0;fontSize=16;" parent="1dBTJliTiQG94aDny_BC-19" source="1dBTJliTiQG94aDny_BC-58" target="gQa-60bPWqaGcjAUz3gM-6" edge="1">
          <mxGeometry relative="1" as="geometry">
            <Array as="points">
              <mxPoint x="1126" y="509" />
              <mxPoint x="1126" y="318" />
            </Array>
          </mxGeometry>
        </mxCell>
        <mxCell id="gQa-60bPWqaGcjAUz3gM-8" value="AI&amp;nbsp;&lt;br style=&quot;font-size: 11px;&quot;&gt;Model" style="edgeLabel;html=1;align=center;verticalAlign=middle;resizable=0;points=[];fontSize=11;" parent="gQa-60bPWqaGcjAUz3gM-7" vertex="1" connectable="0">
          <mxGeometry x="0.1056" y="-2" relative="1" as="geometry">
            <mxPoint x="3" y="-7" as="offset" />
          </mxGeometry>
        </mxCell>
        <mxCell id="gQa-60bPWqaGcjAUz3gM-17" style="edgeStyle=orthogonalEdgeStyle;rounded=0;orthogonalLoop=1;jettySize=auto;html=1;fontSize=11;" parent="1dBTJliTiQG94aDny_BC-19" source="dCYjzD_zUEwOEs_KfjNQ-24" target="gQa-60bPWqaGcjAUz3gM-10" edge="1">
          <mxGeometry relative="1" as="geometry" />
        </mxCell>
        <mxCell id="f5O2wn5T1wVpe3JOlUNK-1" value="Refined Historical Data" style="edgeLabel;html=1;align=center;verticalAlign=middle;resizable=0;points=[];" parent="gQa-60bPWqaGcjAUz3gM-17" vertex="1" connectable="0">
          <mxGeometry x="0.1339" y="-3" relative="1" as="geometry">
            <mxPoint x="-6" y="-2" as="offset" />
          </mxGeometry>
        </mxCell>
        <mxCell id="gQa-60bPWqaGcjAUz3gM-18" style="edgeStyle=orthogonalEdgeStyle;rounded=0;orthogonalLoop=1;jettySize=auto;html=1;entryX=0;entryY=0.75;entryDx=0;entryDy=0;entryPerimeter=0;fontSize=11;" parent="1dBTJliTiQG94aDny_BC-19" source="gQa-60bPWqaGcjAUz3gM-6" target="gQa-60bPWqaGcjAUz3gM-10" edge="1">
          <mxGeometry relative="1" as="geometry">
            <Array as="points">
              <mxPoint x="1276" y="318" />
              <mxPoint x="1276" y="219" />
            </Array>
          </mxGeometry>
        </mxCell>
        <mxCell id="f5O2wn5T1wVpe3JOlUNK-2" value="Forecast&lt;br&gt;Data" style="edgeLabel;html=1;align=center;verticalAlign=middle;resizable=0;points=[];" parent="gQa-60bPWqaGcjAUz3gM-18" vertex="1" connectable="0">
          <mxGeometry x="-0.5659" y="1" relative="1" as="geometry">
            <mxPoint as="offset" />
          </mxGeometry>
        </mxCell>
        <mxCell id="CtUr043-NP_PtcqY4t4r-14" style="edgeStyle=orthogonalEdgeStyle;rounded=0;orthogonalLoop=1;jettySize=auto;html=1;entryX=0;entryY=0.5;entryDx=0;entryDy=0;entryPerimeter=0;fontSize=11;" parent="1dBTJliTiQG94aDny_BC-19" source="CtUr043-NP_PtcqY4t4r-5" target="1dBTJliTiQG94aDny_BC-4" edge="1">
          <mxGeometry relative="1" as="geometry">
            <Array as="points">
              <mxPoint x="587" y="385" />
              <mxPoint x="587" y="318" />
            </Array>
          </mxGeometry>
        </mxCell>
        <mxCell id="CtUr043-NP_PtcqY4t4r-15" style="edgeStyle=orthogonalEdgeStyle;rounded=0;orthogonalLoop=1;jettySize=auto;html=1;entryX=0;entryY=0.5;entryDx=0;entryDy=0;entryPerimeter=0;fontSize=11;" parent="1dBTJliTiQG94aDny_BC-19" source="CtUr043-NP_PtcqY4t4r-6" target="1dBTJliTiQG94aDny_BC-4" edge="1">
          <mxGeometry relative="1" as="geometry">
            <Array as="points">
              <mxPoint x="587" y="499" />
              <mxPoint x="587" y="318" />
            </Array>
          </mxGeometry>
        </mxCell>
        <mxCell id="CtUr043-NP_PtcqY4t4r-18" style="edgeStyle=orthogonalEdgeStyle;rounded=0;orthogonalLoop=1;jettySize=auto;html=1;entryX=0;entryY=0.5;entryDx=0;entryDy=0;entryPerimeter=0;fontSize=11;" parent="1dBTJliTiQG94aDny_BC-19" source="CtUr043-NP_PtcqY4t4r-4" target="1dBTJliTiQG94aDny_BC-4" edge="1">
          <mxGeometry relative="1" as="geometry">
            <Array as="points">
              <mxPoint x="587" y="209" />
              <mxPoint x="587" y="318" />
            </Array>
          </mxGeometry>
        </mxCell>
        <mxCell id="6hlHMrz7loX8VQzPJCg0-1" value="Update: 2022-07-15" style="text;html=1;resizable=0;points=[];autosize=1;align=left;verticalAlign=top;spacingTop=-4;fontSize=16;labelBackgroundColor=none;" parent="1" vertex="1">
          <mxGeometry x="330" y="76.5" width="170" height="30" as="geometry" />
        </mxCell>
        <mxCell id="CtUr043-NP_PtcqY4t4r-3" value="" style="group" parent="1" vertex="1" connectable="0">
          <mxGeometry x="1480" y="160" width="555.5" height="550" as="geometry" />
        </mxCell>
        <mxCell id="Gu6WN1yIWV0_MbR31gMe-1" value="" style="rounded=0;whiteSpace=wrap;html=1;fillColor=#EAEDED;fontSize=22;fontColor=#FFFFFF;strokeColor=none;labelBackgroundColor=none;" parent="CtUr043-NP_PtcqY4t4r-3" vertex="1">
          <mxGeometry width="555.5" height="550" as="geometry" />
        </mxCell>
        <mxCell id="-QjtrjUzRDEMRZ5MF8oH-36" value="1" style="rounded=1;whiteSpace=wrap;html=1;fillColor=#007CBD;strokeColor=none;fontColor=#FFFFFF;fontStyle=1;fontSize=22;labelBackgroundColor=none;" parent="CtUr043-NP_PtcqY4t4r-3" vertex="1">
          <mxGeometry x="17" y="12.382739212007504" width="40" height="39.21200750469043" as="geometry" />
        </mxCell>
        <mxCell id="-QjtrjUzRDEMRZ5MF8oH-37" value="2" style="rounded=1;whiteSpace=wrap;html=1;fillColor=#007CBD;strokeColor=none;fontColor=#FFFFFF;fontStyle=1;fontSize=22;labelBackgroundColor=none;" parent="CtUr043-NP_PtcqY4t4r-3" vertex="1">
          <mxGeometry x="17" y="122.57607879924953" width="40" height="39.21200750469043" as="geometry" />
        </mxCell>
        <mxCell id="-QjtrjUzRDEMRZ5MF8oH-38" value="3" style="rounded=1;whiteSpace=wrap;html=1;fillColor=#007CBD;strokeColor=none;fontColor=#FFFFFF;fontStyle=1;fontSize=22;labelBackgroundColor=none;" parent="CtUr043-NP_PtcqY4t4r-3" vertex="1">
          <mxGeometry x="17" y="197" width="40" height="39.21200750469043" as="geometry" />
        </mxCell>
        <mxCell id="-QjtrjUzRDEMRZ5MF8oH-39" value="4" style="rounded=1;whiteSpace=wrap;html=1;fillColor=#007CBD;strokeColor=none;fontColor=#FFFFFF;fontStyle=1;fontSize=22;labelBackgroundColor=none;" parent="CtUr043-NP_PtcqY4t4r-3" vertex="1">
          <mxGeometry x="17" y="271" width="40" height="39.21200750469043" as="geometry" />
        </mxCell>
        <mxCell id="-QjtrjUzRDEMRZ5MF8oH-40" value="5" style="rounded=1;whiteSpace=wrap;html=1;fillColor=#007CBD;strokeColor=none;fontColor=#FFFFFF;fontStyle=1;fontSize=22;labelBackgroundColor=none;" parent="CtUr043-NP_PtcqY4t4r-3" vertex="1">
          <mxGeometry x="17" y="345" width="40" height="39.21200750469043" as="geometry" />
        </mxCell>
        <mxCell id="-QjtrjUzRDEMRZ5MF8oH-41" value="6" style="rounded=1;whiteSpace=wrap;html=1;fillColor=#007CBD;strokeColor=none;fontColor=#FFFFFF;fontStyle=1;fontSize=22;labelBackgroundColor=none;" parent="CtUr043-NP_PtcqY4t4r-3" vertex="1">
          <mxGeometry x="17" y="419" width="40" height="39.21200750469043" as="geometry" />
        </mxCell>
        <mxCell id="-QjtrjUzRDEMRZ5MF8oH-42" value="7" style="rounded=1;whiteSpace=wrap;html=1;fillColor=#007CBD;strokeColor=none;fontColor=#FFFFFF;fontStyle=1;fontSize=22;labelBackgroundColor=none;" parent="CtUr043-NP_PtcqY4t4r-3" vertex="1">
          <mxGeometry x="17" y="493.61341463414635" width="40" height="39.21200750469043" as="geometry" />
        </mxCell>
        <mxCell id="SCVMTBWpLvtzJIhz15lM-6" value="EventBridge를 통해&lt;span&gt;&amp;nbsp;매일 오후 6시 4개의 Lambda 실행하는 스케줄링 수행&lt;br&gt;&lt;ul&gt;&lt;li&gt;&lt;span&gt;1st Lambda: 18:00에 윈도우 EC2 서버를 켜는 일 수행&lt;/span&gt;&lt;/li&gt;&lt;li&gt;2nd Lambda: 18:15에 윈도우 EC2 서버를 종료하는 일 수행&lt;/li&gt;&lt;li&gt;3rd Lambda: Investing 주가 데이터 수집 수행&lt;/li&gt;&lt;li&gt;4th Lambda: WeatherOnlineAPI를 통한 데이터 수집 수행&lt;/li&gt;&lt;/ul&gt;&lt;/span&gt;" style="text;html=1;align=left;verticalAlign=top;spacingTop=-4;fontSize=14;labelBackgroundColor=none;whiteSpace=wrap;" parent="CtUr043-NP_PtcqY4t4r-3" vertex="1">
          <mxGeometry x="70" y="12.38" width="480" height="101.13" as="geometry" />
        </mxCell>
        <mxCell id="SCVMTBWpLvtzJIhz15lM-7" value="윈도우 EC2를 통해 Eikon 프로그램 실행 후 ReuterAPI를 통한 데이터 수집&lt;br&gt;&lt;font style=&quot;font-size: 13px;&quot;&gt;※&amp;nbsp;&lt;b&gt;Eikon 프로그램&lt;/b&gt;:&lt;span style=&quot;background-color: initial;&quot;&gt;&amp;nbsp;1) VPN역할 수행 2)&lt;/span&gt;&lt;span style=&quot;background-color: initial;&quot;&gt;&amp;nbsp;권장사양: t3a.large(RAM 8GB)&lt;/span&gt;&lt;span style=&quot;background-color: initial;&quot;&gt;&lt;br&gt;&lt;/span&gt;&lt;/font&gt;" style="text;html=1;align=left;verticalAlign=top;spacingTop=-4;fontSize=14;labelBackgroundColor=none;whiteSpace=wrap;" parent="CtUr043-NP_PtcqY4t4r-3" vertex="1">
          <mxGeometry x="69" y="120" width="486.5" height="40" as="geometry" />
        </mxCell>
        <mxCell id="SCVMTBWpLvtzJIhz15lM-9" value="&lt;span&gt;AI 예측 모델 생성을 위한 주가, 날씨 데이터 세트를 결합한&amp;nbsp;&lt;/span&gt;Dataset 생성&lt;br&gt;주가 데이터의 경우 결측치를 상호보완하여 1개의 Dataset&amp;nbsp;&amp;nbsp;생성" style="text;html=1;align=left;verticalAlign=top;spacingTop=-4;fontSize=14;labelBackgroundColor=none;whiteSpace=wrap;" parent="CtUr043-NP_PtcqY4t4r-3" vertex="1">
          <mxGeometry x="71.75" y="197" width="481" height="41.28" as="geometry" />
        </mxCell>
        <mxCell id="SCVMTBWpLvtzJIhz15lM-10" value="사용자에게 보여줄 시각화와 Data Drift를 확인 하기위해 Athena 사용하여 데이터 추출" style="text;html=1;align=left;verticalAlign=top;spacingTop=-4;fontSize=14;labelBackgroundColor=none;whiteSpace=wrap;" parent="CtUr043-NP_PtcqY4t4r-3" vertex="1">
          <mxGeometry x="70" y="270.99679174484055" width="450" height="40.75984990619137" as="geometry" />
        </mxCell>
        <mxCell id="SCVMTBWpLvtzJIhz15lM-11" value="S3내 Dataset을 SageMaker input으로&amp;nbsp;넣어 배치 추론을 수행한다.&lt;br&gt;이때, 컴퓨팅 인스턴스는 활성화 되고 추론작업이 끝나면 자동으로 종료된다. 결과값 및 Model Checkpoint는 AWS S3에 저장된다." style="text;html=1;align=left;verticalAlign=top;spacingTop=-4;fontSize=14;labelBackgroundColor=none;whiteSpace=wrap;" parent="CtUr043-NP_PtcqY4t4r-3" vertex="1">
          <mxGeometry x="71.75" y="344.9951219512195" width="449" height="40.75984990619137" as="geometry" />
        </mxCell>
        <mxCell id="SCVMTBWpLvtzJIhz15lM-13" value="&lt;span&gt;Forecasting Result Data와 Historical Data를 S3에 담고 이를 User에게 QuickSight를 통한 시각화 수행하며, MLOps Engineer는 Model drift과 Data drift를 모니터링한다.&lt;/span&gt;" style="text;html=1;align=left;verticalAlign=top;spacingTop=-4;fontSize=14;labelBackgroundColor=none;whiteSpace=wrap;" parent="CtUr043-NP_PtcqY4t4r-3" vertex="1">
          <mxGeometry x="70" y="492.8417823639774" width="449" height="40.75984990619137" as="geometry" />
        </mxCell>
        <mxCell id="CtUr043-NP_PtcqY4t4r-2" value="여러 모델 중 사용자가 설정한 모델 선정 Metric을 통해 모델별 Metric 결과와 최종선정된 모델 예측 결과를 S3로 보냄" style="text;html=1;align=left;verticalAlign=top;spacingTop=-4;fontSize=14;labelBackgroundColor=none;whiteSpace=wrap;" parent="CtUr043-NP_PtcqY4t4r-3" vertex="1">
          <mxGeometry x="71.75" y="419.00318949343335" width="449" height="40.75984990619137" as="geometry" />
        </mxCell>
      </root>
    </mxGraphModel>
  </diagram>
  <diagram id="ji4KComlpWZDG8OQrK-k" name="To-Be">
    <mxGraphModel dx="2188" dy="1172" grid="1" gridSize="10" guides="1" tooltips="1" connect="1" arrows="1" fold="1" page="1" pageScale="1" pageWidth="827" pageHeight="1169" math="0" shadow="0">
      <root>
        <mxCell id="0" />
        <mxCell id="1" parent="0" />
        <mxCell id="vA_3_BBL_oBBo2qa8ZQJ-52" value="원자재(팜유) 가격 예측 MLOps&amp;nbsp;AWS&amp;nbsp;Architecture" style="text;html=1;resizable=0;points=[];autosize=1;align=left;verticalAlign=top;spacingTop=-4;fontSize=30;fontStyle=1;labelBackgroundColor=none;imageWidth=30;" parent="1" vertex="1">
          <mxGeometry x="46.5" y="36.5" width="700" height="40" as="geometry" />
        </mxCell>
        <mxCell id="vA_3_BBL_oBBo2qa8ZQJ-53" value="Author: 디지털인프라팀 정광진" style="text;html=1;resizable=0;points=[];autosize=1;align=left;verticalAlign=top;spacingTop=-4;fontSize=16;labelBackgroundColor=none;" parent="1" vertex="1">
          <mxGeometry x="46.5" y="86.5" width="240" height="30" as="geometry" />
        </mxCell>
        <mxCell id="vA_3_BBL_oBBo2qa8ZQJ-54" value="" style="line;strokeWidth=2;html=1;fontSize=14;labelBackgroundColor=none;" parent="1" vertex="1">
          <mxGeometry x="42.5" y="111.5" width="1060" height="10" as="geometry" />
        </mxCell>
        <mxCell id="vA_3_BBL_oBBo2qa8ZQJ-55" value="AWS Cloud" style="points=[[0,0],[0.25,0],[0.5,0],[0.75,0],[1,0],[1,0.25],[1,0.5],[1,0.75],[1,1],[0.75,1],[0.5,1],[0.25,1],[0,1],[0,0.75],[0,0.5],[0,0.25]];outlineConnect=0;gradientColor=none;html=1;whiteSpace=wrap;fontSize=12;fontStyle=0;shape=mxgraph.aws4.group;grIcon=mxgraph.aws4.group_aws_cloud_alt;strokeColor=#232F3E;fillColor=none;verticalAlign=top;align=left;spacingLeft=30;fontColor=#232F3E;dashed=0;labelBackgroundColor=none;container=1;pointerEvents=0;collapsible=0;recursiveResize=0;" parent="1" vertex="1">
          <mxGeometry x="44" y="160" width="1730" height="580" as="geometry" />
        </mxCell>
        <mxCell id="vA_3_BBL_oBBo2qa8ZQJ-56" value="데이터 정제" style="swimlane;startSize=40;fontSize=16;" parent="vA_3_BBL_oBBo2qa8ZQJ-55" vertex="1">
          <mxGeometry x="816" y="30" width="180" height="550" as="geometry">
            <mxRectangle x="731" y="30" width="120" height="30" as="alternateBounds" />
          </mxGeometry>
        </mxCell>
        <mxCell id="vA_3_BBL_oBBo2qa8ZQJ-58" value="4" style="rounded=1;whiteSpace=wrap;html=1;fillColor=#007CBD;strokeColor=none;fontColor=#FFFFFF;fontStyle=1;fontSize=22;labelBackgroundColor=none;" parent="vA_3_BBL_oBBo2qa8ZQJ-56" vertex="1">
          <mxGeometry x="17" y="210" width="40" height="38" as="geometry" />
        </mxCell>
        <mxCell id="lYALslR_YEQzHMSZbE-U-2" value="AWS SageMaker&lt;br&gt;Processing" style="sketch=0;points=[[0,0,0],[0.25,0,0],[0.5,0,0],[0.75,0,0],[1,0,0],[0,1,0],[0.25,1,0],[0.5,1,0],[0.75,1,0],[1,1,0],[0,0.25,0],[0,0.5,0],[0,0.75,0],[1,0.25,0],[1,0.5,0],[1,0.75,0]];outlineConnect=0;fontColor=#232F3E;gradientColor=#4AB29A;gradientDirection=north;fillColor=#116D5B;strokeColor=#ffffff;dashed=0;verticalLabelPosition=bottom;verticalAlign=top;align=center;html=1;fontSize=12;fontStyle=0;aspect=fixed;shape=mxgraph.aws4.resourceIcon;resIcon=mxgraph.aws4.sagemaker;" parent="vA_3_BBL_oBBo2qa8ZQJ-56" vertex="1">
          <mxGeometry x="50" y="248" width="78" height="78" as="geometry" />
        </mxCell>
        <mxCell id="lYALslR_YEQzHMSZbE-U-4" value="AWS S3&lt;br&gt;(golden-data)" style="sketch=0;points=[[0,0,0],[0.25,0,0],[0.5,0,0],[0.75,0,0],[1,0,0],[0,1,0],[0.25,1,0],[0.5,1,0],[0.75,1,0],[1,1,0],[0,0.25,0],[0,0.5,0],[0,0.75,0],[1,0.25,0],[1,0.5,0],[1,0.75,0]];outlineConnect=0;fontColor=#232F3E;gradientColor=#60A337;gradientDirection=north;fillColor=#277116;strokeColor=#ffffff;dashed=0;verticalLabelPosition=bottom;verticalAlign=top;align=center;html=1;fontSize=12;fontStyle=0;aspect=fixed;shape=mxgraph.aws4.resourceIcon;resIcon=mxgraph.aws4.s3;" parent="vA_3_BBL_oBBo2qa8ZQJ-56" vertex="1">
          <mxGeometry x="51" y="60" width="78" height="78" as="geometry" />
        </mxCell>
        <mxCell id="vA_3_BBL_oBBo2qa8ZQJ-61" value="모델링" style="swimlane;startSize=40;fontSize=16;" parent="vA_3_BBL_oBBo2qa8ZQJ-55" vertex="1">
          <mxGeometry x="996" y="30" width="180" height="550" as="geometry">
            <mxRectangle x="370" y="1170" width="120" height="30" as="alternateBounds" />
          </mxGeometry>
        </mxCell>
        <mxCell id="vA_3_BBL_oBBo2qa8ZQJ-64" value="5" style="rounded=1;whiteSpace=wrap;html=1;fillColor=#007CBD;strokeColor=none;fontColor=#FFFFFF;fontStyle=1;fontSize=22;labelBackgroundColor=none;" parent="vA_3_BBL_oBBo2qa8ZQJ-61" vertex="1">
          <mxGeometry x="17" y="210" width="40" height="38" as="geometry" />
        </mxCell>
        <mxCell id="GLimc1rp4X13bFgC48Ts-1" value="AWS SageMaker&lt;br&gt;Train" style="sketch=0;outlineConnect=0;fontColor=#232F3E;gradientColor=none;fillColor=#067F68;strokeColor=none;dashed=0;verticalLabelPosition=bottom;verticalAlign=top;align=center;html=1;fontSize=12;fontStyle=0;pointerEvents=1;shape=mxgraph.aws4.sagemaker_train;" parent="vA_3_BBL_oBBo2qa8ZQJ-61" vertex="1">
          <mxGeometry x="51" y="252" width="78" height="78" as="geometry" />
        </mxCell>
        <mxCell id="lYALslR_YEQzHMSZbE-U-9" value="AWS S3&lt;br&gt;(trained-model)" style="sketch=0;points=[[0,0,0],[0.25,0,0],[0.5,0,0],[0.75,0,0],[1,0,0],[0,1,0],[0.25,1,0],[0.5,1,0],[0.75,1,0],[1,1,0],[0,0.25,0],[0,0.5,0],[0,0.75,0],[1,0.25,0],[1,0.5,0],[1,0.75,0]];outlineConnect=0;fontColor=#232F3E;gradientColor=#60A337;gradientDirection=north;fillColor=#277116;strokeColor=#ffffff;dashed=0;verticalLabelPosition=bottom;verticalAlign=top;align=center;html=1;fontSize=12;fontStyle=0;aspect=fixed;shape=mxgraph.aws4.resourceIcon;resIcon=mxgraph.aws4.s3;" parent="vA_3_BBL_oBBo2qa8ZQJ-61" vertex="1">
          <mxGeometry x="46" y="60" width="78" height="78" as="geometry" />
        </mxCell>
        <mxCell id="vA_3_BBL_oBBo2qa8ZQJ-85" value="모델 검증" style="swimlane;startSize=40;fontSize=16;" parent="vA_3_BBL_oBBo2qa8ZQJ-55" vertex="1">
          <mxGeometry x="1176" y="30" width="320" height="550" as="geometry">
            <mxRectangle x="731" y="30" width="120" height="30" as="alternateBounds" />
          </mxGeometry>
        </mxCell>
        <mxCell id="b1OWqp67rQSmJ0K2vqaw-2" style="edgeStyle=orthogonalEdgeStyle;rounded=0;orthogonalLoop=1;jettySize=auto;html=1;" parent="vA_3_BBL_oBBo2qa8ZQJ-85" source="lYALslR_YEQzHMSZbE-U-16" target="lYALslR_YEQzHMSZbE-U-11" edge="1">
          <mxGeometry relative="1" as="geometry" />
        </mxCell>
        <mxCell id="T91nCbCrqW1TpRlBHmb8-2" value="" style="rounded=0;whiteSpace=wrap;html=1;fillColor=none;" parent="vA_3_BBL_oBBo2qa8ZQJ-85" vertex="1">
          <mxGeometry x="30" y="217" width="260" height="140" as="geometry" />
        </mxCell>
        <mxCell id="lYALslR_YEQzHMSZbE-U-16" value="AWS SageMaker&lt;br&gt;Processing" style="sketch=0;points=[[0,0,0],[0.25,0,0],[0.5,0,0],[0.75,0,0],[1,0,0],[0,1,0],[0.25,1,0],[0.5,1,0],[0.75,1,0],[1,1,0],[0,0.25,0],[0,0.5,0],[0,0.75,0],[1,0.25,0],[1,0.5,0],[1,0.75,0]];outlineConnect=0;fontColor=#232F3E;gradientColor=#4AB29A;gradientDirection=north;fillColor=#116D5B;strokeColor=#ffffff;dashed=0;verticalLabelPosition=bottom;verticalAlign=top;align=center;html=1;fontSize=12;fontStyle=0;aspect=fixed;shape=mxgraph.aws4.resourceIcon;resIcon=mxgraph.aws4.sagemaker;" parent="vA_3_BBL_oBBo2qa8ZQJ-85" vertex="1">
          <mxGeometry x="51" y="238" width="78" height="78" as="geometry" />
        </mxCell>
        <mxCell id="lYALslR_YEQzHMSZbE-U-11" value="AWS SageMaker &lt;br&gt;Model Registry" style="sketch=0;outlineConnect=0;fontColor=#232F3E;gradientColor=none;fillColor=#067F68;strokeColor=none;dashed=0;verticalLabelPosition=bottom;verticalAlign=top;align=center;html=1;fontSize=12;fontStyle=0;aspect=fixed;pointerEvents=1;shape=mxgraph.aws4.sagemaker_model;" parent="vA_3_BBL_oBBo2qa8ZQJ-85" vertex="1">
          <mxGeometry x="197" y="238" width="78" height="78" as="geometry" />
        </mxCell>
        <mxCell id="vA_3_BBL_oBBo2qa8ZQJ-87" value="6" style="rounded=1;whiteSpace=wrap;html=1;fillColor=#007CBD;strokeColor=none;fontColor=#FFFFFF;fontStyle=1;fontSize=22;labelBackgroundColor=none;" parent="vA_3_BBL_oBBo2qa8ZQJ-85" vertex="1">
          <mxGeometry x="17" y="210" width="40" height="38" as="geometry" />
        </mxCell>
        <mxCell id="T91nCbCrqW1TpRlBHmb8-4" value="" style="shape=cross;whiteSpace=wrap;html=1;" parent="vA_3_BBL_oBBo2qa8ZQJ-85" vertex="1">
          <mxGeometry x="146.5" y="263.5" width="27" height="27" as="geometry" />
        </mxCell>
        <mxCell id="4Rwo0V2P_AXXosE0XzBM-2" value="모델 배포" style="swimlane;startSize=40;fontSize=16;" parent="vA_3_BBL_oBBo2qa8ZQJ-55" vertex="1">
          <mxGeometry x="1496" y="30" width="234" height="550" as="geometry">
            <mxRectangle x="370" y="1170" width="120" height="30" as="alternateBounds" />
          </mxGeometry>
        </mxCell>
        <mxCell id="lYALslR_YEQzHMSZbE-U-24" value="AWS QuickSight" style="sketch=0;points=[[0,0,0],[0.25,0,0],[0.5,0,0],[0.75,0,0],[1,0,0],[0,1,0],[0.25,1,0],[0.5,1,0],[0.75,1,0],[1,1,0],[0,0.25,0],[0,0.5,0],[0,0.75,0],[1,0.25,0],[1,0.5,0],[1,0.75,0]];outlineConnect=0;fontColor=#232F3E;gradientColor=#945DF2;gradientDirection=north;fillColor=#5A30B5;strokeColor=#ffffff;dashed=0;verticalLabelPosition=bottom;verticalAlign=top;align=center;html=1;fontSize=12;fontStyle=0;aspect=fixed;shape=mxgraph.aws4.resourceIcon;resIcon=mxgraph.aws4.quicksight;" parent="4Rwo0V2P_AXXosE0XzBM-2" vertex="1">
          <mxGeometry x="20" y="248" width="78" height="78" as="geometry" />
        </mxCell>
        <mxCell id="b1OWqp67rQSmJ0K2vqaw-1" value="AWS SageMaker&lt;br&gt;Processing" style="sketch=0;points=[[0,0,0],[0.25,0,0],[0.5,0,0],[0.75,0,0],[1,0,0],[0,1,0],[0.25,1,0],[0.5,1,0],[0.75,1,0],[1,1,0],[0,0.25,0],[0,0.5,0],[0,0.75,0],[1,0.25,0],[1,0.5,0],[1,0.75,0]];outlineConnect=0;fontColor=#232F3E;gradientColor=#4AB29A;gradientDirection=north;fillColor=#116D5B;strokeColor=#ffffff;dashed=0;verticalLabelPosition=bottom;verticalAlign=top;align=center;html=1;fontSize=12;fontStyle=0;aspect=fixed;shape=mxgraph.aws4.resourceIcon;resIcon=mxgraph.aws4.sagemaker;" parent="4Rwo0V2P_AXXosE0XzBM-2" vertex="1">
          <mxGeometry x="137" y="248" width="78" height="78" as="geometry" />
        </mxCell>
        <mxCell id="b1OWqp67rQSmJ0K2vqaw-13" value="7" style="rounded=1;whiteSpace=wrap;html=1;fillColor=#007CBD;strokeColor=none;fontColor=#FFFFFF;fontStyle=1;fontSize=22;labelBackgroundColor=none;" parent="4Rwo0V2P_AXXosE0XzBM-2" vertex="1">
          <mxGeometry x="1" y="210" width="40" height="38" as="geometry" />
        </mxCell>
        <mxCell id="b1OWqp67rQSmJ0K2vqaw-17" style="edgeStyle=orthogonalEdgeStyle;rounded=0;orthogonalLoop=1;jettySize=auto;html=1;" parent="4Rwo0V2P_AXXosE0XzBM-2" source="fahZCgwW7RxsYPd1qHfA-11" target="jg8Bvo_pfT-N16XevXx9-1" edge="1">
          <mxGeometry relative="1" as="geometry">
            <mxPoint x="140" y="130" as="targetPoint" />
          </mxGeometry>
        </mxCell>
        <mxCell id="fahZCgwW7RxsYPd1qHfA-11" value="Managers" style="outlineConnect=0;fontColor=#232F3E;gradientColor=none;fillColor=#232F3E;strokeColor=none;dashed=0;verticalLabelPosition=bottom;verticalAlign=top;align=center;html=1;fontSize=12;fontStyle=0;aspect=fixed;pointerEvents=1;shape=mxgraph.aws4.users;labelBackgroundColor=none;" parent="4Rwo0V2P_AXXosE0XzBM-2" vertex="1">
          <mxGeometry x="21" y="90" width="78" height="78" as="geometry" />
        </mxCell>
        <mxCell id="vWnbimc3bh8XE-XyaJVr-1" style="edgeStyle=orthogonalEdgeStyle;rounded=0;orthogonalLoop=1;jettySize=auto;html=1;" parent="4Rwo0V2P_AXXosE0XzBM-2" edge="1">
          <mxGeometry relative="1" as="geometry">
            <mxPoint x="180" y="360" as="sourcePoint" />
            <mxPoint x="60" y="350" as="targetPoint" />
            <Array as="points">
              <mxPoint x="176" y="410" />
              <mxPoint x="60" y="410" />
              <mxPoint x="60" y="375" />
            </Array>
          </mxGeometry>
        </mxCell>
        <mxCell id="jg8Bvo_pfT-N16XevXx9-2" value="Prediction.py" style="edgeStyle=orthogonalEdgeStyle;rounded=0;orthogonalLoop=1;jettySize=auto;html=1;entryX=0.5;entryY=0;entryDx=0;entryDy=0;entryPerimeter=0;" parent="4Rwo0V2P_AXXosE0XzBM-2" edge="1">
          <mxGeometry relative="1" as="geometry">
            <mxPoint x="176" y="196" as="sourcePoint" />
            <mxPoint x="176.00000000000045" y="244" as="targetPoint" />
          </mxGeometry>
        </mxCell>
        <mxCell id="jg8Bvo_pfT-N16XevXx9-1" value="AWS EventBridge" style="sketch=0;points=[[0,0,0],[0.25,0,0],[0.5,0,0],[0.75,0,0],[1,0,0],[0,1,0],[0.25,1,0],[0.5,1,0],[0.75,1,0],[1,1,0],[0,0.25,0],[0,0.5,0],[0,0.75,0],[1,0.25,0],[1,0.5,0],[1,0.75,0]];outlineConnect=0;fontColor=#232F3E;gradientColor=#FF4F8B;gradientDirection=north;fillColor=#BC1356;strokeColor=#ffffff;dashed=0;verticalLabelPosition=bottom;verticalAlign=top;align=center;html=1;fontSize=12;fontStyle=0;aspect=fixed;shape=mxgraph.aws4.resourceIcon;resIcon=mxgraph.aws4.eventbridge;" parent="4Rwo0V2P_AXXosE0XzBM-2" vertex="1">
          <mxGeometry x="138" y="90" width="78" height="78" as="geometry" />
        </mxCell>
        <mxCell id="jg8Bvo_pfT-N16XevXx9-3" value="Approve" style="text;html=1;strokeColor=none;fillColor=none;align=center;verticalAlign=middle;whiteSpace=wrap;rounded=0;" parent="4Rwo0V2P_AXXosE0XzBM-2" vertex="1">
          <mxGeometry x="84" y="130" width="60" height="30" as="geometry" />
        </mxCell>
        <mxCell id="jg8Bvo_pfT-N16XevXx9-5" value="Viualization" style="text;html=1;strokeColor=none;fillColor=none;align=center;verticalAlign=middle;whiteSpace=wrap;rounded=0;" parent="4Rwo0V2P_AXXosE0XzBM-2" vertex="1">
          <mxGeometry x="92" y="410" width="60" height="30" as="geometry" />
        </mxCell>
        <mxCell id="b1OWqp67rQSmJ0K2vqaw-3" style="edgeStyle=orthogonalEdgeStyle;rounded=0;orthogonalLoop=1;jettySize=auto;html=1;fillColor=#0050ef;strokeColor=#001DBC;" parent="vA_3_BBL_oBBo2qa8ZQJ-55" edge="1">
          <mxGeometry relative="1" as="geometry">
            <mxPoint x="945" y="150.0000000000001" as="sourcePoint" />
            <mxPoint x="1047.0000000000002" y="321.0344827586207" as="targetPoint" />
            <Array as="points">
              <mxPoint x="973" y="150" />
              <mxPoint x="973" y="321" />
            </Array>
          </mxGeometry>
        </mxCell>
        <mxCell id="b1OWqp67rQSmJ0K2vqaw-4" style="edgeStyle=orthogonalEdgeStyle;rounded=0;orthogonalLoop=1;jettySize=auto;html=1;fillColor=#0050ef;strokeColor=#001DBC;" parent="vA_3_BBL_oBBo2qa8ZQJ-55" source="lYALslR_YEQzHMSZbE-U-9" target="lYALslR_YEQzHMSZbE-U-16" edge="1">
          <mxGeometry relative="1" as="geometry">
            <Array as="points">
              <mxPoint x="1153" y="149" />
              <mxPoint x="1153" y="317" />
            </Array>
          </mxGeometry>
        </mxCell>
        <mxCell id="T91nCbCrqW1TpRlBHmb8-3" style="edgeStyle=orthogonalEdgeStyle;rounded=0;orthogonalLoop=1;jettySize=auto;html=1;entryX=0;entryY=0.5;entryDx=0;entryDy=0;entryPerimeter=0;fillColor=#0050ef;strokeColor=#001DBC;" parent="vA_3_BBL_oBBo2qa8ZQJ-55" source="T91nCbCrqW1TpRlBHmb8-2" target="lYALslR_YEQzHMSZbE-U-24" edge="1">
          <mxGeometry relative="1" as="geometry" />
        </mxCell>
        <mxCell id="T91nCbCrqW1TpRlBHmb8-5" value="데이터 추출" style="swimlane;startSize=40;fontSize=16;" parent="vA_3_BBL_oBBo2qa8ZQJ-55" vertex="1">
          <mxGeometry x="639" y="30" width="177" height="550" as="geometry">
            <mxRectangle x="731" y="30" width="120" height="30" as="alternateBounds" />
          </mxGeometry>
        </mxCell>
        <mxCell id="T91nCbCrqW1TpRlBHmb8-8" value="AWS S3&lt;br&gt;(staged-data)" style="sketch=0;points=[[0,0,0],[0.25,0,0],[0.5,0,0],[0.75,0,0],[1,0,0],[0,1,0],[0.25,1,0],[0.5,1,0],[0.75,1,0],[1,1,0],[0,0.25,0],[0,0.5,0],[0,0.75,0],[1,0.25,0],[1,0.5,0],[1,0.75,0]];outlineConnect=0;fontColor=#232F3E;gradientColor=#60A337;gradientDirection=north;fillColor=#277116;strokeColor=#ffffff;dashed=0;verticalLabelPosition=bottom;verticalAlign=top;align=center;html=1;fontSize=12;fontStyle=0;aspect=fixed;shape=mxgraph.aws4.resourceIcon;resIcon=mxgraph.aws4.s3;" parent="T91nCbCrqW1TpRlBHmb8-5" vertex="1">
          <mxGeometry x="57" y="248" width="78" height="78" as="geometry" />
        </mxCell>
        <mxCell id="T91nCbCrqW1TpRlBHmb8-11" style="edgeStyle=orthogonalEdgeStyle;rounded=0;orthogonalLoop=1;jettySize=auto;html=1;entryX=0;entryY=0.5;entryDx=0;entryDy=0;entryPerimeter=0;fillColor=#0050ef;strokeColor=#001DBC;" parent="vA_3_BBL_oBBo2qa8ZQJ-55" source="T91nCbCrqW1TpRlBHmb8-8" target="lYALslR_YEQzHMSZbE-U-2" edge="1">
          <mxGeometry relative="1" as="geometry">
            <Array as="points">
              <mxPoint x="756" y="317" />
              <mxPoint x="756" y="317" />
            </Array>
          </mxGeometry>
        </mxCell>
        <mxCell id="vA_3_BBL_oBBo2qa8ZQJ-66" value="데이터 수집" style="swimlane;startSize=40;fontSize=16;" parent="vA_3_BBL_oBBo2qa8ZQJ-55" vertex="1">
          <mxGeometry y="30" width="639" height="550" as="geometry">
            <mxRectangle x="-30" y="1060" width="120" height="30" as="alternateBounds" />
          </mxGeometry>
        </mxCell>
        <mxCell id="vA_3_BBL_oBBo2qa8ZQJ-67" value="2" style="rounded=1;whiteSpace=wrap;html=1;fillColor=#007CBD;strokeColor=none;fontColor=#FFFFFF;fontStyle=1;fontSize=22;labelBackgroundColor=none;" parent="vA_3_BBL_oBBo2qa8ZQJ-66" vertex="1">
          <mxGeometry x="336" y="102" width="40" height="38" as="geometry" />
        </mxCell>
        <mxCell id="vA_3_BBL_oBBo2qa8ZQJ-68" value="Staging Data&amp;nbsp;" style="sketch=0;points=[[0,0,0],[0.25,0,0],[0.5,0,0],[0.75,0,0],[1,0,0],[0,1,0],[0.25,1,0],[0.5,1,0],[0.75,1,0],[1,1,0],[0,0.25,0],[0,0.5,0],[0,0.75,0],[1,0.25,0],[1,0.5,0],[1,0.75,0]];outlineConnect=0;fontColor=#232F3E;gradientColor=#F78E04;gradientDirection=north;fillColor=#D05C17;strokeColor=#ffffff;dashed=0;verticalLabelPosition=bottom;verticalAlign=top;align=center;html=1;fontSize=12;fontStyle=0;aspect=fixed;shape=mxgraph.aws4.resourceIcon;resIcon=mxgraph.aws4.lambda;" parent="vA_3_BBL_oBBo2qa8ZQJ-66" vertex="1">
          <mxGeometry x="216" y="430" width="78" height="78" as="geometry" />
        </mxCell>
        <mxCell id="vA_3_BBL_oBBo2qa8ZQJ-69" style="edgeStyle=orthogonalEdgeStyle;rounded=0;orthogonalLoop=1;jettySize=auto;html=1;entryX=0;entryY=0.5;entryDx=0;entryDy=0;entryPerimeter=0;fontSize=11;" parent="vA_3_BBL_oBBo2qa8ZQJ-66" source="vA_3_BBL_oBBo2qa8ZQJ-71" target="vA_3_BBL_oBBo2qa8ZQJ-82" edge="1">
          <mxGeometry relative="1" as="geometry">
            <Array as="points">
              <mxPoint x="166" y="287" />
              <mxPoint x="166" y="355" />
            </Array>
          </mxGeometry>
        </mxCell>
        <mxCell id="T91nCbCrqW1TpRlBHmb8-15" value="&lt;span style=&quot;color: rgba(0, 0, 0, 0); font-family: monospace; font-size: 0px; text-align: start; background-color: rgb(248, 249, 250);&quot;&gt;%3CmxGraphModel%3E%3Croot%3E%3CmxCell%20id%3D%220%22%2F%3E%3CmxCell%20id%3D%221%22%20parent%3D%220%22%2F%3E%3CmxCell%20id%3D%222%22%20value%3D%22Cron%26lt%3Bbr%26gt%3B06%3A00%22%20style%3D%22edgeLabel%3Bhtml%3D1%3Balign%3Dcenter%3BverticalAlign%3Dmiddle%3Bresizable%3D0%3Bpoints%3D%5B%5D%3B%22%20vertex%3D%221%22%20connectable%3D%220%22%20parent%3D%221%22%3E%3CmxGeometry%20x%3D%22326%22%20y%3D%22288.33333333333337%22%20as%3D%22geometry%22%2F%3E%3C%2FmxCell%3E%3C%2Froot%3E%3C%2FmxGraphModel%3E&lt;/span&gt;" style="edgeLabel;html=1;align=center;verticalAlign=middle;resizable=0;points=[];" parent="vA_3_BBL_oBBo2qa8ZQJ-69" vertex="1" connectable="0">
          <mxGeometry x="0.6413" y="-1" relative="1" as="geometry">
            <mxPoint as="offset" />
          </mxGeometry>
        </mxCell>
        <mxCell id="T91nCbCrqW1TpRlBHmb8-16" value="Cron&lt;br&gt;06:00" style="edgeLabel;html=1;align=center;verticalAlign=middle;resizable=0;points=[];" parent="vA_3_BBL_oBBo2qa8ZQJ-69" vertex="1" connectable="0">
          <mxGeometry x="0.6365" y="-1" relative="1" as="geometry">
            <mxPoint x="-5" as="offset" />
          </mxGeometry>
        </mxCell>
        <mxCell id="vA_3_BBL_oBBo2qa8ZQJ-70" style="edgeStyle=orthogonalEdgeStyle;rounded=0;orthogonalLoop=1;jettySize=auto;html=1;entryX=0;entryY=0.5;entryDx=0;entryDy=0;entryPerimeter=0;fontSize=11;" parent="vA_3_BBL_oBBo2qa8ZQJ-66" source="vA_3_BBL_oBBo2qa8ZQJ-71" target="vA_3_BBL_oBBo2qa8ZQJ-68" edge="1">
          <mxGeometry relative="1" as="geometry">
            <Array as="points">
              <mxPoint x="166" y="287" />
              <mxPoint x="166" y="469" />
            </Array>
          </mxGeometry>
        </mxCell>
        <mxCell id="T91nCbCrqW1TpRlBHmb8-17" value="Event&lt;br&gt;Data Lake data&lt;br&gt;Updated" style="edgeLabel;html=1;align=center;verticalAlign=middle;resizable=0;points=[];" parent="vA_3_BBL_oBBo2qa8ZQJ-70" vertex="1" connectable="0">
          <mxGeometry x="0.7944" y="-1" relative="1" as="geometry">
            <mxPoint x="-25" y="-1" as="offset" />
          </mxGeometry>
        </mxCell>
        <mxCell id="vA_3_BBL_oBBo2qa8ZQJ-71" value="AWS EventBridge" style="sketch=0;points=[[0,0,0],[0.25,0,0],[0.5,0,0],[0.75,0,0],[1,0,0],[0,1,0],[0.25,1,0],[0.5,1,0],[0.75,1,0],[1,1,0],[0,0.25,0],[0,0.5,0],[0,0.75,0],[1,0.25,0],[1,0.5,0],[1,0.75,0]];outlineConnect=0;fontColor=#232F3E;gradientColor=#FF4F8B;gradientDirection=north;fillColor=#BC1356;strokeColor=#ffffff;dashed=0;verticalLabelPosition=bottom;verticalAlign=top;align=center;html=1;fontSize=12;fontStyle=0;aspect=fixed;shape=mxgraph.aws4.resourceIcon;resIcon=mxgraph.aws4.eventbridge;" parent="vA_3_BBL_oBBo2qa8ZQJ-66" vertex="1">
          <mxGeometry x="66" y="248" width="78" height="78" as="geometry" />
        </mxCell>
        <mxCell id="vA_3_BBL_oBBo2qa8ZQJ-72" value="Turn on Ec2 Instance" style="outlineConnect=0;fontColor=#232F3E;gradientColor=none;fillColor=#D05C17;strokeColor=none;dashed=0;verticalLabelPosition=bottom;verticalAlign=top;align=center;html=1;fontSize=12;fontStyle=0;aspect=fixed;pointerEvents=1;shape=mxgraph.aws4.lambda_function;labelBackgroundColor=#ffffff;spacingTop=7;" parent="vA_3_BBL_oBBo2qa8ZQJ-66" vertex="1">
          <mxGeometry x="216" y="60" width="78" height="78" as="geometry" />
        </mxCell>
        <mxCell id="vA_3_BBL_oBBo2qa8ZQJ-73" style="edgeStyle=orthogonalEdgeStyle;rounded=0;orthogonalLoop=1;jettySize=auto;html=1;exitX=1;exitY=0.5;exitDx=0;exitDy=0;exitPerimeter=0;" parent="vA_3_BBL_oBBo2qa8ZQJ-66" source="vA_3_BBL_oBBo2qa8ZQJ-71" target="vA_3_BBL_oBBo2qa8ZQJ-72" edge="1">
          <mxGeometry relative="1" as="geometry">
            <Array as="points">
              <mxPoint x="166" y="287" />
              <mxPoint x="166" y="100" />
            </Array>
          </mxGeometry>
        </mxCell>
        <mxCell id="T91nCbCrqW1TpRlBHmb8-12" value="Cron&lt;br&gt;06:00" style="edgeLabel;html=1;align=center;verticalAlign=middle;resizable=0;points=[];" parent="vA_3_BBL_oBBo2qa8ZQJ-73" vertex="1" connectable="0">
          <mxGeometry x="0.2165" y="-1" relative="1" as="geometry">
            <mxPoint x="18" y="-53" as="offset" />
          </mxGeometry>
        </mxCell>
        <mxCell id="vA_3_BBL_oBBo2qa8ZQJ-76" value="Turn off Ec2 Instance" style="outlineConnect=0;fontColor=#232F3E;gradientColor=none;fillColor=#D05C17;strokeColor=none;dashed=0;verticalLabelPosition=bottom;verticalAlign=top;align=center;html=1;fontSize=12;fontStyle=0;aspect=fixed;pointerEvents=1;shape=mxgraph.aws4.lambda_function;labelBackgroundColor=#ffffff;spacingTop=7;" parent="vA_3_BBL_oBBo2qa8ZQJ-66" vertex="1">
          <mxGeometry x="216" y="182" width="78" height="78" as="geometry" />
        </mxCell>
        <mxCell id="vA_3_BBL_oBBo2qa8ZQJ-77" style="edgeStyle=orthogonalEdgeStyle;rounded=0;orthogonalLoop=1;jettySize=auto;html=1;" parent="vA_3_BBL_oBBo2qa8ZQJ-66" source="vA_3_BBL_oBBo2qa8ZQJ-71" target="vA_3_BBL_oBBo2qa8ZQJ-76" edge="1">
          <mxGeometry relative="1" as="geometry">
            <Array as="points">
              <mxPoint x="166" y="287" />
              <mxPoint x="166" y="221" />
            </Array>
          </mxGeometry>
        </mxCell>
        <mxCell id="T91nCbCrqW1TpRlBHmb8-13" value="Cron&lt;br&gt;06:15" style="edgeLabel;html=1;align=center;verticalAlign=middle;resizable=0;points=[];" parent="vA_3_BBL_oBBo2qa8ZQJ-77" vertex="1" connectable="0">
          <mxGeometry x="0.3515" y="-2" relative="1" as="geometry">
            <mxPoint x="15" y="-4" as="offset" />
          </mxGeometry>
        </mxCell>
        <mxCell id="vA_3_BBL_oBBo2qa8ZQJ-78" style="edgeStyle=orthogonalEdgeStyle;rounded=0;orthogonalLoop=1;jettySize=auto;html=1;" parent="vA_3_BBL_oBBo2qa8ZQJ-66" source="vA_3_BBL_oBBo2qa8ZQJ-72" edge="1">
          <mxGeometry relative="1" as="geometry">
            <mxPoint x="376" y="160.0256410256411" as="targetPoint" />
            <Array as="points">
              <mxPoint x="326" y="109" />
              <mxPoint x="326" y="160" />
            </Array>
          </mxGeometry>
        </mxCell>
        <mxCell id="vA_3_BBL_oBBo2qa8ZQJ-79" style="edgeStyle=orthogonalEdgeStyle;rounded=0;orthogonalLoop=1;jettySize=auto;html=1;" parent="vA_3_BBL_oBBo2qa8ZQJ-66" source="vA_3_BBL_oBBo2qa8ZQJ-76" edge="1">
          <mxGeometry relative="1" as="geometry">
            <mxPoint x="376" y="190.0256410256411" as="targetPoint" />
            <Array as="points">
              <mxPoint x="326" y="231" />
              <mxPoint x="326" y="190" />
            </Array>
          </mxGeometry>
        </mxCell>
        <mxCell id="vA_3_BBL_oBBo2qa8ZQJ-80" value="1" style="rounded=1;whiteSpace=wrap;html=1;fillColor=#007CBD;strokeColor=none;fontColor=#FFFFFF;fontStyle=1;fontSize=22;labelBackgroundColor=none;" parent="vA_3_BBL_oBBo2qa8ZQJ-66" vertex="1">
          <mxGeometry x="26" y="210" width="40" height="38" as="geometry" />
        </mxCell>
        <mxCell id="vA_3_BBL_oBBo2qa8ZQJ-82" value="Crawling&amp;nbsp;&lt;b&gt;Weather&amp;nbsp;&lt;/b&gt;Data" style="sketch=0;points=[[0,0,0],[0.25,0,0],[0.5,0,0],[0.75,0,0],[1,0,0],[0,1,0],[0.25,1,0],[0.5,1,0],[0.75,1,0],[1,1,0],[0,0.25,0],[0,0.5,0],[0,0.75,0],[1,0.25,0],[1,0.5,0],[1,0.75,0]];outlineConnect=0;fontColor=#232F3E;gradientColor=#F78E04;gradientDirection=north;fillColor=#D05C17;strokeColor=#ffffff;dashed=0;verticalLabelPosition=bottom;verticalAlign=top;align=center;html=1;fontSize=12;fontStyle=0;aspect=fixed;shape=mxgraph.aws4.resourceIcon;resIcon=mxgraph.aws4.lambda;" parent="vA_3_BBL_oBBo2qa8ZQJ-66" vertex="1">
          <mxGeometry x="216" y="316" width="78" height="78" as="geometry" />
        </mxCell>
        <mxCell id="vA_3_BBL_oBBo2qa8ZQJ-83" value="Crawling &lt;b&gt;Reuter &lt;/b&gt;Data" style="sketch=0;points=[[0,0,0],[0.25,0,0],[0.5,0,0],[0.75,0,0],[1,0,0],[0,1,0],[0.25,1,0],[0.5,1,0],[0.75,1,0],[1,1,0],[0,0.25,0],[0,0.5,0],[0,0.75,0],[1,0.25,0],[1,0.5,0],[1,0.75,0]];outlineConnect=0;fontColor=#232F3E;gradientColor=#F78E04;gradientDirection=north;fillColor=#D05C17;strokeColor=#ffffff;dashed=0;verticalLabelPosition=bottom;verticalAlign=top;align=center;html=1;fontSize=12;fontStyle=0;aspect=fixed;shape=mxgraph.aws4.resourceIcon;resIcon=mxgraph.aws4.ec2;" parent="vA_3_BBL_oBBo2qa8ZQJ-66" vertex="1">
          <mxGeometry x="376" y="140" width="78" height="78" as="geometry" />
        </mxCell>
        <mxCell id="vA_3_BBL_oBBo2qa8ZQJ-60" value="AWS S3&lt;br&gt;(Data Lake)" style="sketch=0;points=[[0,0,0],[0.25,0,0],[0.5,0,0],[0.75,0,0],[1,0,0],[0,1,0],[0.25,1,0],[0.5,1,0],[0.75,1,0],[1,1,0],[0,0.25,0],[0,0.5,0],[0,0.75,0],[1,0.25,0],[1,0.5,0],[1,0.75,0]];outlineConnect=0;fontColor=#232F3E;gradientColor=#60A337;gradientDirection=north;fillColor=#277116;strokeColor=#ffffff;dashed=0;verticalLabelPosition=bottom;verticalAlign=top;align=center;html=1;fontSize=12;fontStyle=0;aspect=fixed;shape=mxgraph.aws4.resourceIcon;resIcon=mxgraph.aws4.s3;" parent="vA_3_BBL_oBBo2qa8ZQJ-66" vertex="1">
          <mxGeometry x="546" y="248" width="78" height="78" as="geometry" />
        </mxCell>
        <mxCell id="vA_3_BBL_oBBo2qa8ZQJ-99" style="edgeStyle=orthogonalEdgeStyle;rounded=0;orthogonalLoop=1;jettySize=auto;html=1;entryX=0;entryY=0.5;entryDx=0;entryDy=0;entryPerimeter=0;fontSize=11;" parent="vA_3_BBL_oBBo2qa8ZQJ-66" source="vA_3_BBL_oBBo2qa8ZQJ-82" target="vA_3_BBL_oBBo2qa8ZQJ-60" edge="1">
          <mxGeometry relative="1" as="geometry">
            <Array as="points">
              <mxPoint x="496" y="355" />
              <mxPoint x="496" y="287" />
            </Array>
          </mxGeometry>
        </mxCell>
        <mxCell id="vA_3_BBL_oBBo2qa8ZQJ-101" style="edgeStyle=orthogonalEdgeStyle;rounded=0;orthogonalLoop=1;jettySize=auto;html=1;entryX=0;entryY=0.5;entryDx=0;entryDy=0;entryPerimeter=0;fontSize=11;" parent="vA_3_BBL_oBBo2qa8ZQJ-66" source="vA_3_BBL_oBBo2qa8ZQJ-83" target="vA_3_BBL_oBBo2qa8ZQJ-60" edge="1">
          <mxGeometry relative="1" as="geometry">
            <Array as="points">
              <mxPoint x="496" y="179" />
              <mxPoint x="496" y="287" />
            </Array>
          </mxGeometry>
        </mxCell>
        <mxCell id="vA_3_BBL_oBBo2qa8ZQJ-100" style="edgeStyle=orthogonalEdgeStyle;rounded=0;orthogonalLoop=1;jettySize=auto;html=1;entryX=0;entryY=0.5;entryDx=0;entryDy=0;entryPerimeter=0;fontSize=11;fillColor=#0050ef;strokeColor=#001DBC;" parent="vA_3_BBL_oBBo2qa8ZQJ-66" source="vA_3_BBL_oBBo2qa8ZQJ-68" target="vA_3_BBL_oBBo2qa8ZQJ-60" edge="1">
          <mxGeometry relative="1" as="geometry">
            <Array as="points">
              <mxPoint x="496" y="469" />
              <mxPoint x="496" y="287" />
            </Array>
          </mxGeometry>
        </mxCell>
        <mxCell id="fahZCgwW7RxsYPd1qHfA-13" value="Github" style="shape=image;html=1;verticalAlign=top;verticalLabelPosition=bottom;labelBackgroundColor=#ffffff;imageAspect=0;aspect=fixed;image=https://cdn4.iconfinder.com/data/icons/ionicons/512/icon-social-github-128.png" parent="vA_3_BBL_oBBo2qa8ZQJ-66" vertex="1">
          <mxGeometry x="382" y="42" width="60" height="60" as="geometry" />
        </mxCell>
        <mxCell id="TnV0GRPAgPcKofh49UK3-4" style="edgeStyle=orthogonalEdgeStyle;rounded=0;orthogonalLoop=1;jettySize=auto;html=1;entryX=0;entryY=0.5;entryDx=0;entryDy=0;entryPerimeter=0;fillColor=#0050ef;strokeColor=#001DBC;" parent="vA_3_BBL_oBBo2qa8ZQJ-55" source="vA_3_BBL_oBBo2qa8ZQJ-60" target="T91nCbCrqW1TpRlBHmb8-8" edge="1">
          <mxGeometry relative="1" as="geometry" />
        </mxCell>
        <mxCell id="vA_3_BBL_oBBo2qa8ZQJ-102" value="Update: 2022-11-17(Thurs)" style="text;html=1;resizable=0;points=[];autosize=1;align=left;verticalAlign=top;spacingTop=-4;fontSize=16;labelBackgroundColor=none;" parent="1" vertex="1">
          <mxGeometry x="340" y="86.5" width="220" height="30" as="geometry" />
        </mxCell>
        <mxCell id="lYALslR_YEQzHMSZbE-U-14" style="edgeStyle=orthogonalEdgeStyle;rounded=0;orthogonalLoop=1;jettySize=auto;html=1;" parent="1" edge="1">
          <mxGeometry relative="1" as="geometry">
            <mxPoint x="1124" y="370" as="targetPoint" />
            <mxPoint x="1124" y="442.61854814882145" as="sourcePoint" />
          </mxGeometry>
        </mxCell>
        <mxCell id="lYALslR_YEQzHMSZbE-U-20" style="edgeStyle=orthogonalEdgeStyle;rounded=0;orthogonalLoop=1;jettySize=auto;html=1;" parent="1" source="lYALslR_YEQzHMSZbE-U-2" edge="1">
          <mxGeometry relative="1" as="geometry">
            <mxPoint x="949" y="370" as="targetPoint" />
          </mxGeometry>
        </mxCell>
        <mxCell id="yIMYqZqMqfdwCuKRlsVO-1" value="" style="group" parent="1" vertex="1" connectable="0">
          <mxGeometry x="1800" y="175" width="570" height="550" as="geometry" />
        </mxCell>
        <mxCell id="yIMYqZqMqfdwCuKRlsVO-2" value="" style="rounded=0;whiteSpace=wrap;html=1;fillColor=#EAEDED;fontSize=22;fontColor=#FFFFFF;strokeColor=none;labelBackgroundColor=none;" parent="yIMYqZqMqfdwCuKRlsVO-1" vertex="1">
          <mxGeometry width="555.5" height="550" as="geometry" />
        </mxCell>
        <mxCell id="yIMYqZqMqfdwCuKRlsVO-3" value="1" style="rounded=1;whiteSpace=wrap;html=1;fillColor=#007CBD;strokeColor=none;fontColor=#FFFFFF;fontStyle=1;fontSize=22;labelBackgroundColor=none;" parent="yIMYqZqMqfdwCuKRlsVO-1" vertex="1">
          <mxGeometry x="17" y="12.382739212007504" width="40" height="39.21200750469043" as="geometry" />
        </mxCell>
        <mxCell id="yIMYqZqMqfdwCuKRlsVO-4" value="2" style="rounded=1;whiteSpace=wrap;html=1;fillColor=#007CBD;strokeColor=none;fontColor=#FFFFFF;fontStyle=1;fontSize=22;labelBackgroundColor=none;" parent="yIMYqZqMqfdwCuKRlsVO-1" vertex="1">
          <mxGeometry x="17" y="122.57607879924953" width="40" height="39.21200750469043" as="geometry" />
        </mxCell>
        <mxCell id="yIMYqZqMqfdwCuKRlsVO-5" value="3" style="rounded=1;whiteSpace=wrap;html=1;fillColor=#007CBD;strokeColor=none;fontColor=#FFFFFF;fontStyle=1;fontSize=22;labelBackgroundColor=none;" parent="yIMYqZqMqfdwCuKRlsVO-1" vertex="1">
          <mxGeometry x="17" y="197" width="40" height="39.21200750469043" as="geometry" />
        </mxCell>
        <mxCell id="yIMYqZqMqfdwCuKRlsVO-6" value="4" style="rounded=1;whiteSpace=wrap;html=1;fillColor=#007CBD;strokeColor=none;fontColor=#FFFFFF;fontStyle=1;fontSize=22;labelBackgroundColor=none;" parent="yIMYqZqMqfdwCuKRlsVO-1" vertex="1">
          <mxGeometry x="17" y="271" width="40" height="39.21200750469043" as="geometry" />
        </mxCell>
        <mxCell id="yIMYqZqMqfdwCuKRlsVO-7" value="5" style="rounded=1;whiteSpace=wrap;html=1;fillColor=#007CBD;strokeColor=none;fontColor=#FFFFFF;fontStyle=1;fontSize=22;labelBackgroundColor=none;" parent="yIMYqZqMqfdwCuKRlsVO-1" vertex="1">
          <mxGeometry x="17" y="345" width="40" height="39.21200750469043" as="geometry" />
        </mxCell>
        <mxCell id="yIMYqZqMqfdwCuKRlsVO-8" value="6" style="rounded=1;whiteSpace=wrap;html=1;fillColor=#007CBD;strokeColor=none;fontColor=#FFFFFF;fontStyle=1;fontSize=22;labelBackgroundColor=none;" parent="yIMYqZqMqfdwCuKRlsVO-1" vertex="1">
          <mxGeometry x="17" y="419" width="40" height="39.21200750469043" as="geometry" />
        </mxCell>
        <mxCell id="yIMYqZqMqfdwCuKRlsVO-9" value="7" style="rounded=1;whiteSpace=wrap;html=1;fillColor=#007CBD;strokeColor=none;fontColor=#FFFFFF;fontStyle=1;fontSize=22;labelBackgroundColor=none;" parent="yIMYqZqMqfdwCuKRlsVO-1" vertex="1">
          <mxGeometry x="17" y="493.61341463414635" width="40" height="39.21200750469043" as="geometry" />
        </mxCell>
        <mxCell id="yIMYqZqMqfdwCuKRlsVO-10" value="EventBridge를 통해&lt;span&gt;&amp;nbsp;매일 오전 6시 3개 Lambda 실행하는 스케줄링 수행&lt;br&gt;&lt;ul&gt;&lt;li&gt;&lt;span&gt;1st Lambda: 06:00에 윈도우 EC2 서버를 켜는 일 수행&lt;/span&gt;&lt;/li&gt;&lt;li&gt;2nd Lambda: 06:15에 윈도우 EC2 서버를 종료하는 일 수행&lt;/li&gt;&lt;li&gt;3rd Lambda: WeatherOnlineAPI를 통한 데이터 수집 수행&lt;/li&gt;&lt;/ul&gt;&lt;/span&gt;" style="text;html=1;align=left;verticalAlign=top;spacingTop=-4;fontSize=14;labelBackgroundColor=none;whiteSpace=wrap;" parent="yIMYqZqMqfdwCuKRlsVO-1" vertex="1">
          <mxGeometry x="70" y="12.38" width="490" height="101.13" as="geometry" />
        </mxCell>
        <mxCell id="yIMYqZqMqfdwCuKRlsVO-11" value="윈도우 EC2를 통해 Reuter 프로그램 실행 -&amp;gt; Git을 통한 코드 동기화 -&amp;gt;&amp;nbsp; 스크립트 실행(데이터 수집 후 S3에 적재)&lt;br&gt;&lt;font style=&quot;font-size: 13px;&quot;&gt;※&amp;nbsp;&lt;span style=&quot;font-size: 14px;&quot;&gt;&lt;b&gt;Reuter&lt;/b&gt;&lt;/span&gt;&lt;b&gt;&amp;nbsp;프로그램&lt;/b&gt;:&lt;span style=&quot;background-color: initial;&quot;&gt;&amp;nbsp;1) VPN역할 수행 2)&lt;/span&gt;&lt;span style=&quot;background-color: initial;&quot;&gt;&amp;nbsp;권장사양: t3a.large(RAM 8GB)&lt;/span&gt;&lt;span style=&quot;background-color: initial;&quot;&gt;&lt;br&gt;&lt;/span&gt;&lt;/font&gt;" style="text;html=1;align=left;verticalAlign=top;spacingTop=-4;fontSize=14;labelBackgroundColor=none;whiteSpace=wrap;" parent="yIMYqZqMqfdwCuKRlsVO-1" vertex="1">
          <mxGeometry x="69" y="122" width="486.5" height="68" as="geometry" />
        </mxCell>
        <mxCell id="yIMYqZqMqfdwCuKRlsVO-12" value="필요한 데이터만 추출하기 위해 S3(Data Lake역할)에 데이터가 적재되면,&lt;br&gt;4th Lambda가 수행됨(새로운 S3 버킷 內 stage-data/[yyyy]/ [mm]/ [dd]/ [ts]/raw.csv 형태로 저장)" style="text;html=1;align=left;verticalAlign=top;spacingTop=-4;fontSize=14;labelBackgroundColor=none;whiteSpace=wrap;" parent="yIMYqZqMqfdwCuKRlsVO-1" vertex="1">
          <mxGeometry x="71.75" y="197" width="481" height="53" as="geometry" />
        </mxCell>
        <mxCell id="yIMYqZqMqfdwCuKRlsVO-13" value="데이터 전처리를 위해 preprocessing.py 파이썬 스크립트 실행 후 stage-data 내&amp;nbsp;&lt;br&gt;데이터를 읽어서 golden-data/[yyyy][mm][dd][ts]_processed.csv로 저장&amp;nbsp;&lt;br&gt;수행 목록 : 원자재데이터(raw.csv) 합치기,&amp;nbsp;Scaling data, Fill missing data" style="text;html=1;align=left;verticalAlign=top;spacingTop=-4;fontSize=14;labelBackgroundColor=none;whiteSpace=wrap;" parent="yIMYqZqMqfdwCuKRlsVO-1" vertex="1">
          <mxGeometry x="70" y="270" width="500" height="59" as="geometry" />
        </mxCell>
        <mxCell id="yIMYqZqMqfdwCuKRlsVO-14" value="모델 훈련을 위해 train.py 파이썬 스크립트 실행 후&amp;nbsp;golden-data 내 processed.csv 읽어서&amp;nbsp;모델의 input으로&amp;nbsp;넣어 훈련을 수행한다.&lt;br&gt;이후 trained-model/yyyymmddts 폴더 내 Model(.h5), leaderboard, Metrics&amp;nbsp;저장" style="text;html=1;align=left;verticalAlign=top;spacingTop=-4;fontSize=14;labelBackgroundColor=none;whiteSpace=wrap;" parent="yIMYqZqMqfdwCuKRlsVO-1" vertex="1">
          <mxGeometry x="71.75" y="345" width="498.25" height="55" as="geometry" />
        </mxCell>
        <mxCell id="yIMYqZqMqfdwCuKRlsVO-15" value="모델 배포 전 QuickSight를 통해서 Model registry에서 실제값과 예측값 비교하여 데이터 사이언티스트, 비즈니스 담당자가 Approve 버튼 클릭시 Deploy&amp;nbsp;" style="text;html=1;align=left;verticalAlign=top;spacingTop=-4;fontSize=14;labelBackgroundColor=none;whiteSpace=wrap;" parent="yIMYqZqMqfdwCuKRlsVO-1" vertex="1">
          <mxGeometry x="70" y="492.84" width="480" height="40.76" as="geometry" />
        </mxCell>
        <mxCell id="yIMYqZqMqfdwCuKRlsVO-16" value="모델 검증을 위해 학습된 여러 모델의 Metrics 중 사용자가 설정한 일정 Threshold가 넘는 모델만 Model Registry 저장.&lt;br&gt;(ex, if 모델MAPE &amp;lt; 0.1 then register model)&lt;br&gt;" style="text;html=1;align=left;verticalAlign=top;spacingTop=-4;fontSize=14;labelBackgroundColor=none;whiteSpace=wrap;" parent="yIMYqZqMqfdwCuKRlsVO-1" vertex="1">
          <mxGeometry x="71.75" y="419" width="478.25" height="61" as="geometry" />
        </mxCell>
        <mxCell id="b1OWqp67rQSmJ0K2vqaw-8" value="" style="endArrow=classic;html=1;rounded=0;" parent="1" edge="1">
          <mxGeometry width="50" height="50" relative="1" as="geometry">
            <mxPoint x="444" y="330" as="sourcePoint" />
            <mxPoint x="444" y="310" as="targetPoint" />
          </mxGeometry>
        </mxCell>
        <mxCell id="b1OWqp67rQSmJ0K2vqaw-9" value="" style="endArrow=classic;html=1;rounded=0;" parent="1" edge="1">
          <mxGeometry width="50" height="50" relative="1" as="geometry">
            <mxPoint x="464" y="310" as="sourcePoint" />
            <mxPoint x="464" y="330" as="targetPoint" />
          </mxGeometry>
        </mxCell>
        <mxCell id="b1OWqp67rQSmJ0K2vqaw-16" style="edgeStyle=orthogonalEdgeStyle;rounded=0;orthogonalLoop=1;jettySize=auto;html=1;" parent="1" source="lYALslR_YEQzHMSZbE-U-24" edge="1">
          <mxGeometry relative="1" as="geometry">
            <mxPoint x="1599" y="380" as="targetPoint" />
          </mxGeometry>
        </mxCell>
        <mxCell id="b1OWqp67rQSmJ0K2vqaw-19" value="Version: 0.4" style="text;html=1;resizable=0;points=[];autosize=1;align=left;verticalAlign=top;spacingTop=-4;fontSize=16;labelBackgroundColor=none;" parent="1" vertex="1">
          <mxGeometry x="600" y="86.5" width="110" height="30" as="geometry" />
        </mxCell>
        <mxCell id="T91nCbCrqW1TpRlBHmb8-19" value="" style="endArrow=none;html=1;rounded=0;fillColor=#0050ef;strokeColor=#001DBC;" parent="1" edge="1">
          <mxGeometry width="50" height="50" relative="1" as="geometry">
            <mxPoint x="1650" y="133.38" as="sourcePoint" />
            <mxPoint x="1700" y="133.38" as="targetPoint" />
          </mxGeometry>
        </mxCell>
        <mxCell id="vA_3_BBL_oBBo2qa8ZQJ-81" value="3" style="rounded=1;whiteSpace=wrap;html=1;fillColor=#007CBD;strokeColor=none;fontColor=#FFFFFF;fontStyle=1;fontSize=22;labelBackgroundColor=none;" parent="1" vertex="1">
          <mxGeometry x="704" y="400" width="40" height="38" as="geometry" />
        </mxCell>
        <mxCell id="4vWEEbhnYI73NkVjLsAP-2" value="" style="shape=image;verticalLabelPosition=bottom;labelBackgroundColor=default;verticalAlign=top;aspect=fixed;imageAspect=0;image=https://images.velog.io/images/minj10092/post/d80b13ab-480d-4f52-9e75-a896fbb07974/feature-image.png;clipPath=inset(10.63% 10.33% 10.63% 6.33%);" parent="1" vertex="1">
          <mxGeometry x="1710.25" y="121.5" width="63.75" height="25.5" as="geometry" />
        </mxCell>
      </root>
    </mxGraphModel>
  </diagram>
</mxfile>
